%TF.GenerationSoftware,KiCad,Pcbnew,6.0.2+dfsg-1*%
%TF.CreationDate,2023-04-22T13:44:05+02:00*%
%TF.ProjectId,weather_station,77656174-6865-4725-9f73-746174696f6e,rev?*%
%TF.SameCoordinates,Original*%
%TF.FileFunction,Copper,L1,Top*%
%TF.FilePolarity,Positive*%
%FSLAX46Y46*%
G04 Gerber Fmt 4.6, Leading zero omitted, Abs format (unit mm)*
G04 Created by KiCad (PCBNEW 6.0.2+dfsg-1) date 2023-04-22 13:44:05*
%MOMM*%
%LPD*%
G01*
G04 APERTURE LIST*
G04 Aperture macros list*
%AMRoundRect*
0 Rectangle with rounded corners*
0 $1 Rounding radius*
0 $2 $3 $4 $5 $6 $7 $8 $9 X,Y pos of 4 corners*
0 Add a 4 corners polygon primitive as box body*
4,1,4,$2,$3,$4,$5,$6,$7,$8,$9,$2,$3,0*
0 Add four circle primitives for the rounded corners*
1,1,$1+$1,$2,$3*
1,1,$1+$1,$4,$5*
1,1,$1+$1,$6,$7*
1,1,$1+$1,$8,$9*
0 Add four rect primitives between the rounded corners*
20,1,$1+$1,$2,$3,$4,$5,0*
20,1,$1+$1,$4,$5,$6,$7,0*
20,1,$1+$1,$6,$7,$8,$9,0*
20,1,$1+$1,$8,$9,$2,$3,0*%
%AMFreePoly0*
4,1,82,-1.212131,1.975377,-0.936919,1.911586,-0.673441,1.809654,-0.426954,1.671615,-0.202376,1.500222,-0.004188,1.298896,0.163656,1.071654,0.297807,0.823029,0.395587,0.557982,0.455047,0.281802,0.475000,0.000000,0.471053,-0.125581,0.433446,-0.405575,0.356762,-0.677476,0.242531,-0.935860,0.093034,-1.175571,-0.088747,-1.391826,-0.299186,-1.580310,-0.534083,-1.737263,-0.788751,-1.859553,
-1.058109,-1.944740,-1.336783,-1.991124,-1.619213,-1.997780,-1.899763,-1.964575,-2.172835,-1.892171,-2.432981,-1.782013,-2.675011,-1.636299,-2.894094,-1.457937,-3.085861,-1.250485,-3.246484,-1.018083,-3.372759,-0.765367,-3.462166,-0.497380,-3.512922,-0.219469,-3.522124,0.014731,-2.579978,0.014731,-2.562748,-0.190462,-2.505990,-0.388401,-2.411866,-0.571546,-2.283962,-0.732921,-2.127149,-0.866379,
-1.947401,-0.966837,-1.751563,-1.030468,-1.547096,-1.054850,-1.341787,-1.039052,-1.143457,-0.983677,-0.959659,-0.890834,-0.797396,-0.764060,-0.662846,-0.608183,-0.561136,-0.429140,-0.496138,-0.233752,-0.470330,-0.029460,-0.469919,0.000000,-0.490013,0.204933,-0.549529,0.402060,-0.646201,0.583873,-0.776345,0.743446,-0.935006,0.874702,-1.116140,0.972640,-1.312847,1.033531,-1.517634,1.055055,
-1.722702,1.036393,-1.920240,0.978254,-2.102724,0.882854,-2.263201,0.753827,-2.395562,0.596086,-2.494762,0.415641,-2.557025,0.219364,-2.579978,0.014731,-3.522124,0.014731,-3.524013,0.062822,-3.495219,0.343858,-3.427113,0.618034,-3.321055,0.879878,-3.179161,1.124167,-3.004262,1.346025,-2.799848,1.541026,-2.569997,1.705280,-2.319296,1.835509,-2.052746,1.929115,-1.775666,1.984229,
-1.493585,1.999753,-1.212131,1.975377,-1.212131,1.975377,$1*%
G04 Aperture macros list end*
%TA.AperFunction,ComponentPad*%
%ADD10R,1.000000X1.000000*%
%TD*%
%TA.AperFunction,ComponentPad*%
%ADD11O,1.000000X1.000000*%
%TD*%
%TA.AperFunction,SMDPad,CuDef*%
%ADD12R,1.442200X4.191000*%
%TD*%
%TA.AperFunction,SMDPad,CuDef*%
%ADD13RoundRect,0.250000X-0.475000X0.250000X-0.475000X-0.250000X0.475000X-0.250000X0.475000X0.250000X0*%
%TD*%
%TA.AperFunction,SMDPad,CuDef*%
%ADD14R,1.000000X2.500000*%
%TD*%
%TA.AperFunction,SMDPad,CuDef*%
%ADD15RoundRect,0.250000X-0.450000X0.262500X-0.450000X-0.262500X0.450000X-0.262500X0.450000X0.262500X0*%
%TD*%
%TA.AperFunction,SMDPad,CuDef*%
%ADD16RoundRect,0.250000X0.262500X0.450000X-0.262500X0.450000X-0.262500X-0.450000X0.262500X-0.450000X0*%
%TD*%
%TA.AperFunction,SMDPad,CuDef*%
%ADD17RoundRect,0.250000X0.475000X-0.250000X0.475000X0.250000X-0.475000X0.250000X-0.475000X-0.250000X0*%
%TD*%
%TA.AperFunction,SMDPad,CuDef*%
%ADD18RoundRect,0.250000X0.250000X0.475000X-0.250000X0.475000X-0.250000X-0.475000X0.250000X-0.475000X0*%
%TD*%
%TA.AperFunction,SMDPad,CuDef*%
%ADD19RoundRect,0.250000X-0.262500X-0.450000X0.262500X-0.450000X0.262500X0.450000X-0.262500X0.450000X0*%
%TD*%
%TA.AperFunction,SMDPad,CuDef*%
%ADD20R,0.670001X0.299999*%
%TD*%
%TA.AperFunction,SMDPad,CuDef*%
%ADD21R,0.800001X1.200000*%
%TD*%
%TA.AperFunction,SMDPad,CuDef*%
%ADD22R,1.200000X1.200000*%
%TD*%
%TA.AperFunction,SMDPad,CuDef*%
%ADD23R,1.520000X1.520000*%
%TD*%
%TA.AperFunction,SMDPad,CuDef*%
%ADD24R,1.905000X1.905000*%
%TD*%
%TA.AperFunction,SMDPad,CuDef*%
%ADD25RoundRect,0.090000X-0.660000X-0.210000X0.660000X-0.210000X0.660000X0.210000X-0.660000X0.210000X0*%
%TD*%
%TA.AperFunction,SMDPad,CuDef*%
%ADD26RoundRect,0.090000X-0.210000X0.660000X-0.210000X-0.660000X0.210000X-0.660000X0.210000X0.660000X0*%
%TD*%
%TA.AperFunction,SMDPad,CuDef*%
%ADD27RoundRect,0.090000X0.660000X0.210000X-0.660000X0.210000X-0.660000X-0.210000X0.660000X-0.210000X0*%
%TD*%
%TA.AperFunction,SMDPad,CuDef*%
%ADD28C,0.550000*%
%TD*%
%TA.AperFunction,SMDPad,CuDef*%
%ADD29FreePoly0,0.000000*%
%TD*%
%TA.AperFunction,ComponentPad*%
%ADD30O,2.200000X1.100000*%
%TD*%
%TA.AperFunction,SMDPad,CuDef*%
%ADD31RoundRect,0.150000X-0.587500X-0.150000X0.587500X-0.150000X0.587500X0.150000X-0.587500X0.150000X0*%
%TD*%
%TA.AperFunction,SMDPad,CuDef*%
%ADD32RoundRect,0.150000X-0.512500X-0.150000X0.512500X-0.150000X0.512500X0.150000X-0.512500X0.150000X0*%
%TD*%
%TA.AperFunction,SMDPad,CuDef*%
%ADD33RoundRect,0.250000X-0.250000X-0.475000X0.250000X-0.475000X0.250000X0.475000X-0.250000X0.475000X0*%
%TD*%
%TA.AperFunction,ComponentPad*%
%ADD34RoundRect,0.250000X0.750000X-0.600000X0.750000X0.600000X-0.750000X0.600000X-0.750000X-0.600000X0*%
%TD*%
%TA.AperFunction,ComponentPad*%
%ADD35O,2.000000X1.700000*%
%TD*%
%TA.AperFunction,ComponentPad*%
%ADD36R,1.050000X1.050000*%
%TD*%
%TA.AperFunction,ComponentPad*%
%ADD37C,1.050000*%
%TD*%
%TA.AperFunction,SMDPad,CuDef*%
%ADD38RoundRect,0.250000X0.450000X-0.262500X0.450000X0.262500X-0.450000X0.262500X-0.450000X-0.262500X0*%
%TD*%
%TA.AperFunction,SMDPad,CuDef*%
%ADD39RoundRect,0.075000X-0.075000X0.662500X-0.075000X-0.662500X0.075000X-0.662500X0.075000X0.662500X0*%
%TD*%
%TA.AperFunction,SMDPad,CuDef*%
%ADD40RoundRect,0.075000X-0.662500X0.075000X-0.662500X-0.075000X0.662500X-0.075000X0.662500X0.075000X0*%
%TD*%
%TA.AperFunction,SMDPad,CuDef*%
%ADD41R,2.500000X1.250000*%
%TD*%
%TA.AperFunction,SMDPad,CuDef*%
%ADD42R,3.325000X2.400000*%
%TD*%
%TA.AperFunction,SMDPad,CuDef*%
%ADD43RoundRect,0.243750X0.243750X0.456250X-0.243750X0.456250X-0.243750X-0.456250X0.243750X-0.456250X0*%
%TD*%
%TA.AperFunction,SMDPad,CuDef*%
%ADD44R,0.250000X0.550000*%
%TD*%
%TA.AperFunction,ViaPad*%
%ADD45C,0.750000*%
%TD*%
%TA.AperFunction,Conductor*%
%ADD46C,0.400000*%
%TD*%
%TA.AperFunction,Conductor*%
%ADD47C,0.200000*%
%TD*%
%TA.AperFunction,Conductor*%
%ADD48C,0.500000*%
%TD*%
G04 APERTURE END LIST*
D10*
%TO.P,J3,1,Pin_1*%
%TO.N,GND*%
X104380000Y-81320000D03*
D11*
%TO.P,J3,2,Pin_2*%
%TO.N,/USART3_RX*%
X104380000Y-80050000D03*
%TO.P,J3,3,Pin_3*%
%TO.N,/USART3_TX*%
X104380000Y-78780000D03*
%TO.P,J3,4,Pin_4*%
%TO.N,/SWDIO*%
X104380000Y-77510000D03*
%TO.P,J3,5,Pin_5*%
%TO.N,/SWCLK*%
X104380000Y-76240000D03*
%TO.P,J3,6,Pin_6*%
%TO.N,/SWO*%
X104380000Y-74970000D03*
%TO.P,J3,7,Pin_7*%
%TO.N,/NRST*%
X104380000Y-73700000D03*
%TO.P,J3,8,Pin_8*%
%TO.N,+3V3*%
X104380000Y-72430000D03*
%TD*%
D12*
%TO.P,L2,1,1*%
%TO.N,/SW_COM*%
X78837300Y-65830000D03*
%TO.P,L2,2,2*%
%TO.N,Net-(L2-Pad2)*%
X82286100Y-65830000D03*
%TD*%
D13*
%TO.P,C2,1*%
%TO.N,GND*%
X110200000Y-75380000D03*
%TO.P,C2,2*%
%TO.N,+3V3*%
X110200000Y-77280000D03*
%TD*%
D14*
%TO.P,U1,1,GND*%
%TO.N,GND*%
X154650000Y-56925000D03*
%TO.P,U1,2,MISO*%
%TO.N,/SPI2_MISO*%
X152650000Y-56925000D03*
%TO.P,U1,3,MOSI*%
%TO.N,/SPI2_MOSI*%
X150650000Y-56925000D03*
%TO.P,U1,4,SCK*%
%TO.N,/SPI2_SCK*%
X148650000Y-56925000D03*
%TO.P,U1,5,NSS*%
%TO.N,/SPI2_CS1*%
X146650000Y-56925000D03*
%TO.P,U1,6,RESET*%
%TO.N,/RFM_RESET*%
X144650000Y-56925000D03*
%TO.P,U1,7,DIO5*%
%TO.N,unconnected-(U1-Pad7)*%
X142650000Y-56925000D03*
%TO.P,U1,8,GND@1*%
%TO.N,GND*%
X140650000Y-56925000D03*
%TO.P,U1,9,ANT*%
%TO.N,/ANT*%
X140650000Y-75125000D03*
%TO.P,U1,10,GND@2*%
%TO.N,GND*%
X142650000Y-75125000D03*
%TO.P,U1,11,DIO3*%
%TO.N,unconnected-(U1-Pad11)*%
X144650000Y-75125000D03*
%TO.P,U1,12,DIO4*%
%TO.N,unconnected-(U1-Pad12)*%
X146650000Y-75125000D03*
%TO.P,U1,13,3_3V*%
%TO.N,+3V3*%
X148650000Y-75125000D03*
%TO.P,U1,14,DIO0*%
%TO.N,/RFM_DIO0*%
X150650000Y-75125000D03*
%TO.P,U1,15,DIO1*%
%TO.N,/RFM_DIO1*%
X152650000Y-75125000D03*
%TO.P,U1,16,DIO2*%
%TO.N,unconnected-(U1-Pad16)*%
X154650000Y-75125000D03*
%TD*%
D15*
%TO.P,R5,1*%
%TO.N,/I2C2_SCL*%
X115120000Y-80767500D03*
%TO.P,R5,2*%
%TO.N,+3V3*%
X115120000Y-82592500D03*
%TD*%
D16*
%TO.P,R16,1*%
%TO.N,Net-(R10-Pad2)*%
X93625000Y-73610000D03*
%TO.P,R16,2*%
%TO.N,GND*%
X91800000Y-73610000D03*
%TD*%
D17*
%TO.P,C8,1*%
%TO.N,GND*%
X101480000Y-81735000D03*
%TO.P,C8,2*%
%TO.N,/NRST*%
X101480000Y-79835000D03*
%TD*%
D18*
%TO.P,C7,1*%
%TO.N,GND*%
X116252500Y-64035001D03*
%TO.P,C7,2*%
%TO.N,+3V3*%
X114352500Y-64035001D03*
%TD*%
%TO.P,C12,1*%
%TO.N,+3V3*%
X133675000Y-56200001D03*
%TO.P,C12,2*%
%TO.N,GND*%
X131775000Y-56200001D03*
%TD*%
%TO.P,C5,1*%
%TO.N,GND*%
X121650000Y-64035001D03*
%TO.P,C5,2*%
%TO.N,+3V3*%
X119750000Y-64035001D03*
%TD*%
D19*
%TO.P,R14,1*%
%TO.N,/I2C1_SCL*%
X124925000Y-75682500D03*
%TO.P,R14,2*%
%TO.N,+3V3*%
X126750000Y-75682500D03*
%TD*%
D20*
%TO.P,U7,1,FB*%
%TO.N,/U7_FB*%
X81344399Y-78774998D03*
%TO.P,U7,2,EN*%
%TO.N,/SW_COM*%
X81344399Y-79274997D03*
%TO.P,U7,3,VIN*%
X81344399Y-79774999D03*
%TO.P,U7,4,GND*%
%TO.N,GND*%
X82824401Y-79774999D03*
%TO.P,U7,5,SW*%
%TO.N,Net-(L1-Pad2)*%
X82824401Y-79274997D03*
%TO.P,U7,6,VOUT*%
%TO.N,+3V3*%
X82824401Y-78774998D03*
%TD*%
D12*
%TO.P,L1,1,1*%
%TO.N,/SW_COM*%
X78617300Y-82795000D03*
%TO.P,L1,2,2*%
%TO.N,Net-(L1-Pad2)*%
X82066100Y-82795000D03*
%TD*%
D21*
%TO.P,U4,1,NCS*%
%TO.N,/SPI2_CS2*%
X129270000Y-66399999D03*
%TO.P,U4,2,CLK*%
%TO.N,/SPI2_SCK*%
X130540000Y-66399999D03*
%TO.P,U4,3,SDI*%
%TO.N,/SPI2_MOSI*%
X131810000Y-66399999D03*
%TO.P,U4,4,SDO*%
%TO.N,/SPI2_MISO*%
X133080000Y-66399999D03*
%TO.P,U4,5,VDD*%
%TO.N,+3V3*%
X133080000Y-58200001D03*
%TO.P,U4,6,VPROG*%
%TO.N,GND*%
X131810000Y-58200001D03*
%TO.P,U4,7,NC*%
%TO.N,unconnected-(U4-Pad7)*%
X130540000Y-58200001D03*
D22*
%TO.P,U4,8,GND*%
%TO.N,GND*%
X129270000Y-58200001D03*
%TD*%
D16*
%TO.P,R8,1*%
%TO.N,Net-(D1-Pad1)*%
X135532500Y-77050000D03*
%TO.P,R8,2*%
%TO.N,GND*%
X133707500Y-77050000D03*
%TD*%
D15*
%TO.P,R6,1*%
%TO.N,/I2C2_SDA*%
X117445000Y-80767500D03*
%TO.P,R6,2*%
%TO.N,+3V3*%
X117445000Y-82592500D03*
%TD*%
D23*
%TO.P,J2,1*%
%TO.N,/ANT*%
X152500000Y-81250000D03*
D24*
%TO.P,J2,S1*%
%TO.N,GND*%
X150125000Y-78875000D03*
%TO.P,J2,S2*%
X154875000Y-78875000D03*
%TO.P,J2,S3*%
X154875000Y-83625000D03*
%TO.P,J2,S4*%
X150125000Y-83625000D03*
%TD*%
D25*
%TO.P,U2,A*%
%TO.N,/ADC1_IN3_NO2*%
X93402500Y-58235000D03*
%TO.P,U2,B*%
%TO.N,GND*%
X93402500Y-59485000D03*
%TO.P,U2,C*%
%TO.N,Net-(R2-Pad1)*%
X93402500Y-60735000D03*
D26*
%TO.P,U2,D*%
%TO.N,/ADC1_IN4_NH3*%
X94382500Y-62735000D03*
%TO.P,U2,E*%
%TO.N,Net-(R1-Pad1)*%
X96922500Y-62735000D03*
D27*
%TO.P,U2,F*%
%TO.N,GND*%
X97902500Y-60735000D03*
%TO.P,U2,G*%
%TO.N,Net-(R1-Pad1)*%
X97902500Y-59485000D03*
%TO.P,U2,H*%
%TO.N,/ADC1_IN2_CO*%
X97902500Y-58235000D03*
D26*
%TO.P,U2,J*%
%TO.N,GND*%
X96922500Y-56235000D03*
%TO.P,U2,K*%
%TO.N,Net-(R4-Pad1)*%
X94382500Y-56235000D03*
%TD*%
D19*
%TO.P,R7,1*%
%TO.N,Net-(C10-Pad2)*%
X115412500Y-61625000D03*
%TO.P,R7,2*%
%TO.N,/HSE_OUT*%
X117237500Y-61625000D03*
%TD*%
D28*
%TO.P,M1,1*%
%TO.N,N/C*%
X68725000Y-56500000D03*
X70250000Y-58025000D03*
X70250000Y-54975000D03*
D29*
X71775000Y-56500000D03*
%TD*%
D30*
%TO.P,U6,1,+VS*%
%TO.N,+5V*%
X103764508Y-58550000D03*
%TO.P,U6,2,VOUT*%
%TO.N,/ADC1_IN1_TEMP*%
X103764508Y-57280000D03*
%TO.P,U6,3,GND*%
%TO.N,GND*%
X103764508Y-56010000D03*
%TD*%
D31*
%TO.P,D2,1*%
%TO.N,GND*%
X95695000Y-74880000D03*
%TO.P,D2,2*%
%TO.N,+3V3*%
X95695000Y-76780000D03*
%TO.P,D2,3*%
%TO.N,Net-(D2-Pad3)*%
X97570000Y-75830000D03*
%TD*%
D17*
%TO.P,C11,1*%
%TO.N,GND*%
X108020000Y-83260000D03*
%TO.P,C11,2*%
%TO.N,+3V3*%
X108020000Y-81360000D03*
%TD*%
D32*
%TO.P,U8,1*%
%TO.N,Net-(D2-Pad3)*%
X95625000Y-71260000D03*
%TO.P,U8,2,GND*%
%TO.N,GND*%
X95625000Y-72210000D03*
%TO.P,U8,3,+*%
%TO.N,Net-(R10-Pad2)*%
X95625000Y-73160000D03*
%TO.P,U8,4,-*%
%TO.N,Net-(D2-Pad3)*%
X97900000Y-73160000D03*
%TO.P,U8,5,V+*%
%TO.N,+3V3*%
X97900000Y-71260000D03*
%TD*%
D13*
%TO.P,C15,1*%
%TO.N,+3V3*%
X88740000Y-78495000D03*
%TO.P,C15,2*%
%TO.N,GND*%
X88740000Y-80395000D03*
%TD*%
D19*
%TO.P,R10,1*%
%TO.N,/SW_COM*%
X91800000Y-71460000D03*
%TO.P,R10,2*%
%TO.N,Net-(R10-Pad2)*%
X93625000Y-71460000D03*
%TD*%
D15*
%TO.P,R1,1*%
%TO.N,Net-(R1-Pad1)*%
X97990000Y-65147500D03*
%TO.P,R1,2*%
%TO.N,+5V*%
X97990000Y-66972500D03*
%TD*%
D33*
%TO.P,C3,1*%
%TO.N,GND*%
X119450000Y-79975000D03*
%TO.P,C3,2*%
%TO.N,+3V3*%
X121350000Y-79975000D03*
%TD*%
D15*
%TO.P,R18,1*%
%TO.N,+5V*%
X83060000Y-58367500D03*
%TO.P,R18,2*%
%TO.N,/U10_FB*%
X83060000Y-60192500D03*
%TD*%
D34*
%TO.P,J1,1,1*%
%TO.N,+BATT*%
X70225000Y-64600000D03*
D35*
%TO.P,J1,2,2*%
%TO.N,GND*%
X70225000Y-62100000D03*
%TD*%
D18*
%TO.P,C1,1*%
%TO.N,GND*%
X116252500Y-66295001D03*
%TO.P,C1,2*%
%TO.N,+3V3*%
X114352500Y-66295001D03*
%TD*%
D15*
%TO.P,R2,1*%
%TO.N,Net-(R2-Pad1)*%
X93277500Y-65147500D03*
%TO.P,R2,2*%
%TO.N,+5V*%
X93277500Y-66972500D03*
%TD*%
D13*
%TO.P,C14,1*%
%TO.N,+3V3*%
X86340000Y-78495000D03*
%TO.P,C14,2*%
%TO.N,GND*%
X86340000Y-80395000D03*
%TD*%
D19*
%TO.P,R13,1*%
%TO.N,/I2C1_SDA*%
X124925000Y-72957500D03*
%TO.P,R13,2*%
%TO.N,+3V3*%
X126750000Y-72957500D03*
%TD*%
D36*
%TO.P,U5,1,VDD*%
%TO.N,+3V3*%
X110859000Y-79570000D03*
D37*
%TO.P,U5,2,VSS*%
%TO.N,GND*%
X110859000Y-80840000D03*
%TO.P,U5,3,SCL*%
%TO.N,/I2C2_SCL*%
X110859000Y-82110000D03*
%TO.P,U5,4,SDA*%
%TO.N,/I2C2_SDA*%
X110859000Y-83380000D03*
%TD*%
D17*
%TO.P,C16,1*%
%TO.N,Net-(C16-Pad1)*%
X130625000Y-83527500D03*
%TO.P,C16,2*%
%TO.N,GND*%
X130625000Y-81627500D03*
%TD*%
D13*
%TO.P,C19,1*%
%TO.N,+5V*%
X88960000Y-61530000D03*
%TO.P,C19,2*%
%TO.N,GND*%
X88960000Y-63430000D03*
%TD*%
D38*
%TO.P,R9,1*%
%TO.N,Net-(C16-Pad1)*%
X127024999Y-83510000D03*
%TO.P,R9,2*%
%TO.N,+3V3*%
X127024999Y-81685000D03*
%TD*%
D13*
%TO.P,C18,1*%
%TO.N,+5V*%
X86560000Y-61530000D03*
%TO.P,C18,2*%
%TO.N,GND*%
X86560000Y-63430000D03*
%TD*%
D33*
%TO.P,C10,1*%
%TO.N,GND*%
X110525000Y-55325000D03*
%TO.P,C10,2*%
%TO.N,Net-(C10-Pad2)*%
X112425000Y-55325000D03*
%TD*%
D17*
%TO.P,C4,1*%
%TO.N,GND*%
X123825000Y-70875000D03*
%TO.P,C4,2*%
%TO.N,+3V3*%
X123825000Y-68975000D03*
%TD*%
D20*
%TO.P,U10,1,FB*%
%TO.N,/U10_FB*%
X81564399Y-61809998D03*
%TO.P,U10,2,EN*%
%TO.N,/SW_COM*%
X81564399Y-62309997D03*
%TO.P,U10,3,VIN*%
X81564399Y-62809999D03*
%TO.P,U10,4,GND*%
%TO.N,GND*%
X83044401Y-62809999D03*
%TO.P,U10,5,SW*%
%TO.N,Net-(L2-Pad2)*%
X83044401Y-62309997D03*
%TO.P,U10,6,VOUT*%
%TO.N,+5V*%
X83044401Y-61809998D03*
%TD*%
D39*
%TO.P,U3,1,VBAT*%
%TO.N,+3V3*%
X119750000Y-68962500D03*
%TO.P,U3,2,PC13*%
%TO.N,/SPI2_CS2*%
X119250000Y-68962500D03*
%TO.P,U3,3,PC14*%
%TO.N,/SPI2_CS1*%
X118750000Y-68962500D03*
%TO.P,U3,4,PC15*%
%TO.N,unconnected-(U3-Pad4)*%
X118250000Y-68962500D03*
%TO.P,U3,5,PF0*%
%TO.N,/HSE_IN*%
X117750000Y-68962500D03*
%TO.P,U3,6,PF1*%
%TO.N,/HSE_OUT*%
X117250000Y-68962500D03*
%TO.P,U3,7,NRST*%
%TO.N,/NRST*%
X116750000Y-68962500D03*
%TO.P,U3,8,VSSA*%
%TO.N,GND*%
X116250000Y-68962500D03*
%TO.P,U3,9,VDDA*%
%TO.N,+3V3*%
X115750000Y-68962500D03*
%TO.P,U3,10,PA0*%
%TO.N,/ADC1_IN1_TEMP*%
X115250000Y-68962500D03*
%TO.P,U3,11,PA1*%
%TO.N,/ADC1_IN2_CO*%
X114750000Y-68962500D03*
%TO.P,U3,12,PA2*%
%TO.N,/ADC1_IN3_NO2*%
X114250000Y-68962500D03*
D40*
%TO.P,U3,13,PA3*%
%TO.N,/ADC1_IN4_NH3*%
X112837500Y-70375000D03*
%TO.P,U3,14,PA4*%
%TO.N,/ADC1_IN5_BATT*%
X112837500Y-70875000D03*
%TO.P,U3,15,PA5*%
%TO.N,unconnected-(U3-Pad15)*%
X112837500Y-71375000D03*
%TO.P,U3,16,PA6*%
%TO.N,unconnected-(U3-Pad16)*%
X112837500Y-71875000D03*
%TO.P,U3,17,PA7*%
%TO.N,unconnected-(U3-Pad17)*%
X112837500Y-72375000D03*
%TO.P,U3,18,PB0*%
%TO.N,unconnected-(U3-Pad18)*%
X112837500Y-72875000D03*
%TO.P,U3,19,PB1*%
%TO.N,unconnected-(U3-Pad19)*%
X112837500Y-73375000D03*
%TO.P,U3,20,PB2*%
%TO.N,unconnected-(U3-Pad20)*%
X112837500Y-73875000D03*
%TO.P,U3,21,PB10*%
%TO.N,/USART3_TX*%
X112837500Y-74375000D03*
%TO.P,U3,22,PB11*%
%TO.N,/USART3_RX*%
X112837500Y-74875000D03*
%TO.P,U3,23,VSS*%
%TO.N,GND*%
X112837500Y-75375000D03*
%TO.P,U3,24,VDD*%
%TO.N,+3V3*%
X112837500Y-75875000D03*
D39*
%TO.P,U3,25,PB12*%
%TO.N,/RFM_RESET*%
X114250000Y-77287500D03*
%TO.P,U3,26,PB13*%
%TO.N,/SPI2_SCK*%
X114750000Y-77287500D03*
%TO.P,U3,27,PB14*%
%TO.N,/SPI2_MISO*%
X115250000Y-77287500D03*
%TO.P,U3,28,PB15*%
%TO.N,/SPI2_MOSI*%
X115750000Y-77287500D03*
%TO.P,U3,29,PA8*%
%TO.N,unconnected-(U3-Pad29)*%
X116250000Y-77287500D03*
%TO.P,U3,30,PA9*%
%TO.N,/I2C2_SCL*%
X116750000Y-77287500D03*
%TO.P,U3,31,PA10*%
%TO.N,/I2C2_SDA*%
X117250000Y-77287500D03*
%TO.P,U3,32,PA11*%
%TO.N,unconnected-(U3-Pad32)*%
X117750000Y-77287500D03*
%TO.P,U3,33,PA12*%
%TO.N,unconnected-(U3-Pad33)*%
X118250000Y-77287500D03*
%TO.P,U3,34,PA13*%
%TO.N,/SWDIO*%
X118750000Y-77287500D03*
%TO.P,U3,35,VSS*%
%TO.N,GND*%
X119250000Y-77287500D03*
%TO.P,U3,36,VDD*%
%TO.N,+3V3*%
X119750000Y-77287500D03*
D40*
%TO.P,U3,37,PA14*%
%TO.N,/SWCLK*%
X121162500Y-75875000D03*
%TO.P,U3,38,PA15*%
%TO.N,/LED*%
X121162500Y-75375000D03*
%TO.P,U3,39,PB3*%
%TO.N,/SWO*%
X121162500Y-74875000D03*
%TO.P,U3,40,PB4*%
%TO.N,unconnected-(U3-Pad40)*%
X121162500Y-74375000D03*
%TO.P,U3,41,PB5*%
%TO.N,/RFM_DIO0*%
X121162500Y-73875000D03*
%TO.P,U3,42,PB6*%
%TO.N,/RFM_DIO1*%
X121162500Y-73375000D03*
%TO.P,U3,43,PB7*%
%TO.N,unconnected-(U3-Pad43)*%
X121162500Y-72875000D03*
%TO.P,U3,44,BOOT0*%
%TO.N,/BOOT0*%
X121162500Y-72375000D03*
%TO.P,U3,45,PB8*%
%TO.N,/I2C1_SCL*%
X121162500Y-71875000D03*
%TO.P,U3,46,PB9*%
%TO.N,/I2C1_SDA*%
X121162500Y-71375000D03*
%TO.P,U3,47,VSS*%
%TO.N,GND*%
X121162500Y-70875000D03*
%TO.P,U3,48,VDD*%
%TO.N,+3V3*%
X121162500Y-70375000D03*
%TD*%
D18*
%TO.P,C17,1*%
%TO.N,/SW_COM*%
X78810000Y-62270000D03*
%TO.P,C17,2*%
%TO.N,GND*%
X76910000Y-62270000D03*
%TD*%
%TO.P,C6,1*%
%TO.N,GND*%
X121650000Y-66295001D03*
%TO.P,C6,2*%
%TO.N,+3V3*%
X119750000Y-66295001D03*
%TD*%
D28*
%TO.P,M2,1*%
%TO.N,N/C*%
X70250000Y-81225000D03*
D29*
X71775000Y-82750000D03*
D28*
X68725000Y-82750000D03*
X70250000Y-84275000D03*
%TD*%
D38*
%TO.P,R19,1*%
%TO.N,/U10_FB*%
X80760000Y-60192500D03*
%TO.P,R19,2*%
%TO.N,GND*%
X80760000Y-58367500D03*
%TD*%
D41*
%TO.P,SW1,1,A*%
%TO.N,GND*%
X71975000Y-72300000D03*
%TO.P,SW1,2,B*%
%TO.N,/SW_COM*%
X71975000Y-74800000D03*
%TO.P,SW1,3,C*%
%TO.N,+BATT*%
X71975000Y-77300000D03*
%TD*%
D38*
%TO.P,R3,1*%
%TO.N,GND*%
X123500000Y-81587500D03*
%TO.P,R3,2*%
%TO.N,/BOOT0*%
X123500000Y-79762500D03*
%TD*%
D42*
%TO.P,Y1,1*%
%TO.N,Net-(C10-Pad2)*%
X112425000Y-58500000D03*
%TO.P,Y1,2*%
%TO.N,/HSE_IN*%
X117950000Y-58500000D03*
%TD*%
D38*
%TO.P,R15,1*%
%TO.N,/U7_FB*%
X80540000Y-77160000D03*
%TO.P,R15,2*%
%TO.N,GND*%
X80540000Y-75335000D03*
%TD*%
D18*
%TO.P,C13,1*%
%TO.N,/SW_COM*%
X78590000Y-79235000D03*
%TO.P,C13,2*%
%TO.N,GND*%
X76690000Y-79235000D03*
%TD*%
%TO.P,C9,1*%
%TO.N,GND*%
X119850000Y-55325000D03*
%TO.P,C9,2*%
%TO.N,/HSE_IN*%
X117950000Y-55325000D03*
%TD*%
D15*
%TO.P,R12,1*%
%TO.N,/ADC1_IN5_BATT*%
X100025000Y-71277500D03*
%TO.P,R12,2*%
%TO.N,Net-(D2-Pad3)*%
X100025000Y-73102500D03*
%TD*%
%TO.P,R11,1*%
%TO.N,+3V3*%
X82840000Y-75335000D03*
%TO.P,R11,2*%
%TO.N,/U7_FB*%
X82840000Y-77160000D03*
%TD*%
D16*
%TO.P,R4,1*%
%TO.N,Net-(R4-Pad1)*%
X91232500Y-56185000D03*
%TO.P,R4,2*%
%TO.N,+5V*%
X89407500Y-56185000D03*
%TD*%
D43*
%TO.P,D1,1,K*%
%TO.N,Net-(D1-Pad1)*%
X135537500Y-73500000D03*
%TO.P,D1,2,A*%
%TO.N,/LED*%
X133662500Y-73500000D03*
%TD*%
D44*
%TO.P,U9,1,VCC*%
%TO.N,+3V3*%
X132680000Y-83965000D03*
%TO.P,U9,2,ADDR*%
%TO.N,Net-(R17-Pad2)*%
X133180000Y-83965000D03*
%TO.P,U9,3,GND*%
%TO.N,GND*%
X133680000Y-83965000D03*
%TO.P,U9,4,SDA*%
%TO.N,/I2C1_SDA*%
X133680000Y-81215000D03*
%TO.P,U9,5,DVI*%
%TO.N,Net-(C16-Pad1)*%
X133180000Y-81215000D03*
%TO.P,U9,6,SCL*%
%TO.N,/I2C1_SCL*%
X132680000Y-81215000D03*
%TD*%
D15*
%TO.P,R17,1*%
%TO.N,GND*%
X135720000Y-81647500D03*
%TO.P,R17,2*%
%TO.N,Net-(R17-Pad2)*%
X135720000Y-83472500D03*
%TD*%
D45*
%TO.N,GND*%
X121240000Y-56410000D03*
X88780132Y-82501675D03*
X145939284Y-82125000D03*
X154650000Y-58925000D03*
X87880132Y-82501675D03*
X141225000Y-80100000D03*
X140625000Y-79475000D03*
X75375000Y-79675000D03*
X149867852Y-82125000D03*
X119150000Y-81300000D03*
X86980132Y-81601675D03*
X143275000Y-79825000D03*
X86300000Y-65550000D03*
X88100000Y-65550000D03*
X75575000Y-61840000D03*
X89680132Y-81601675D03*
X88100000Y-64650000D03*
X149975000Y-80475000D03*
X93070000Y-74880000D03*
X75375000Y-78800000D03*
X143075000Y-81950000D03*
X146921426Y-82125000D03*
X147350000Y-80475000D03*
X116250000Y-62810000D03*
X88780132Y-81601675D03*
X86080132Y-82501675D03*
X125127701Y-71302299D03*
X89900000Y-65550000D03*
X135710000Y-79640000D03*
X85400000Y-64650000D03*
X144957142Y-82125000D03*
X145600000Y-80475000D03*
X78990000Y-75330000D03*
X142075000Y-78650000D03*
X89000000Y-65550000D03*
X140000000Y-78875000D03*
X85180132Y-81601675D03*
X143850000Y-80425000D03*
X89900000Y-64650000D03*
X141500000Y-78025000D03*
X144725000Y-80475000D03*
X150850000Y-80475000D03*
X150850000Y-82125000D03*
X89000000Y-64650000D03*
X79200000Y-58375000D03*
X148225000Y-80475000D03*
X148885710Y-82125000D03*
X146475000Y-80475000D03*
X87200000Y-65550000D03*
X87880132Y-81601675D03*
X139800000Y-77175000D03*
X99540000Y-60125000D03*
X89680132Y-82501675D03*
X122350000Y-62650000D03*
X141475000Y-77175000D03*
X86980132Y-82501675D03*
X143975000Y-82125000D03*
X147903568Y-82125000D03*
X130625000Y-80450000D03*
X149100000Y-80475000D03*
X139825000Y-78025000D03*
X74200000Y-72300000D03*
X142675000Y-79250000D03*
X148210000Y-83670000D03*
X109275000Y-56400000D03*
X133680000Y-84870000D03*
X136450000Y-56930000D03*
X142475000Y-81350000D03*
X86080132Y-81601675D03*
X75575000Y-62715000D03*
X87200000Y-64650000D03*
X122125000Y-81600000D03*
X86300000Y-64650000D03*
X141850000Y-80725000D03*
%TO.N,+3V3*%
X113100000Y-64925000D03*
X100640000Y-69690000D03*
X121935339Y-61851777D03*
%TO.N,/NRST*%
X114320000Y-70420000D03*
%TO.N,+5V*%
X100640000Y-65800000D03*
%TO.N,/LED*%
X122577501Y-75370678D03*
X132500000Y-73500000D03*
%TO.N,/SWO*%
X116966589Y-74441589D03*
%TO.N,/SWCLK*%
X118950000Y-75066089D03*
%TO.N,/SWDIO*%
X116975000Y-75750000D03*
%TO.N,/I2C2_SCL*%
X116750000Y-78690000D03*
%TO.N,/I2C2_SDA*%
X117660000Y-78680000D03*
%TO.N,/I2C1_SDA*%
X125330000Y-74310000D03*
X133290000Y-78980000D03*
%TO.N,/I2C1_SCL*%
X131830000Y-80390000D03*
X125390000Y-77190000D03*
%TO.N,/SPI2_MISO*%
X129975000Y-68275000D03*
X116975000Y-72250000D03*
%TO.N,/SPI2_MOSI*%
X116976790Y-73542144D03*
X131825000Y-67650500D03*
%TO.N,/SPI2_SCK*%
X115490000Y-72560000D03*
X129925000Y-65150000D03*
%TO.N,/RFM_RESET*%
X115500000Y-71280000D03*
X143650000Y-59075000D03*
%TO.N,/RFM_DIO0*%
X122570000Y-73870000D03*
X150160000Y-72870000D03*
%TO.N,/RFM_DIO1*%
X151630000Y-72190000D03*
X119570000Y-72730000D03*
%TO.N,/ADC1_IN3_NO2*%
X99540000Y-61330000D03*
X95090000Y-58230000D03*
%TO.N,/ADC1_IN4_NH3*%
X95640000Y-62740000D03*
X99540000Y-62740000D03*
%TD*%
D46*
%TO.N,GND*%
X97902500Y-60735000D02*
X98930000Y-60735000D01*
X97147500Y-56010000D02*
X103764508Y-56010000D01*
D47*
X130065000Y-59510000D02*
X129270000Y-58715000D01*
D46*
X121237500Y-56412500D02*
X121240000Y-56410000D01*
X133707500Y-77050000D02*
X133707500Y-77697500D01*
X122137500Y-81587500D02*
X122125000Y-81600000D01*
X123500000Y-81587500D02*
X122137500Y-81587500D01*
X86080132Y-81601675D02*
X85180132Y-81601675D01*
D47*
X131810000Y-58735000D02*
X131035000Y-59510000D01*
D46*
X76005000Y-62270000D02*
X76005000Y-62285000D01*
X136450000Y-56925000D02*
X134550000Y-55025000D01*
X108020000Y-83260000D02*
X108450000Y-83260000D01*
X119150000Y-81300000D02*
X119450000Y-81000000D01*
X75810000Y-79235000D02*
X75810000Y-79240000D01*
X96922500Y-57602500D02*
X95040000Y-59485000D01*
X88780132Y-81601675D02*
X88780132Y-82501675D01*
D47*
X110200000Y-75380000D02*
X112832500Y-75380000D01*
X112832500Y-75380000D02*
X112837500Y-75375000D01*
D46*
X86300000Y-64650000D02*
X86300000Y-65550000D01*
X125127701Y-71302299D02*
X124700402Y-70875000D01*
X133707500Y-77697500D02*
X135720000Y-79710000D01*
X79207500Y-58367500D02*
X79200000Y-58375000D01*
X121650000Y-64035001D02*
X121650000Y-63350000D01*
X119850000Y-55325000D02*
X120150000Y-55325000D01*
X121650000Y-64035001D02*
X121650000Y-66295001D01*
X76005000Y-62270000D02*
X75575000Y-61840000D01*
X116252500Y-64035001D02*
X116252500Y-66295001D01*
X88740000Y-80395000D02*
X88740000Y-81561543D01*
X96220000Y-72210000D02*
X96780000Y-72770000D01*
X116252500Y-62812500D02*
X116252500Y-64035001D01*
X96780000Y-72770000D02*
X96780000Y-74140000D01*
X86300000Y-64650000D02*
X87200000Y-64650000D01*
X96922500Y-56235000D02*
X96922500Y-57602500D01*
X86080132Y-82501675D02*
X86980132Y-82501675D01*
X89000000Y-65550000D02*
X88100000Y-65550000D01*
X130625000Y-81627500D02*
X130625000Y-80450000D01*
X88780132Y-82501675D02*
X89680132Y-82501675D01*
D47*
X131035000Y-59510000D02*
X130065000Y-59510000D01*
D46*
X124700402Y-70875000D02*
X123825000Y-70875000D01*
X141390000Y-72400000D02*
X139150000Y-72400000D01*
X88960000Y-64610000D02*
X89000000Y-64650000D01*
X76910000Y-62270000D02*
X76005000Y-62270000D01*
X78990000Y-75330000D02*
X78995000Y-75335000D01*
X86080132Y-80654868D02*
X86340000Y-80395000D01*
X91800000Y-73610000D02*
X93070000Y-74880000D01*
X110859000Y-80851000D02*
X110859000Y-80840000D01*
X141390000Y-72400000D02*
X142650000Y-73660000D01*
X104380000Y-81320000D02*
X104455000Y-81320000D01*
X135720000Y-79710000D02*
X135720000Y-81647500D01*
X75810000Y-79235000D02*
X76690000Y-79235000D01*
X142650000Y-73660000D02*
X142650000Y-75125000D01*
X121650000Y-63350000D02*
X122350000Y-62650000D01*
D47*
X121162500Y-70875000D02*
X123825000Y-70875000D01*
D46*
X86300000Y-64650000D02*
X86300000Y-63690000D01*
X96780000Y-74140000D02*
X96040000Y-74880000D01*
X89000000Y-64650000D02*
X89900000Y-64650000D01*
X88740000Y-81561543D02*
X88780132Y-81601675D01*
X86080132Y-81601675D02*
X86980132Y-81601675D01*
D47*
X131810000Y-56235001D02*
X131810000Y-58200001D01*
D46*
X154650000Y-56925000D02*
X154650000Y-58925000D01*
X148210000Y-83670000D02*
X150080000Y-83670000D01*
X108450000Y-83260000D02*
X110859000Y-80851000D01*
X148215000Y-83675000D02*
X148210000Y-83670000D01*
D47*
X119250000Y-79775000D02*
X119450000Y-79975000D01*
D46*
X119450000Y-81000000D02*
X119450000Y-79975000D01*
D47*
X131775000Y-56200001D02*
X131810000Y-56235001D01*
D46*
X150080000Y-83670000D02*
X150125000Y-83625000D01*
X75810000Y-79240000D02*
X75375000Y-79675000D01*
X131775000Y-55775000D02*
X131775000Y-56200001D01*
X110350000Y-55325000D02*
X109275000Y-56400000D01*
D47*
X116250000Y-66297501D02*
X116252500Y-66295001D01*
D46*
X76005000Y-62285000D02*
X75575000Y-62715000D01*
D47*
X119250000Y-77287500D02*
X119250000Y-79775000D01*
D46*
X96922500Y-56235000D02*
X97147500Y-56010000D01*
X110200000Y-75575000D02*
X110200000Y-75380000D01*
X120150000Y-55325000D02*
X121237500Y-56412500D01*
X88780132Y-81601675D02*
X87880132Y-81601675D01*
X86080132Y-81601675D02*
X86080132Y-82501675D01*
X134550000Y-55025000D02*
X132525000Y-55025000D01*
X89000000Y-64650000D02*
X89000000Y-65550000D01*
X80760000Y-58367500D02*
X79207500Y-58367500D01*
X88780132Y-81601675D02*
X89680132Y-81601675D01*
X137580000Y-77850000D02*
X135720000Y-79710000D01*
X71975000Y-72300000D02*
X74200000Y-72300000D01*
X89000000Y-65550000D02*
X89900000Y-65550000D01*
X95625000Y-72210000D02*
X96220000Y-72210000D01*
D47*
X133680000Y-84870000D02*
X133680000Y-83965000D01*
D46*
X110525000Y-55325000D02*
X110350000Y-55325000D01*
X88780132Y-82501675D02*
X87880132Y-82501675D01*
D47*
X116250000Y-68962500D02*
X116250000Y-66297501D01*
D46*
X75375000Y-78800000D02*
X75810000Y-79235000D01*
X132525000Y-55025000D02*
X131775000Y-55775000D01*
X104455000Y-81320000D02*
X110200000Y-75575000D01*
X95040000Y-59485000D02*
X93402500Y-59485000D01*
X85400000Y-64650000D02*
X86300000Y-64650000D01*
X101480000Y-81735000D02*
X103965000Y-81735000D01*
X96040000Y-74880000D02*
X95695000Y-74880000D01*
X86080132Y-81601675D02*
X86080132Y-80654868D01*
X88960000Y-63430000D02*
X88960000Y-64610000D01*
X116250000Y-62810000D02*
X116252500Y-62812500D01*
X93070000Y-74880000D02*
X95695000Y-74880000D01*
D47*
X131810000Y-58200001D02*
X131810000Y-58735000D01*
D46*
X89000000Y-64650000D02*
X88100000Y-64650000D01*
X86300000Y-63690000D02*
X86560000Y-63430000D01*
X137580000Y-73970000D02*
X137580000Y-77850000D01*
X103965000Y-81735000D02*
X104380000Y-81320000D01*
X78995000Y-75335000D02*
X80540000Y-75335000D01*
X140650000Y-56925000D02*
X136450000Y-56925000D01*
X139150000Y-72400000D02*
X137580000Y-73970000D01*
X98930000Y-60735000D02*
X99540000Y-60125000D01*
X86300000Y-65550000D02*
X87200000Y-65550000D01*
D47*
%TO.N,+3V3*%
X122150000Y-70375000D02*
X123550000Y-68975000D01*
D46*
X113989999Y-64035001D02*
X113100000Y-64925000D01*
X104380000Y-72430000D02*
X95900000Y-80910000D01*
X91110000Y-76780000D02*
X89395000Y-78495000D01*
D47*
X123550000Y-68975000D02*
X123825000Y-68975000D01*
D46*
X121935339Y-61851777D02*
X121933225Y-61851777D01*
X95695000Y-76780000D02*
X91110000Y-76780000D01*
D47*
X132680000Y-83965000D02*
X131815000Y-84830000D01*
D46*
X114352500Y-64035001D02*
X114352500Y-66295001D01*
D47*
X111432500Y-77280000D02*
X112837500Y-75875000D01*
X115750000Y-68000000D02*
X114352500Y-66602500D01*
D46*
X107790000Y-81360000D02*
X104320000Y-84830000D01*
X148650000Y-72650000D02*
X148650000Y-75125000D01*
X103995000Y-84830000D02*
X112882500Y-84830000D01*
X131925000Y-60275000D02*
X133080000Y-59120000D01*
D47*
X119750000Y-68962500D02*
X119750000Y-66295001D01*
D46*
X137410000Y-69060000D02*
X123910000Y-69060000D01*
X95730000Y-84830000D02*
X102485000Y-84830000D01*
X133080000Y-59120000D02*
X133080000Y-58200001D01*
D47*
X131815000Y-84830000D02*
X123879999Y-84830000D01*
D46*
X110859000Y-79570000D02*
X110200000Y-78911000D01*
X121933225Y-61851777D02*
X121930001Y-61855001D01*
D47*
X133675000Y-57605001D02*
X133675000Y-56200001D01*
D46*
X121930001Y-61855001D02*
X123510001Y-60275000D01*
X119500000Y-82630000D02*
X121350000Y-80780000D01*
X121350000Y-80780000D02*
X121350000Y-79975000D01*
X123510001Y-60275000D02*
X131925000Y-60275000D01*
X117445000Y-82592500D02*
X119197500Y-82592500D01*
X104320000Y-84830000D02*
X103995000Y-84830000D01*
D47*
X119750000Y-77287500D02*
X119750000Y-78275000D01*
X119750000Y-78275000D02*
X121350000Y-79875000D01*
D46*
X123879999Y-84830000D02*
X127024999Y-81685000D01*
X126750000Y-81410001D02*
X127024999Y-81685000D01*
X112882500Y-84830000D02*
X123879999Y-84830000D01*
X119235000Y-82630000D02*
X119500000Y-82630000D01*
X126750000Y-72957500D02*
X126750000Y-71900000D01*
X123910000Y-69060000D02*
X123825000Y-68975000D01*
X89395000Y-78495000D02*
X91810000Y-80910000D01*
D47*
X114352500Y-66602500D02*
X114352500Y-66295001D01*
X110200000Y-77280000D02*
X111432500Y-77280000D01*
D46*
X88740000Y-78495000D02*
X89395000Y-78495000D01*
X99470000Y-69690000D02*
X100640000Y-69690000D01*
X119750000Y-64035001D02*
X121930001Y-61855001D01*
D47*
X115750000Y-68962500D02*
X115750000Y-68000000D01*
X133080000Y-58200001D02*
X133675000Y-57605001D01*
D46*
X119197500Y-82592500D02*
X119235000Y-82630000D01*
X137430000Y-69060000D02*
X145060000Y-69060000D01*
X145060000Y-69060000D02*
X148650000Y-72650000D01*
X95900000Y-80910000D02*
X91810000Y-80910000D01*
D47*
X121350000Y-79875000D02*
X121350000Y-79975000D01*
D46*
X115120000Y-82592500D02*
X117445000Y-82592500D01*
X126750000Y-71900000D02*
X123825000Y-68975000D01*
X108020000Y-81360000D02*
X109069000Y-81360000D01*
X119750000Y-64035001D02*
X119750000Y-66295001D01*
D47*
X121162500Y-70375000D02*
X122150000Y-70375000D01*
D46*
X108020000Y-81360000D02*
X107790000Y-81360000D01*
X126750000Y-75682500D02*
X126750000Y-81410001D01*
X97900000Y-71260000D02*
X99470000Y-69690000D01*
X110200000Y-78911000D02*
X110200000Y-77280000D01*
X102485000Y-84830000D02*
X103995000Y-84830000D01*
X112882500Y-84830000D02*
X115120000Y-82592500D01*
X126750000Y-72957500D02*
X126750000Y-75682500D01*
X114352500Y-64035001D02*
X113989999Y-64035001D01*
X109069000Y-81360000D02*
X110859000Y-79570000D01*
X91810000Y-80910000D02*
X95730000Y-84830000D01*
D47*
%TO.N,/NRST*%
X101480000Y-76545000D02*
X101480000Y-79835000D01*
X116750000Y-70010000D02*
X116340000Y-70420000D01*
X104325000Y-73700000D02*
X101480000Y-76545000D01*
X116340000Y-70420000D02*
X114320000Y-70420000D01*
X116750000Y-68962500D02*
X116750000Y-70010000D01*
X104380000Y-73700000D02*
X104325000Y-73700000D01*
%TO.N,/HSE_IN*%
X118225000Y-67500000D02*
X118225000Y-58775000D01*
X117950000Y-55325000D02*
X117950000Y-58500000D01*
X118225000Y-58775000D02*
X117950000Y-58500000D01*
X117750000Y-68962500D02*
X117750000Y-67975000D01*
X117750000Y-67975000D02*
X118225000Y-67500000D01*
%TO.N,Net-(C10-Pad2)*%
X115412500Y-61487500D02*
X115412500Y-61625000D01*
X112425000Y-55325000D02*
X112425000Y-58500000D01*
X112425000Y-58500000D02*
X115412500Y-61487500D01*
%TO.N,Net-(C16-Pad1)*%
X130625000Y-83527500D02*
X131582500Y-83527500D01*
X130607500Y-83510000D02*
X130625000Y-83527500D01*
X127024999Y-83510000D02*
X130607500Y-83510000D01*
X133180000Y-81930000D02*
X133180000Y-81215000D01*
X131582500Y-83527500D02*
X133180000Y-81930000D01*
D46*
%TO.N,+5V*%
X99467500Y-66972500D02*
X97990000Y-66972500D01*
X91250000Y-62900000D02*
X91250000Y-65810000D01*
X91250000Y-65810000D02*
X92412500Y-66972500D01*
X93277500Y-66972500D02*
X97990000Y-66972500D01*
X89407500Y-56185000D02*
X88960000Y-56632500D01*
X92412500Y-66972500D02*
X93277500Y-66972500D01*
X100640000Y-65800000D02*
X99467500Y-66972500D01*
X88960000Y-56632500D02*
X88960000Y-61530000D01*
X89880000Y-61530000D02*
X91250000Y-62900000D01*
X88960000Y-61530000D02*
X89880000Y-61530000D01*
D47*
%TO.N,Net-(D1-Pad1)*%
X135537500Y-73500000D02*
X135537500Y-77045000D01*
X135537500Y-77045000D02*
X135532500Y-77050000D01*
%TO.N,/LED*%
X122573179Y-75375000D02*
X121162500Y-75375000D01*
X122577501Y-75370678D02*
X122573179Y-75375000D01*
X133662500Y-73500000D02*
X132500000Y-73500000D01*
%TO.N,Net-(D2-Pad3)*%
X97900000Y-73025000D02*
X97900000Y-73160000D01*
X97570000Y-75830000D02*
X97900000Y-75500000D01*
X96135000Y-71260000D02*
X97900000Y-73025000D01*
X97900000Y-75500000D02*
X97900000Y-73160000D01*
X97957500Y-73102500D02*
X97900000Y-73160000D01*
X95625000Y-71260000D02*
X96135000Y-71260000D01*
X100025000Y-73102500D02*
X97957500Y-73102500D01*
D46*
%TO.N,+BATT*%
X70130000Y-64695000D02*
X70130000Y-76120000D01*
X70225000Y-64600000D02*
X70130000Y-64695000D01*
X71310000Y-77300000D02*
X71975000Y-77300000D01*
X70130000Y-76120000D02*
X71310000Y-77300000D01*
D48*
%TO.N,/ANT*%
X143580000Y-81300000D02*
X152225000Y-81300000D01*
X140650000Y-75125000D02*
X140650000Y-78370000D01*
X140650000Y-78370000D02*
X143580000Y-81300000D01*
D47*
%TO.N,/SWO*%
X116966589Y-74441589D02*
X119611589Y-74441589D01*
X119611589Y-74441589D02*
X120045000Y-74875000D01*
X120045000Y-74875000D02*
X121162500Y-74875000D01*
%TO.N,/SWCLK*%
X119758911Y-75875000D02*
X121162500Y-75875000D01*
X118950000Y-75066089D02*
X119758911Y-75875000D01*
%TO.N,/SWDIO*%
X118275000Y-75750000D02*
X116975000Y-75750000D01*
X118750000Y-76225000D02*
X118275000Y-75750000D01*
X118750000Y-77287500D02*
X118750000Y-76225000D01*
%TO.N,Net-(L1-Pad2)*%
X82066100Y-79498298D02*
X82066100Y-82795000D01*
X82289401Y-79274997D02*
X82066100Y-79498298D01*
X82824401Y-79274997D02*
X82289401Y-79274997D01*
%TO.N,Net-(L2-Pad2)*%
X82286100Y-62533298D02*
X82286100Y-65830000D01*
X83044401Y-62309997D02*
X82509401Y-62309997D01*
X82509401Y-62309997D02*
X82286100Y-62533298D01*
%TO.N,Net-(R1-Pad1)*%
X97902500Y-59485000D02*
X97464290Y-59485000D01*
X97464290Y-59485000D02*
X96794290Y-60155000D01*
X96794290Y-62606790D02*
X96922500Y-62735000D01*
X96922500Y-62735000D02*
X97990000Y-63802500D01*
X96794290Y-60155000D02*
X96794290Y-62606790D01*
X97990000Y-63802500D02*
X97990000Y-65147500D01*
%TO.N,Net-(R2-Pad1)*%
X93402500Y-60735000D02*
X93277500Y-60860000D01*
X93277500Y-60860000D02*
X93277500Y-65147500D01*
%TO.N,/BOOT0*%
X121162500Y-72375000D02*
X122105706Y-72375000D01*
X123375000Y-79637500D02*
X123500000Y-79762500D01*
X122105706Y-72375000D02*
X123375000Y-73644294D01*
X123375000Y-73644294D02*
X123375000Y-79637500D01*
%TO.N,Net-(R4-Pad1)*%
X94332500Y-56185000D02*
X94382500Y-56235000D01*
X91232500Y-56185000D02*
X94332500Y-56185000D01*
%TO.N,/I2C2_SCL*%
X116750000Y-78690000D02*
X116750000Y-79137500D01*
X116750000Y-79137500D02*
X115120000Y-80767500D01*
X116750000Y-78670000D02*
X116750000Y-77287500D01*
%TO.N,/I2C2_SDA*%
X117250000Y-77287500D02*
X117250000Y-78270000D01*
X117660000Y-80552500D02*
X117445000Y-80767500D01*
X117250000Y-78270000D02*
X117660000Y-78680000D01*
X117660000Y-78680000D02*
X117660000Y-80552500D01*
%TO.N,/HSE_OUT*%
X117237500Y-61625000D02*
X117237500Y-68950000D01*
X117237500Y-68950000D02*
X117250000Y-68962500D01*
%TO.N,Net-(R10-Pad2)*%
X93625000Y-71460000D02*
X93625000Y-73610000D01*
X95625000Y-73160000D02*
X94075000Y-73160000D01*
X94075000Y-73160000D02*
X93625000Y-73610000D01*
%TO.N,/ADC1_IN5_BATT*%
X100025000Y-71277500D02*
X100427500Y-70875000D01*
X100427500Y-70875000D02*
X112837500Y-70875000D01*
%TO.N,/I2C1_SDA*%
X133290000Y-78980000D02*
X133680000Y-79370000D01*
X124925000Y-73905000D02*
X124925000Y-72957500D01*
X121162500Y-71375000D02*
X122685000Y-71375000D01*
X125330000Y-74310000D02*
X124925000Y-73905000D01*
X124267500Y-72957500D02*
X124925000Y-72957500D01*
X133680000Y-79370000D02*
X133680000Y-81215000D01*
X122685000Y-71375000D02*
X124267500Y-72957500D01*
%TO.N,/I2C1_SCL*%
X125390000Y-77190000D02*
X124925000Y-76725000D01*
X123830000Y-73290000D02*
X123830000Y-74730000D01*
X122415000Y-71875000D02*
X123830000Y-73290000D01*
X121162500Y-71875000D02*
X122415000Y-71875000D01*
X124925000Y-76725000D02*
X124925000Y-75682500D01*
X123830000Y-74730000D02*
X124782500Y-75682500D01*
X124782500Y-75682500D02*
X124925000Y-75682500D01*
X131855000Y-80390000D02*
X132680000Y-81215000D01*
X131830000Y-80390000D02*
X131855000Y-80390000D01*
%TO.N,Net-(R17-Pad2)*%
X135687500Y-83440000D02*
X135720000Y-83472500D01*
X133180000Y-83490000D02*
X133230000Y-83440000D01*
X133180000Y-83965000D02*
X133180000Y-83490000D01*
X133230000Y-83440000D02*
X135687500Y-83440000D01*
%TO.N,/SPI2_MISO*%
X152660000Y-59070000D02*
X152650000Y-59060000D01*
X145330001Y-66399999D02*
X152660000Y-59070000D01*
X115250000Y-73980000D02*
X115250000Y-77287500D01*
X152650000Y-59060000D02*
X152650000Y-56925000D01*
X116975000Y-72255000D02*
X115250000Y-73980000D01*
X133080000Y-66399999D02*
X145330001Y-66399999D01*
X133080000Y-67695000D02*
X133080000Y-66399999D01*
X132500000Y-68275000D02*
X133080000Y-67695000D01*
X116975000Y-72250000D02*
X116975000Y-72255000D01*
X129975000Y-68275000D02*
X132500000Y-68275000D01*
%TO.N,/SPI2_MOSI*%
X116707705Y-73816589D02*
X115750000Y-74774294D01*
X131825000Y-66414999D02*
X131810000Y-66399999D01*
X136690000Y-60880000D02*
X148350000Y-60880000D01*
X131810000Y-65760000D02*
X136690000Y-60880000D01*
X116707705Y-73811229D02*
X116707705Y-73816589D01*
X116976790Y-73542144D02*
X116707705Y-73811229D01*
X150650000Y-58580000D02*
X150650000Y-56925000D01*
X131825000Y-67650500D02*
X131825000Y-66414999D01*
X115750000Y-74774294D02*
X115750000Y-77287500D01*
X131810000Y-66399999D02*
X131810000Y-65760000D01*
X148350000Y-60880000D02*
X150650000Y-58580000D01*
%TO.N,/SPI2_SCK*%
X115480000Y-72560000D02*
X114750000Y-73290000D01*
X130540000Y-66169999D02*
X136499999Y-60210000D01*
X114750000Y-73290000D02*
X114750000Y-77287500D01*
X130540000Y-66399999D02*
X130540000Y-66169999D01*
X146630000Y-60210000D02*
X148650000Y-58190000D01*
X115490000Y-72560000D02*
X115480000Y-72560000D01*
X148650000Y-58190000D02*
X148650000Y-56925000D01*
X129925000Y-65150000D02*
X130540000Y-65765000D01*
X130540000Y-65765000D02*
X130540000Y-66399999D01*
X136499999Y-60210000D02*
X146630000Y-60210000D01*
%TO.N,/SPI2_CS1*%
X126925000Y-54475000D02*
X144950000Y-54475000D01*
X144950000Y-54475000D02*
X146650000Y-56175000D01*
X118750000Y-62650000D02*
X126925000Y-54475000D01*
X146650000Y-56175000D02*
X146650000Y-56925000D01*
X118750000Y-68962500D02*
X118750000Y-62650000D01*
%TO.N,/RFM_RESET*%
X115500000Y-71280000D02*
X114250000Y-72530000D01*
X114250000Y-72530000D02*
X114250000Y-77287500D01*
X143800000Y-59075000D02*
X144650000Y-58225000D01*
X143650000Y-59075000D02*
X143800000Y-59075000D01*
X144650000Y-58225000D02*
X144650000Y-56925000D01*
%TO.N,/RFM_DIO0*%
X150160000Y-72870000D02*
X150650000Y-73360000D01*
X122565000Y-73875000D02*
X122570000Y-73870000D01*
X121162500Y-73875000D02*
X122565000Y-73875000D01*
X150650000Y-73360000D02*
X150650000Y-75125000D01*
%TO.N,/RFM_DIO1*%
X152650000Y-73210000D02*
X152650000Y-75125000D01*
X151630000Y-72190000D02*
X152650000Y-73210000D01*
X119570000Y-73010000D02*
X119935000Y-73375000D01*
X119570000Y-72730000D02*
X119570000Y-73010000D01*
X119935000Y-73375000D02*
X121162500Y-73375000D01*
%TO.N,/ADC1_IN3_NO2*%
X93402500Y-58235000D02*
X95085000Y-58235000D01*
X109132500Y-68962500D02*
X114250000Y-68962500D01*
X101500000Y-61330000D02*
X109132500Y-68962500D01*
X101500000Y-61330000D02*
X99540000Y-61330000D01*
X95085000Y-58235000D02*
X95090000Y-58230000D01*
%TO.N,/ADC1_IN4_NH3*%
X95635000Y-62735000D02*
X95640000Y-62740000D01*
X99540000Y-62740000D02*
X107175000Y-70375000D01*
X94382500Y-62735000D02*
X95635000Y-62735000D01*
X107175000Y-70375000D02*
X112837500Y-70375000D01*
%TO.N,/ADC1_IN2_CO*%
X100325000Y-58235000D02*
X110040000Y-67950000D01*
X114470000Y-67950000D02*
X114750000Y-68230000D01*
X110040000Y-67950000D02*
X114470000Y-67950000D01*
X97902500Y-58235000D02*
X100325000Y-58235000D01*
X114750000Y-68230000D02*
X114750000Y-68962500D01*
%TO.N,/ADC1_IN1_TEMP*%
X103764508Y-57280000D02*
X104480000Y-57280000D01*
X112580000Y-65380000D02*
X112580000Y-66480000D01*
X113650000Y-67550000D02*
X114564974Y-67550000D01*
X114564974Y-67550000D02*
X115250000Y-68235026D01*
X115250000Y-68235026D02*
X115250000Y-68962500D01*
X104480000Y-57280000D02*
X112580000Y-65380000D01*
X112580000Y-66480000D02*
X113650000Y-67550000D01*
%TO.N,/USART3_TX*%
X107092000Y-77216000D02*
X105528000Y-78780000D01*
X111713000Y-74375000D02*
X111428000Y-74090000D01*
X108536000Y-74090000D02*
X107092000Y-75534000D01*
X112837500Y-74375000D02*
X111713000Y-74375000D01*
X111428000Y-74090000D02*
X108536000Y-74090000D01*
X107092000Y-75534000D02*
X107092000Y-77216000D01*
X105528000Y-78780000D02*
X104380000Y-78780000D01*
%TO.N,/USART3_RX*%
X107442000Y-77470000D02*
X104862000Y-80050000D01*
X111250000Y-74440000D02*
X108694000Y-74440000D01*
X108694000Y-74440000D02*
X107442000Y-75692000D01*
X112837500Y-74875000D02*
X111685000Y-74875000D01*
X104862000Y-80050000D02*
X104380000Y-80050000D01*
X107442000Y-75692000D02*
X107442000Y-77470000D01*
X111685000Y-74875000D02*
X111250000Y-74440000D01*
%TO.N,/SPI2_CS2*%
X119450000Y-70000000D02*
X120150000Y-70000000D01*
X123750001Y-66399999D02*
X129270000Y-66399999D01*
X119250000Y-69800000D02*
X119450000Y-70000000D01*
X119250000Y-68962500D02*
X119250000Y-69800000D01*
X120150000Y-70000000D02*
X123750001Y-66399999D01*
%TO.N,/SW_COM*%
X91800000Y-71460000D02*
X76970000Y-71460000D01*
D46*
X74190000Y-75360000D02*
X74190000Y-80790000D01*
X74190000Y-80790000D02*
X76195000Y-82795000D01*
X77530000Y-65830000D02*
X76970000Y-66390000D01*
X76970000Y-66390000D02*
X76970000Y-71460000D01*
D47*
X78617300Y-79262300D02*
X78617300Y-82795000D01*
D46*
X78837300Y-65830000D02*
X77530000Y-65830000D01*
D47*
X78810000Y-62270000D02*
X78837300Y-62297300D01*
D46*
X73630000Y-74800000D02*
X74190000Y-75360000D01*
X76970000Y-71460000D02*
X73630000Y-74800000D01*
X76195000Y-82795000D02*
X78617300Y-82795000D01*
X71975000Y-74800000D02*
X73630000Y-74800000D01*
D47*
X78590000Y-79235000D02*
X78617300Y-79262300D01*
X78837300Y-62297300D02*
X78837300Y-65830000D01*
%TD*%
%TA.AperFunction,Conductor*%
%TO.N,/SW_COM*%
G36*
X79407183Y-80568907D02*
G01*
X79418996Y-80578996D01*
X79461004Y-80621004D01*
X79488781Y-80675521D01*
X79490000Y-80691008D01*
X79490000Y-84908992D01*
X79471093Y-84967183D01*
X79461004Y-84978996D01*
X79418996Y-85021004D01*
X79364479Y-85048781D01*
X79348992Y-85050000D01*
X74956008Y-85050000D01*
X74897817Y-85031093D01*
X74886004Y-85021004D01*
X74843996Y-84978996D01*
X74816219Y-84924479D01*
X74815000Y-84908992D01*
X74815000Y-80691008D01*
X74833907Y-80632817D01*
X74843996Y-80621004D01*
X74886004Y-80578996D01*
X74940521Y-80551219D01*
X74956008Y-80550000D01*
X79348992Y-80550000D01*
X79407183Y-80568907D01*
G37*
%TD.AperFunction*%
%TD*%
%TA.AperFunction,Conductor*%
%TO.N,/SW_COM*%
G36*
X79155396Y-78365194D02*
G01*
X79304171Y-78415384D01*
X79332492Y-78430420D01*
X79425205Y-78501008D01*
X80034013Y-78964533D01*
X80034015Y-78964534D01*
X80120000Y-79030000D01*
X80865624Y-79030000D01*
X80920625Y-79046684D01*
X80950677Y-79066764D01*
X80960237Y-79068666D01*
X80960238Y-79068666D01*
X80989816Y-79074550D01*
X80989821Y-79074550D01*
X80994579Y-79075497D01*
X81694219Y-79075497D01*
X81698983Y-79074549D01*
X81698986Y-79074549D01*
X81710113Y-79072336D01*
X81770874Y-79079528D01*
X81799430Y-79099430D01*
X81801004Y-79101004D01*
X81828781Y-79155521D01*
X81830000Y-79171008D01*
X81830000Y-79391479D01*
X81828098Y-79410792D01*
X81810692Y-79498298D01*
X81812594Y-79507860D01*
X81813698Y-79513410D01*
X81815600Y-79532724D01*
X81815600Y-79983392D01*
X81796693Y-80041583D01*
X81786604Y-80053396D01*
X81758996Y-80081004D01*
X81704479Y-80108781D01*
X81688992Y-80110000D01*
X78081008Y-80110000D01*
X78022817Y-80091093D01*
X78011004Y-80081004D01*
X77968996Y-80038996D01*
X77941219Y-79984479D01*
X77940000Y-79968992D01*
X77940000Y-78501008D01*
X77958907Y-78442817D01*
X77968996Y-78431004D01*
X78011004Y-78388996D01*
X78065521Y-78361219D01*
X78081008Y-78360000D01*
X79123750Y-78360000D01*
X79155396Y-78365194D01*
G37*
%TD.AperFunction*%
%TD*%
%TA.AperFunction,Conductor*%
%TO.N,GND*%
G36*
X85122547Y-62573350D02*
G01*
X85284146Y-62616494D01*
X85307953Y-62626319D01*
X85579960Y-62782710D01*
X85679959Y-62782706D01*
X85686426Y-62782706D01*
X90238992Y-62782506D01*
X90297183Y-62801411D01*
X90308998Y-62811501D01*
X90351002Y-62853503D01*
X90378781Y-62908019D01*
X90380000Y-62923508D01*
X90380000Y-65868992D01*
X90361093Y-65927183D01*
X90351004Y-65938996D01*
X90308996Y-65981004D01*
X90254479Y-66008781D01*
X90238992Y-66010000D01*
X85621641Y-66010000D01*
X85580331Y-66000969D01*
X85454492Y-65943189D01*
X85420718Y-65917745D01*
X85378821Y-65868992D01*
X83365177Y-63525842D01*
X83365176Y-63525841D01*
X83300000Y-63450000D01*
X83207327Y-63412430D01*
X83207326Y-63412429D01*
X82930000Y-63300000D01*
X82680690Y-63198928D01*
X82635784Y-63162497D01*
X82576892Y-63075075D01*
X82560000Y-63019765D01*
X82560000Y-62711008D01*
X82578907Y-62652817D01*
X82588996Y-62641004D01*
X82594542Y-62635458D01*
X82649059Y-62607681D01*
X82683857Y-62608364D01*
X82689809Y-62609548D01*
X82689821Y-62609549D01*
X82694581Y-62610496D01*
X83394221Y-62610496D01*
X83398979Y-62609549D01*
X83398984Y-62609549D01*
X83428562Y-62603665D01*
X83428563Y-62603665D01*
X83438123Y-62601763D01*
X83460689Y-62586685D01*
X83515691Y-62570000D01*
X85097011Y-62570000D01*
X85122547Y-62573350D01*
G37*
%TD.AperFunction*%
%TD*%
%TA.AperFunction,Conductor*%
%TO.N,GND*%
G36*
X81307183Y-74688907D02*
G01*
X81318996Y-74698996D01*
X81361004Y-74741004D01*
X81388781Y-74795521D01*
X81390000Y-74811008D01*
X81390000Y-75848992D01*
X81371093Y-75907183D01*
X81361004Y-75918996D01*
X81318996Y-75961004D01*
X81264479Y-75988781D01*
X81248992Y-75990000D01*
X78521008Y-75990000D01*
X78462817Y-75971093D01*
X78451004Y-75961004D01*
X78408996Y-75918996D01*
X78381219Y-75864479D01*
X78380000Y-75848992D01*
X78380000Y-74811008D01*
X78398907Y-74752817D01*
X78408996Y-74741004D01*
X78451004Y-74698996D01*
X78505521Y-74671219D01*
X78521008Y-74670000D01*
X81248992Y-74670000D01*
X81307183Y-74688907D01*
G37*
%TD.AperFunction*%
%TD*%
%TA.AperFunction,Conductor*%
%TO.N,GND*%
G36*
X77257183Y-78378907D02*
G01*
X77268996Y-78388996D01*
X77311004Y-78431004D01*
X77338781Y-78485521D01*
X77340000Y-78501008D01*
X77340000Y-79968992D01*
X77321093Y-80027183D01*
X77311004Y-80038996D01*
X77268996Y-80081004D01*
X77214479Y-80108781D01*
X77198992Y-80110000D01*
X74976008Y-80110000D01*
X74917817Y-80091093D01*
X74906004Y-80081004D01*
X74863996Y-80038996D01*
X74836219Y-79984479D01*
X74835000Y-79968992D01*
X74835000Y-78501008D01*
X74853907Y-78442817D01*
X74863996Y-78431004D01*
X74906004Y-78388996D01*
X74960521Y-78361219D01*
X74976008Y-78360000D01*
X77198992Y-78360000D01*
X77257183Y-78378907D01*
G37*
%TD.AperFunction*%
%TD*%
%TA.AperFunction,Conductor*%
%TO.N,+5V*%
G36*
X90287183Y-57718907D02*
G01*
X90298996Y-57728996D01*
X90341004Y-57771004D01*
X90368781Y-57825521D01*
X90370000Y-57841008D01*
X90370000Y-62038992D01*
X90351093Y-62097183D01*
X90341004Y-62108996D01*
X90298996Y-62151004D01*
X90244479Y-62178781D01*
X90228992Y-62180000D01*
X85323918Y-62180000D01*
X85296626Y-62176164D01*
X85138576Y-62130836D01*
X85113397Y-62119623D01*
X85100672Y-62111670D01*
X85010000Y-62055000D01*
X83523184Y-62055000D01*
X83468183Y-62038316D01*
X83446229Y-62023647D01*
X83446228Y-62023647D01*
X83438123Y-62018231D01*
X83428563Y-62016329D01*
X83428562Y-62016329D01*
X83398984Y-62010445D01*
X83398979Y-62010445D01*
X83394221Y-62009498D01*
X82694581Y-62009498D01*
X82689821Y-62010445D01*
X82689809Y-62010446D01*
X82679686Y-62012460D01*
X82618925Y-62005270D01*
X82590367Y-61985367D01*
X82588996Y-61983996D01*
X82561219Y-61929479D01*
X82560000Y-61913992D01*
X82560000Y-61641008D01*
X82578907Y-61582817D01*
X82588996Y-61571004D01*
X82631004Y-61528996D01*
X82685521Y-61501219D01*
X82701008Y-61500000D01*
X84300000Y-61500000D01*
X84300000Y-59030000D01*
X82351008Y-59030000D01*
X82292817Y-59011093D01*
X82281004Y-59001004D01*
X82238996Y-58958996D01*
X82211219Y-58904479D01*
X82210000Y-58888992D01*
X82210000Y-57841008D01*
X82228907Y-57782817D01*
X82238996Y-57771004D01*
X82281004Y-57728996D01*
X82335521Y-57701219D01*
X82351008Y-57700000D01*
X90228992Y-57700000D01*
X90287183Y-57718907D01*
G37*
%TD.AperFunction*%
%TD*%
%TA.AperFunction,Conductor*%
%TO.N,/U7_FB*%
G36*
X83597183Y-76518907D02*
G01*
X83608996Y-76528996D01*
X83651004Y-76571004D01*
X83678781Y-76625521D01*
X83680000Y-76641008D01*
X83680000Y-77679149D01*
X83661093Y-77737340D01*
X83651193Y-77748963D01*
X83608809Y-77791577D01*
X83554368Y-77819502D01*
X83539154Y-77820762D01*
X82810836Y-77824698D01*
X81945679Y-77829374D01*
X81945678Y-77829374D01*
X81929999Y-77829459D01*
X81830000Y-77830000D01*
X81830000Y-78824733D01*
X81811093Y-78882924D01*
X81761593Y-78918888D01*
X81728492Y-78923464D01*
X81727745Y-78923376D01*
X81723869Y-78923528D01*
X81723864Y-78923528D01*
X81680853Y-78925217D01*
X81680851Y-78925166D01*
X81675245Y-78925497D01*
X81033664Y-78925497D01*
X80991337Y-78915993D01*
X80967458Y-78904699D01*
X80967453Y-78904697D01*
X80964167Y-78903143D01*
X80949966Y-78898835D01*
X80912661Y-78887519D01*
X80912659Y-78887519D01*
X80909166Y-78886459D01*
X80865624Y-78880000D01*
X80519000Y-78880000D01*
X80460809Y-78861093D01*
X80424845Y-78811593D01*
X80420000Y-78781000D01*
X80420000Y-78360000D01*
X79731002Y-77828487D01*
X79695025Y-77779571D01*
X79690000Y-77748430D01*
X79690000Y-76641008D01*
X79708907Y-76582817D01*
X79718996Y-76571004D01*
X79761004Y-76528996D01*
X79815521Y-76501219D01*
X79831008Y-76500000D01*
X83538992Y-76500000D01*
X83597183Y-76518907D01*
G37*
%TD.AperFunction*%
%TD*%
%TA.AperFunction,Conductor*%
%TO.N,+3V3*%
G36*
X90057183Y-74688907D02*
G01*
X90068996Y-74698996D01*
X90111004Y-74741004D01*
X90138781Y-74795521D01*
X90140000Y-74811008D01*
X90140000Y-79008992D01*
X90121093Y-79067183D01*
X90111004Y-79078996D01*
X90068996Y-79121004D01*
X90014479Y-79148781D01*
X89998992Y-79150000D01*
X85093918Y-79150000D01*
X85066626Y-79146164D01*
X84908576Y-79100836D01*
X84883397Y-79089623D01*
X84870672Y-79081670D01*
X84780000Y-79025000D01*
X83310667Y-79025000D01*
X83255666Y-79008316D01*
X83226229Y-78988647D01*
X83226228Y-78988647D01*
X83218123Y-78983231D01*
X83208563Y-78981329D01*
X83208562Y-78981329D01*
X83178984Y-78975445D01*
X83178979Y-78975445D01*
X83174221Y-78974498D01*
X82474581Y-78974498D01*
X82469821Y-78975445D01*
X82469809Y-78975446D01*
X82448315Y-78979722D01*
X82387554Y-78972532D01*
X82342624Y-78931000D01*
X82330000Y-78882625D01*
X82330000Y-78611008D01*
X82348907Y-78552817D01*
X82358996Y-78541004D01*
X82401004Y-78498996D01*
X82455521Y-78471219D01*
X82471008Y-78470000D01*
X84070000Y-78470000D01*
X84070000Y-75990000D01*
X82121008Y-75990000D01*
X82062817Y-75971093D01*
X82051004Y-75961004D01*
X82008996Y-75918996D01*
X81981219Y-75864479D01*
X81980000Y-75848992D01*
X81980000Y-74811008D01*
X81998907Y-74752817D01*
X82008996Y-74741004D01*
X82051004Y-74698996D01*
X82105521Y-74671219D01*
X82121008Y-74670000D01*
X89998992Y-74670000D01*
X90057183Y-74688907D01*
G37*
%TD.AperFunction*%
%TD*%
%TA.AperFunction,Conductor*%
%TO.N,/U10_FB*%
G36*
X83827182Y-59548762D02*
G01*
X83838996Y-59558852D01*
X83881000Y-59600854D01*
X83908779Y-59655370D01*
X83909998Y-59670859D01*
X83910000Y-60718843D01*
X83891093Y-60777034D01*
X83881004Y-60788847D01*
X83838996Y-60830855D01*
X83784479Y-60858632D01*
X83768992Y-60859851D01*
X82049946Y-60859851D01*
X82049950Y-60959851D01*
X82049950Y-60970525D01*
X82049991Y-61859352D01*
X82031086Y-61917544D01*
X81981588Y-61953510D01*
X81949316Y-61957976D01*
X81949319Y-61958063D01*
X81945443Y-61958215D01*
X81945438Y-61958215D01*
X81922203Y-61959128D01*
X81902428Y-61959904D01*
X81901669Y-61960055D01*
X81894174Y-61960497D01*
X81256753Y-61960497D01*
X81214426Y-61950993D01*
X81179975Y-61934699D01*
X81179970Y-61934697D01*
X81176684Y-61933143D01*
X81125260Y-61917544D01*
X81125178Y-61917519D01*
X81125176Y-61917519D01*
X81121683Y-61916459D01*
X81078141Y-61910000D01*
X80729000Y-61910000D01*
X80670809Y-61891093D01*
X80634845Y-61841593D01*
X80630000Y-61811000D01*
X80630000Y-61400000D01*
X79948529Y-60874293D01*
X79914005Y-60823782D01*
X79910000Y-60795909D01*
X79910000Y-59671006D01*
X79928907Y-59612815D01*
X79938995Y-59601004D01*
X79981005Y-59558992D01*
X80035521Y-59531213D01*
X80051000Y-59529994D01*
X81909999Y-59529926D01*
X82870658Y-59529890D01*
X83768990Y-59529857D01*
X83827182Y-59548762D01*
G37*
%TD.AperFunction*%
%TD*%
%TA.AperFunction,Conductor*%
%TO.N,/SW_COM*%
G36*
X79365239Y-61405080D02*
G01*
X79514760Y-61454920D01*
X79542852Y-61469639D01*
X80330000Y-62060000D01*
X81078141Y-62060000D01*
X81133142Y-62076684D01*
X81170677Y-62101764D01*
X81180237Y-62103666D01*
X81180238Y-62103666D01*
X81209816Y-62109550D01*
X81209821Y-62109550D01*
X81214579Y-62110497D01*
X81914219Y-62110497D01*
X81918983Y-62109549D01*
X81918986Y-62109549D01*
X81931687Y-62107023D01*
X81992448Y-62114215D01*
X82037378Y-62155748D01*
X82050000Y-62204121D01*
X82050000Y-62426479D01*
X82048098Y-62445792D01*
X82030692Y-62533298D01*
X82032594Y-62542860D01*
X82033698Y-62548410D01*
X82035600Y-62567724D01*
X82035600Y-63023392D01*
X82016693Y-63081583D01*
X82006604Y-63093396D01*
X81978996Y-63121004D01*
X81924479Y-63148781D01*
X81908992Y-63150000D01*
X78291008Y-63150000D01*
X78232817Y-63131093D01*
X78221004Y-63121004D01*
X78178996Y-63078996D01*
X78151219Y-63024479D01*
X78150000Y-63008992D01*
X78150000Y-61541008D01*
X78168907Y-61482817D01*
X78178996Y-61471004D01*
X78221004Y-61428996D01*
X78275521Y-61401219D01*
X78291008Y-61400000D01*
X79333933Y-61400000D01*
X79365239Y-61405080D01*
G37*
%TD.AperFunction*%
%TD*%
%TA.AperFunction,Conductor*%
%TO.N,GND*%
G36*
X81527183Y-57718907D02*
G01*
X81538996Y-57728996D01*
X81581004Y-57771004D01*
X81608781Y-57825521D01*
X81610000Y-57841008D01*
X81610000Y-58888992D01*
X81591093Y-58947183D01*
X81581004Y-58958996D01*
X81538996Y-59001004D01*
X81484479Y-59028781D01*
X81468992Y-59030000D01*
X78731008Y-59030000D01*
X78672817Y-59011093D01*
X78661004Y-59001004D01*
X78618996Y-58958996D01*
X78591219Y-58904479D01*
X78590000Y-58888992D01*
X78590000Y-57841008D01*
X78608907Y-57782817D01*
X78618996Y-57771004D01*
X78661004Y-57728996D01*
X78715521Y-57701219D01*
X78731008Y-57700000D01*
X81468992Y-57700000D01*
X81527183Y-57718907D01*
G37*
%TD.AperFunction*%
%TD*%
%TA.AperFunction,Conductor*%
%TO.N,GND*%
G36*
X84902679Y-79525025D02*
G01*
X85064278Y-79568169D01*
X85088085Y-79577994D01*
X85360092Y-79734385D01*
X85460091Y-79734381D01*
X85466558Y-79734381D01*
X90019124Y-79734181D01*
X90077315Y-79753086D01*
X90089130Y-79763176D01*
X90131134Y-79805178D01*
X90158913Y-79859694D01*
X90160132Y-79875183D01*
X90160132Y-82820667D01*
X90141225Y-82878858D01*
X90131136Y-82890671D01*
X90089128Y-82932679D01*
X90034611Y-82960456D01*
X90019124Y-82961675D01*
X85401773Y-82961675D01*
X85360463Y-82952644D01*
X85234624Y-82894864D01*
X85200850Y-82869420D01*
X85158953Y-82820667D01*
X83145309Y-80477517D01*
X83145308Y-80477516D01*
X83080132Y-80401675D01*
X82987459Y-80364105D01*
X82987458Y-80364104D01*
X82710132Y-80251675D01*
X82460822Y-80150603D01*
X82415916Y-80114172D01*
X82357024Y-80026750D01*
X82340132Y-79971440D01*
X82340132Y-79669385D01*
X82359039Y-79611194D01*
X82408539Y-79575230D01*
X82458444Y-79572287D01*
X82469811Y-79574548D01*
X82469819Y-79574549D01*
X82474581Y-79575496D01*
X83174221Y-79575496D01*
X83178979Y-79574549D01*
X83178984Y-79574549D01*
X83208562Y-79568665D01*
X83208563Y-79568665D01*
X83218123Y-79566763D01*
X83260633Y-79538359D01*
X83315634Y-79521675D01*
X84877143Y-79521675D01*
X84902679Y-79525025D01*
G37*
%TD.AperFunction*%
%TD*%
%TA.AperFunction,Conductor*%
%TO.N,GND*%
G36*
X77482183Y-61408907D02*
G01*
X77493996Y-61418996D01*
X77536004Y-61461004D01*
X77563781Y-61515521D01*
X77565000Y-61531008D01*
X77565000Y-63008992D01*
X77546093Y-63067183D01*
X77536004Y-63078996D01*
X77493996Y-63121004D01*
X77439479Y-63148781D01*
X77423992Y-63150000D01*
X75151008Y-63150000D01*
X75092817Y-63131093D01*
X75081004Y-63121004D01*
X75038996Y-63078996D01*
X75011219Y-63024479D01*
X75010000Y-63008992D01*
X75010000Y-61531008D01*
X75028907Y-61472817D01*
X75038996Y-61461004D01*
X75081004Y-61418996D01*
X75135521Y-61391219D01*
X75151008Y-61390000D01*
X77423992Y-61390000D01*
X77482183Y-61408907D01*
G37*
%TD.AperFunction*%
%TD*%
%TA.AperFunction,Conductor*%
%TO.N,GND*%
G36*
X140208691Y-76718907D02*
G01*
X140244655Y-76768407D01*
X140249500Y-76799000D01*
X140249500Y-78433433D01*
X140256955Y-78456375D01*
X140260581Y-78471481D01*
X140264354Y-78495304D01*
X140275305Y-78516797D01*
X140281248Y-78531143D01*
X140288704Y-78554090D01*
X140293285Y-78560395D01*
X140302883Y-78573605D01*
X140310998Y-78586846D01*
X140321950Y-78608342D01*
X140344513Y-78630905D01*
X140344516Y-78630909D01*
X143319091Y-81605484D01*
X143319095Y-81605487D01*
X143341658Y-81628050D01*
X143348595Y-81631584D01*
X143348597Y-81631586D01*
X143363151Y-81639001D01*
X143376390Y-81647113D01*
X143395911Y-81661296D01*
X143403316Y-81663702D01*
X143403320Y-81663704D01*
X143418855Y-81668751D01*
X143433201Y-81674694D01*
X143454696Y-81685646D01*
X143462389Y-81686864D01*
X143462391Y-81686865D01*
X143478519Y-81689419D01*
X143493620Y-81693044D01*
X143516567Y-81700500D01*
X151490500Y-81700500D01*
X151548691Y-81719407D01*
X151584655Y-81768907D01*
X151589500Y-81799500D01*
X151589500Y-82024820D01*
X151598233Y-82068722D01*
X151631496Y-82118504D01*
X151681278Y-82151767D01*
X151690838Y-82153669D01*
X151690839Y-82153669D01*
X151720417Y-82159553D01*
X151720422Y-82159553D01*
X151725180Y-82160500D01*
X153274820Y-82160500D01*
X153279578Y-82159553D01*
X153279583Y-82159553D01*
X153309161Y-82153669D01*
X153309162Y-82153669D01*
X153318722Y-82151767D01*
X153368504Y-82118504D01*
X153401767Y-82068722D01*
X153410500Y-82024820D01*
X153410500Y-80475180D01*
X153401767Y-80431278D01*
X153368504Y-80381496D01*
X153318722Y-80348233D01*
X153309162Y-80346331D01*
X153309161Y-80346331D01*
X153279583Y-80340447D01*
X153279578Y-80340447D01*
X153274820Y-80339500D01*
X151725180Y-80339500D01*
X151720422Y-80340447D01*
X151720417Y-80340447D01*
X151690839Y-80346331D01*
X151690838Y-80346331D01*
X151681278Y-80348233D01*
X151631496Y-80381496D01*
X151598233Y-80431278D01*
X151589500Y-80475180D01*
X151589500Y-80800500D01*
X151570593Y-80858691D01*
X151521093Y-80894655D01*
X151490500Y-80899500D01*
X143786901Y-80899500D01*
X143728710Y-80880593D01*
X143716897Y-80870504D01*
X141079496Y-78233103D01*
X141051719Y-78178586D01*
X141050500Y-78163099D01*
X141050500Y-76799000D01*
X141069407Y-76740809D01*
X141118907Y-76704845D01*
X141149500Y-76700000D01*
X156251000Y-76700000D01*
X156309191Y-76718907D01*
X156345155Y-76768407D01*
X156350000Y-76799000D01*
X156350000Y-85251000D01*
X156331093Y-85309191D01*
X156281593Y-85345155D01*
X156251000Y-85350000D01*
X139499000Y-85350000D01*
X139440809Y-85331093D01*
X139404845Y-85281593D01*
X139400000Y-85251000D01*
X139400000Y-76799000D01*
X139418907Y-76740809D01*
X139468407Y-76704845D01*
X139499000Y-76700000D01*
X140150500Y-76700000D01*
X140208691Y-76718907D01*
G37*
%TD.AperFunction*%
%TD*%
%TA.AperFunction,Conductor*%
%TO.N,/SW_COM*%
G36*
X79627183Y-63598907D02*
G01*
X79638996Y-63608996D01*
X79681004Y-63651004D01*
X79708781Y-63705521D01*
X79710000Y-63721008D01*
X79710000Y-67938992D01*
X79691093Y-67997183D01*
X79681004Y-68008996D01*
X79638996Y-68051004D01*
X79584479Y-68078781D01*
X79568992Y-68080000D01*
X75151008Y-68080000D01*
X75092817Y-68061093D01*
X75081004Y-68051004D01*
X75038996Y-68008996D01*
X75011219Y-67954479D01*
X75010000Y-67938992D01*
X75010000Y-63721008D01*
X75028907Y-63662817D01*
X75038996Y-63651004D01*
X75081004Y-63608996D01*
X75135521Y-63581219D01*
X75151008Y-63580000D01*
X79568992Y-63580000D01*
X79627183Y-63598907D01*
G37*
%TD.AperFunction*%
%TD*%
M02*
