%TF.GenerationSoftware,KiCad,Pcbnew,6.0.2+dfsg-1*%
%TF.CreationDate,2023-05-28T23:34:27+02:00*%
%TF.ProjectId,weather_station,77656174-6865-4725-9f73-746174696f6e,rev?*%
%TF.SameCoordinates,Original*%
%TF.FileFunction,Copper,L2,Bot*%
%TF.FilePolarity,Positive*%
%FSLAX46Y46*%
G04 Gerber Fmt 4.6, Leading zero omitted, Abs format (unit mm)*
G04 Created by KiCad (PCBNEW 6.0.2+dfsg-1) date 2023-05-28 23:34:27*
%MOMM*%
%LPD*%
G01*
G04 APERTURE LIST*
G04 Aperture macros list*
%AMRoundRect*
0 Rectangle with rounded corners*
0 $1 Rounding radius*
0 $2 $3 $4 $5 $6 $7 $8 $9 X,Y pos of 4 corners*
0 Add a 4 corners polygon primitive as box body*
4,1,4,$2,$3,$4,$5,$6,$7,$8,$9,$2,$3,0*
0 Add four circle primitives for the rounded corners*
1,1,$1+$1,$2,$3*
1,1,$1+$1,$4,$5*
1,1,$1+$1,$6,$7*
1,1,$1+$1,$8,$9*
0 Add four rect primitives between the rounded corners*
20,1,$1+$1,$2,$3,$4,$5,0*
20,1,$1+$1,$4,$5,$6,$7,0*
20,1,$1+$1,$6,$7,$8,$9,0*
20,1,$1+$1,$8,$9,$2,$3,0*%
G04 Aperture macros list end*
%TA.AperFunction,Profile*%
%ADD10C,0.100000*%
%TD*%
%TA.AperFunction,ComponentPad*%
%ADD11R,1.000000X1.000000*%
%TD*%
%TA.AperFunction,ComponentPad*%
%ADD12O,1.000000X1.000000*%
%TD*%
%TA.AperFunction,ComponentPad*%
%ADD13O,2.200000X1.100000*%
%TD*%
%TA.AperFunction,ComponentPad*%
%ADD14RoundRect,0.250000X0.750000X-0.600000X0.750000X0.600000X-0.750000X0.600000X-0.750000X-0.600000X0*%
%TD*%
%TA.AperFunction,ComponentPad*%
%ADD15O,2.000000X1.700000*%
%TD*%
%TA.AperFunction,ComponentPad*%
%ADD16R,1.050000X1.050000*%
%TD*%
%TA.AperFunction,ComponentPad*%
%ADD17C,1.050000*%
%TD*%
%TA.AperFunction,ViaPad*%
%ADD18C,0.750000*%
%TD*%
%TA.AperFunction,Conductor*%
%ADD19C,0.400000*%
%TD*%
%TA.AperFunction,Conductor*%
%ADD20C,0.200000*%
%TD*%
G04 APERTURE END LIST*
D10*
X66600000Y-53600000D02*
X156600000Y-53600000D01*
X156600000Y-53600000D02*
X156600000Y-85600000D01*
X156600000Y-85600000D02*
X66600000Y-85600000D01*
X66600000Y-85600000D02*
X66600000Y-53600000D01*
D11*
%TO.P,J3,1,Pin_1*%
%TO.N,GND*%
X104380000Y-81320000D03*
D12*
%TO.P,J3,2,Pin_2*%
%TO.N,/USART3_RX*%
X104380000Y-80050000D03*
%TO.P,J3,3,Pin_3*%
%TO.N,/USART3_TX*%
X104380000Y-78780000D03*
%TO.P,J3,4,Pin_4*%
%TO.N,/SWDIO*%
X104380000Y-77510000D03*
%TO.P,J3,5,Pin_5*%
%TO.N,/SWCLK*%
X104380000Y-76240000D03*
%TO.P,J3,6,Pin_6*%
%TO.N,/SWO*%
X104380000Y-74970000D03*
%TO.P,J3,7,Pin_7*%
%TO.N,/NRST*%
X104380000Y-73700000D03*
%TO.P,J3,8,Pin_8*%
%TO.N,+3V3*%
X104380000Y-72430000D03*
%TD*%
D13*
%TO.P,U6,1,+VS*%
%TO.N,+5V*%
X103764508Y-58550000D03*
%TO.P,U6,2,VOUT*%
%TO.N,/ADC1_IN1_TEMP*%
X103764508Y-57280000D03*
%TO.P,U6,3,GND*%
%TO.N,GND*%
X103764508Y-56010000D03*
%TD*%
D14*
%TO.P,J1,1,1*%
%TO.N,+BATT*%
X70225000Y-64600000D03*
D15*
%TO.P,J1,2,2*%
%TO.N,GND*%
X70225000Y-62100000D03*
%TD*%
D16*
%TO.P,U5,1,VDD*%
%TO.N,+3V3*%
X110859000Y-79570000D03*
D17*
%TO.P,U5,2,VSS*%
%TO.N,GND*%
X110859000Y-80840000D03*
%TO.P,U5,3,SCL*%
%TO.N,/I2C2_SCL*%
X110859000Y-82110000D03*
%TO.P,U5,4,SDA*%
%TO.N,/I2C2_SDA*%
X110859000Y-83380000D03*
%TD*%
D18*
%TO.N,GND*%
X121240000Y-56410000D03*
X88780132Y-82501675D03*
X145235716Y-82300000D03*
X154650000Y-58925000D03*
X87880132Y-82501675D03*
X140900000Y-80100000D03*
X140350000Y-79500000D03*
X75375000Y-79675000D03*
X119150000Y-81300000D03*
X86980132Y-81601675D03*
X143000000Y-79200000D03*
X86300000Y-65550000D03*
X88100000Y-65550000D03*
X75575000Y-61840000D03*
X89680132Y-81601675D03*
X88100000Y-64650000D03*
X93070000Y-74880000D03*
X75375000Y-78800000D03*
X142700000Y-81900000D03*
X146117858Y-82300000D03*
X147850000Y-80300000D03*
X116250000Y-62810000D03*
X88780132Y-81601675D03*
X86080132Y-82501675D03*
X125127701Y-71302299D03*
X89900000Y-65550000D03*
X135710000Y-79640000D03*
X147867858Y-82300000D03*
X85400000Y-64650000D03*
X144353574Y-82300000D03*
X146100000Y-80300000D03*
X78990000Y-75330000D03*
X143600000Y-79800000D03*
X89000000Y-65550000D03*
X139746432Y-78925000D03*
X85180132Y-81601675D03*
X144350000Y-80300000D03*
X89900000Y-64650000D03*
X141800000Y-78025000D03*
X145225000Y-80300000D03*
X89000000Y-64650000D03*
X79200000Y-58375000D03*
X148725000Y-80300000D03*
X146975000Y-80300000D03*
X87200000Y-65550000D03*
X87880132Y-81601675D03*
X148750000Y-82300000D03*
X139650000Y-77200000D03*
X99540000Y-60125000D03*
X89680132Y-82501675D03*
X122350000Y-62650000D03*
X141650000Y-77200000D03*
X86980132Y-82501675D03*
X143450000Y-82300000D03*
X147000000Y-82300000D03*
X130625000Y-80450000D03*
X139650000Y-78050000D03*
X74200000Y-72300000D03*
X142400000Y-78600000D03*
X109275000Y-56400000D03*
X133680000Y-84870000D03*
X136450000Y-56930000D03*
X142100000Y-81300000D03*
X86080132Y-81601675D03*
X75575000Y-62715000D03*
X87200000Y-64650000D03*
X122125000Y-81600000D03*
X86300000Y-64650000D03*
X141500000Y-80700000D03*
%TO.N,+3V3*%
X113100000Y-64925000D03*
X100640000Y-69690000D03*
X121935339Y-61851777D03*
%TO.N,/NRST*%
X114320000Y-70420000D03*
%TO.N,+5V*%
X100640000Y-65800000D03*
%TO.N,/LED*%
X122577501Y-75370678D03*
X132500000Y-73500000D03*
%TO.N,/SWO*%
X116966589Y-74441589D03*
%TO.N,/SWCLK*%
X118950000Y-75066089D03*
%TO.N,/SWDIO*%
X116975000Y-75750000D03*
%TO.N,/I2C2_SCL*%
X116750000Y-78690000D03*
%TO.N,/I2C2_SDA*%
X117660000Y-78680000D03*
%TO.N,/I2C1_SDA*%
X125330000Y-74310000D03*
X133290000Y-78980000D03*
%TO.N,/I2C1_SCL*%
X131830000Y-80390000D03*
X125390000Y-77190000D03*
%TO.N,/SPI2_MISO*%
X129975000Y-68275000D03*
X116975000Y-72250000D03*
%TO.N,/SPI2_MOSI*%
X116976790Y-73542144D03*
X131825000Y-67650500D03*
%TO.N,/SPI2_SCK*%
X115490000Y-72560000D03*
X129925000Y-65150000D03*
%TO.N,/RFM_RESET*%
X115500000Y-71280000D03*
X143650000Y-59075000D03*
%TO.N,/RFM_DIO0*%
X122570000Y-73870000D03*
X150160000Y-72870000D03*
%TO.N,/RFM_DIO1*%
X151630000Y-72190000D03*
X119570000Y-72730000D03*
%TO.N,/ADC1_IN3_NO2*%
X99540000Y-61330000D03*
X95090000Y-58230000D03*
%TO.N,/ADC1_IN4_NH3*%
X95640000Y-62740000D03*
X99540000Y-62740000D03*
%TD*%
D19*
%TO.N,+3V3*%
X121928223Y-61851777D02*
X118855000Y-64925000D01*
X101640000Y-69690000D02*
X100640000Y-69690000D01*
X105595000Y-72430000D02*
X104380000Y-72430000D01*
X113100000Y-64925000D02*
X105595000Y-72430000D01*
X118855000Y-64925000D02*
X113100000Y-64925000D01*
X101640000Y-69690000D02*
X104380000Y-72430000D01*
D20*
%TO.N,/NRST*%
X114320000Y-70420000D02*
X114315000Y-70425000D01*
X114315000Y-70425000D02*
X108450000Y-70425000D01*
X108450000Y-70425000D02*
X105175000Y-73700000D01*
X105175000Y-73700000D02*
X104380000Y-73700000D01*
D19*
%TO.N,+5V*%
X100640000Y-65800000D02*
X100650000Y-65800000D01*
X103764508Y-62685492D02*
X103764508Y-58550000D01*
X100650000Y-65800000D02*
X103764508Y-62685492D01*
D20*
%TO.N,/LED*%
X122577501Y-75338615D02*
X122577501Y-75370678D01*
X124416116Y-73500000D02*
X122577501Y-75338615D01*
X132500000Y-73500000D02*
X124416116Y-73500000D01*
%TO.N,/SWO*%
X104908411Y-74441589D02*
X116966589Y-74441589D01*
X104380000Y-74970000D02*
X104908411Y-74441589D01*
%TO.N,/SWCLK*%
X106383911Y-75066089D02*
X105210000Y-76240000D01*
X118950000Y-75066089D02*
X106383911Y-75066089D01*
X105210000Y-76240000D02*
X104380000Y-76240000D01*
%TO.N,/SWDIO*%
X115215000Y-77510000D02*
X104380000Y-77510000D01*
X116975000Y-75750000D02*
X115215000Y-77510000D01*
%TO.N,/I2C2_SCL*%
X116750000Y-78690000D02*
X113330000Y-82110000D01*
X113330000Y-82110000D02*
X110859000Y-82110000D01*
%TO.N,/I2C2_SDA*%
X112960000Y-83380000D02*
X110859000Y-83380000D01*
X117660000Y-78680000D02*
X112960000Y-83380000D01*
%TO.N,/I2C1_SDA*%
X125337500Y-74302500D02*
X128612500Y-74302500D01*
X125330000Y-74310000D02*
X125337500Y-74302500D01*
X128612500Y-74302500D02*
X133290000Y-78980000D01*
%TO.N,/I2C1_SCL*%
X125390000Y-77190000D02*
X125400000Y-77180000D01*
X131815000Y-80390000D02*
X131830000Y-80390000D01*
X128605000Y-77180000D02*
X131815000Y-80390000D01*
X125400000Y-77180000D02*
X128605000Y-77180000D01*
%TO.N,/SPI2_MISO*%
X116990000Y-72250000D02*
X120965000Y-68275000D01*
X120965000Y-68275000D02*
X129975000Y-68275000D01*
X116975000Y-72250000D02*
X116990000Y-72250000D01*
%TO.N,/SPI2_MOSI*%
X116982856Y-73542144D02*
X121400000Y-69125000D01*
X121400000Y-69125000D02*
X130575000Y-69125000D01*
X131825000Y-67875000D02*
X131825000Y-67650500D01*
X116976790Y-73542144D02*
X116982856Y-73542144D01*
X130575000Y-69125000D02*
X131825000Y-67875000D01*
%TO.N,/SPI2_SCK*%
X115490000Y-72558585D02*
X122873585Y-65175000D01*
X115490000Y-72560000D02*
X115490000Y-72558585D01*
X129900000Y-65175000D02*
X129925000Y-65150000D01*
X122873585Y-65175000D02*
X129900000Y-65175000D01*
%TO.N,/RFM_RESET*%
X115500000Y-71280000D02*
X115510000Y-71280000D01*
X127715000Y-59075000D02*
X143650000Y-59075000D01*
X115510000Y-71280000D02*
X127715000Y-59075000D01*
%TO.N,/RFM_DIO0*%
X122570000Y-73860000D02*
X122570000Y-73870000D01*
X123555000Y-72875000D02*
X122570000Y-73860000D01*
X150155000Y-72875000D02*
X150160000Y-72870000D01*
X123555000Y-72875000D02*
X150155000Y-72875000D01*
%TO.N,/RFM_DIO1*%
X119910000Y-72190000D02*
X151630000Y-72190000D01*
X119570000Y-72730000D02*
X119570000Y-72530000D01*
X119570000Y-72530000D02*
X119910000Y-72190000D01*
%TO.N,/ADC1_IN3_NO2*%
X98190000Y-61330000D02*
X99540000Y-61330000D01*
X95090000Y-58230000D02*
X98190000Y-61330000D01*
%TO.N,/ADC1_IN4_NH3*%
X95640000Y-62740000D02*
X99540000Y-62740000D01*
%TD*%
%TA.AperFunction,Conductor*%
%TO.N,GND*%
G36*
X103962121Y-53870002D02*
G01*
X104008614Y-53923658D01*
X104020000Y-53976000D01*
X104020000Y-54945141D01*
X104018508Y-54959020D01*
X104018508Y-56138000D01*
X103998506Y-56206121D01*
X103944850Y-56252614D01*
X103892508Y-56264000D01*
X102204461Y-56264000D01*
X102190930Y-56267973D01*
X102189810Y-56275768D01*
X102227062Y-56402342D01*
X102231655Y-56413710D01*
X102322074Y-56586666D01*
X102328790Y-56596928D01*
X102451076Y-56749020D01*
X102459660Y-56757786D01*
X102506347Y-56796962D01*
X102545673Y-56856072D01*
X102546799Y-56927059D01*
X102534309Y-56956767D01*
X102525248Y-56972367D01*
X102525246Y-56972371D01*
X102521569Y-56978702D01*
X102470841Y-57146193D01*
X102460005Y-57320862D01*
X102461245Y-57328078D01*
X102461245Y-57328080D01*
X102463815Y-57343034D01*
X102489642Y-57493340D01*
X102558162Y-57654373D01*
X102661891Y-57795324D01*
X102667470Y-57800063D01*
X102667473Y-57800067D01*
X102690019Y-57819221D01*
X102728983Y-57878570D01*
X102729676Y-57949563D01*
X102699911Y-58001898D01*
X102614506Y-58092053D01*
X102614503Y-58092057D01*
X102609468Y-58097372D01*
X102521569Y-58248702D01*
X102470841Y-58416193D01*
X102460005Y-58590862D01*
X102461245Y-58598078D01*
X102461245Y-58598080D01*
X102484377Y-58732698D01*
X102489642Y-58763340D01*
X102558162Y-58924373D01*
X102661891Y-59065324D01*
X102667469Y-59070063D01*
X102667472Y-59070066D01*
X102789684Y-59173893D01*
X102789688Y-59173896D01*
X102795263Y-59178632D01*
X102951124Y-59258219D01*
X102958229Y-59259958D01*
X102958233Y-59259959D01*
X103039366Y-59279811D01*
X103121114Y-59299815D01*
X103126714Y-59300162D01*
X103126718Y-59300163D01*
X103130217Y-59300380D01*
X103130226Y-59300380D01*
X103132156Y-59300500D01*
X103238008Y-59300500D01*
X103306129Y-59320502D01*
X103352622Y-59374158D01*
X103364008Y-59426500D01*
X103364008Y-62467410D01*
X103344006Y-62535531D01*
X103327103Y-62556505D01*
X100697968Y-65185640D01*
X100635656Y-65219666D01*
X100625324Y-65221466D01*
X100489764Y-65239313D01*
X100349767Y-65297302D01*
X100229549Y-65389549D01*
X100137302Y-65509767D01*
X100079313Y-65649764D01*
X100059534Y-65800000D01*
X100079313Y-65950236D01*
X100137302Y-66090233D01*
X100229549Y-66210451D01*
X100349767Y-66302698D01*
X100489764Y-66360687D01*
X100640000Y-66380466D01*
X100648188Y-66379388D01*
X100782048Y-66361765D01*
X100790236Y-66360687D01*
X100930233Y-66302698D01*
X101050451Y-66210451D01*
X101142698Y-66090233D01*
X101200687Y-65950236D01*
X101215501Y-65837713D01*
X101244224Y-65772786D01*
X101251328Y-65765065D01*
X104057471Y-62958921D01*
X104065248Y-62951770D01*
X106456162Y-60931692D01*
X106456162Y-60931691D01*
X106470000Y-60920000D01*
X106470000Y-53976000D01*
X106490002Y-53907879D01*
X106543658Y-53861386D01*
X106596000Y-53850000D01*
X109674000Y-53850000D01*
X109742121Y-53870002D01*
X109788614Y-53923658D01*
X109800000Y-53976000D01*
X109800000Y-59500000D01*
X111121736Y-61033214D01*
X112272914Y-62368580D01*
X112300000Y-62400000D01*
X118200000Y-62400000D01*
X120705734Y-59505141D01*
X120700365Y-53976120D01*
X120720301Y-53907982D01*
X120773911Y-53861437D01*
X120826365Y-53850000D01*
X156224000Y-53850000D01*
X156292121Y-53870002D01*
X156338614Y-53923658D01*
X156350000Y-53976000D01*
X156350000Y-85224000D01*
X156329998Y-85292121D01*
X156276342Y-85338614D01*
X156224000Y-85350000D01*
X139318000Y-85350000D01*
X139249879Y-85329998D01*
X139203386Y-85276342D01*
X139192000Y-85224000D01*
X139192000Y-76926000D01*
X139212002Y-76857879D01*
X139265658Y-76811386D01*
X139318000Y-76800000D01*
X152100000Y-76800000D01*
X152100000Y-76000000D01*
X138436000Y-76000000D01*
X138436000Y-76772418D01*
X138433121Y-76799201D01*
X138432947Y-76800000D01*
X138430000Y-76800000D01*
X138430000Y-85224000D01*
X138409998Y-85292121D01*
X138356342Y-85338614D01*
X138304000Y-85350000D01*
X111626000Y-85350000D01*
X111557879Y-85329998D01*
X111511386Y-85276342D01*
X111500000Y-85224000D01*
X111500000Y-83806500D01*
X111520002Y-83738379D01*
X111573658Y-83691886D01*
X111626000Y-83680500D01*
X112907634Y-83680500D01*
X112910307Y-83680696D01*
X112915342Y-83682425D01*
X112926964Y-83681989D01*
X112926966Y-83681989D01*
X112964255Y-83680589D01*
X112968981Y-83680500D01*
X112987948Y-83680500D01*
X112992683Y-83679618D01*
X112996209Y-83679390D01*
X112999949Y-83679249D01*
X113027208Y-83678226D01*
X113037893Y-83673636D01*
X113042493Y-83672599D01*
X113054214Y-83669038D01*
X113058617Y-83667339D01*
X113070053Y-83665209D01*
X113091041Y-83652272D01*
X113107411Y-83643769D01*
X113121888Y-83637549D01*
X113121892Y-83637547D01*
X113130063Y-83634036D01*
X113134949Y-83630022D01*
X113137134Y-83627837D01*
X113139397Y-83625785D01*
X113139542Y-83625945D01*
X113148549Y-83618825D01*
X113155444Y-83612573D01*
X113165348Y-83606468D01*
X113181916Y-83584680D01*
X113193110Y-83571861D01*
X117478657Y-79286314D01*
X117540969Y-79252288D01*
X117584198Y-79250487D01*
X117651810Y-79259388D01*
X117651812Y-79259388D01*
X117660000Y-79260466D01*
X117668188Y-79259388D01*
X117802048Y-79241765D01*
X117810236Y-79240687D01*
X117950233Y-79182698D01*
X118070451Y-79090451D01*
X118162698Y-78970233D01*
X118220687Y-78830236D01*
X118240466Y-78680000D01*
X118220687Y-78529764D01*
X118162698Y-78389767D01*
X118070451Y-78269549D01*
X117950233Y-78177302D01*
X117810236Y-78119313D01*
X117660000Y-78099534D01*
X117509764Y-78119313D01*
X117369767Y-78177302D01*
X117275186Y-78249877D01*
X117208968Y-78275476D01*
X117139419Y-78261211D01*
X117121784Y-78249878D01*
X117040233Y-78187302D01*
X116900236Y-78129313D01*
X116750000Y-78109534D01*
X116599764Y-78129313D01*
X116459767Y-78187302D01*
X116339549Y-78279549D01*
X116247302Y-78399767D01*
X116189313Y-78539764D01*
X116169534Y-78690000D01*
X116170612Y-78698188D01*
X116170612Y-78698190D01*
X116179513Y-78765802D01*
X116168573Y-78835951D01*
X116143686Y-78871343D01*
X113242434Y-81772595D01*
X113180122Y-81806621D01*
X113153339Y-81809500D01*
X111596612Y-81809500D01*
X111528491Y-81789498D01*
X111489758Y-81750270D01*
X111434901Y-81662480D01*
X111431168Y-81656506D01*
X111316478Y-81541012D01*
X111254343Y-81501580D01*
X111184994Y-81457570D01*
X111184991Y-81457568D01*
X111179051Y-81453799D01*
X111139528Y-81439726D01*
X111104137Y-81427123D01*
X111057310Y-81397519D01*
X110871811Y-81212020D01*
X110857870Y-81204408D01*
X110856034Y-81204539D01*
X110849421Y-81208789D01*
X110660867Y-81397344D01*
X110612376Y-81427527D01*
X110554812Y-81447123D01*
X110554809Y-81447124D01*
X110548142Y-81449394D01*
X110542143Y-81453084D01*
X110542142Y-81453085D01*
X110534852Y-81457570D01*
X110409511Y-81534680D01*
X110369359Y-81574000D01*
X110325338Y-81617109D01*
X110293220Y-81648561D01*
X110205049Y-81785376D01*
X110202640Y-81791996D01*
X110202638Y-81791999D01*
X110173707Y-81871486D01*
X110149380Y-81938325D01*
X110128980Y-82099806D01*
X110144863Y-82261794D01*
X110196240Y-82416238D01*
X110199887Y-82422260D01*
X110199888Y-82422262D01*
X110261084Y-82523308D01*
X110280556Y-82555461D01*
X110380009Y-82658448D01*
X110412941Y-82721345D01*
X110406641Y-82792061D01*
X110377530Y-82835998D01*
X110293220Y-82918561D01*
X110205049Y-83055376D01*
X110202640Y-83061996D01*
X110202638Y-83061999D01*
X110155618Y-83191186D01*
X110149380Y-83208325D01*
X110128980Y-83369806D01*
X110144863Y-83531794D01*
X110169704Y-83606468D01*
X110193558Y-83678176D01*
X110200000Y-83717948D01*
X110200000Y-85224000D01*
X110179998Y-85292121D01*
X110126342Y-85338614D01*
X110074000Y-85350000D01*
X104226000Y-85350000D01*
X104157879Y-85329998D01*
X104111386Y-85276342D01*
X104100000Y-85224000D01*
X104100000Y-82397208D01*
X104120002Y-82329087D01*
X104123969Y-82323787D01*
X104126000Y-82314452D01*
X104126000Y-82309884D01*
X104634000Y-82309884D01*
X104638475Y-82325123D01*
X104639865Y-82326328D01*
X104647548Y-82327999D01*
X104924669Y-82327999D01*
X104931490Y-82327629D01*
X104982352Y-82322105D01*
X104997604Y-82318479D01*
X105118054Y-82273324D01*
X105133649Y-82264786D01*
X105235724Y-82188285D01*
X105248285Y-82175724D01*
X105324786Y-82073649D01*
X105333324Y-82058054D01*
X105378478Y-81937606D01*
X105382105Y-81922351D01*
X105387631Y-81871486D01*
X105388000Y-81864672D01*
X105388000Y-81592115D01*
X105383525Y-81576876D01*
X105382135Y-81575671D01*
X105374452Y-81574000D01*
X104652115Y-81574000D01*
X104636876Y-81578475D01*
X104635671Y-81579865D01*
X104634000Y-81587548D01*
X104634000Y-82309884D01*
X104126000Y-82309884D01*
X104126000Y-81192000D01*
X104146002Y-81123879D01*
X104199658Y-81077386D01*
X104252000Y-81066000D01*
X105369884Y-81066000D01*
X105385123Y-81061525D01*
X105386328Y-81060135D01*
X105387999Y-81052452D01*
X105387999Y-80831650D01*
X109821619Y-80831650D01*
X109837539Y-81021237D01*
X109839754Y-81033304D01*
X109892194Y-81216186D01*
X109896713Y-81227598D01*
X109961580Y-81353815D01*
X109971299Y-81364034D01*
X109978099Y-81361690D01*
X110486979Y-80852811D01*
X110494592Y-80838868D01*
X110494461Y-80837034D01*
X110490210Y-80830420D01*
X110159866Y-80500076D01*
X110125840Y-80437764D01*
X110130905Y-80366949D01*
X110173452Y-80310113D01*
X110239972Y-80285302D01*
X110273540Y-80287402D01*
X110314252Y-80295500D01*
X110621520Y-80295500D01*
X110689641Y-80315502D01*
X110710616Y-80332405D01*
X110846192Y-80467981D01*
X110860130Y-80475592D01*
X110861966Y-80475461D01*
X110868579Y-80471211D01*
X111007384Y-80332405D01*
X111069696Y-80298380D01*
X111096480Y-80295500D01*
X111403748Y-80295500D01*
X111444458Y-80287402D01*
X111515169Y-80293730D01*
X111571237Y-80337283D01*
X111594857Y-80404236D01*
X111578531Y-80473329D01*
X111558133Y-80500076D01*
X111231022Y-80827187D01*
X111223408Y-80841132D01*
X111223539Y-80842966D01*
X111227790Y-80849580D01*
X111734003Y-81355792D01*
X111746378Y-81362549D01*
X111753112Y-81357508D01*
X111804215Y-81267549D01*
X111809204Y-81256343D01*
X111869256Y-81075819D01*
X111871976Y-81063848D01*
X111896150Y-80872487D01*
X111896642Y-80865458D01*
X111896949Y-80843522D01*
X111896654Y-80836495D01*
X111877830Y-80644519D01*
X111875447Y-80632481D01*
X111820458Y-80450350D01*
X111815785Y-80439011D01*
X111756049Y-80326662D01*
X111746189Y-80316581D01*
X111737819Y-80319597D01*
X111666951Y-80323874D01*
X111605021Y-80289159D01*
X111571690Y-80226472D01*
X111576681Y-80173990D01*
X111572867Y-80173231D01*
X111583293Y-80120816D01*
X111584500Y-80114748D01*
X111584500Y-79025252D01*
X111572867Y-78966769D01*
X111528552Y-78900448D01*
X111462231Y-78856133D01*
X111450062Y-78853712D01*
X111450061Y-78853712D01*
X111409816Y-78845707D01*
X111403748Y-78844500D01*
X110314252Y-78844500D01*
X110308184Y-78845707D01*
X110267939Y-78853712D01*
X110267938Y-78853712D01*
X110255769Y-78856133D01*
X110189448Y-78900448D01*
X110145133Y-78966769D01*
X110133500Y-79025252D01*
X110133500Y-80114748D01*
X110134707Y-80120816D01*
X110145133Y-80173231D01*
X110141847Y-80173885D01*
X110147271Y-80224333D01*
X110115492Y-80287820D01*
X110054434Y-80324048D01*
X109983483Y-80321514D01*
X109972122Y-80316569D01*
X109964943Y-80321943D01*
X109907908Y-80425689D01*
X109903076Y-80436962D01*
X109845548Y-80618315D01*
X109842998Y-80630309D01*
X109821790Y-80819382D01*
X109821619Y-80831650D01*
X105387999Y-80831650D01*
X105387999Y-80775331D01*
X105387629Y-80768510D01*
X105382105Y-80717648D01*
X105378479Y-80702396D01*
X105333324Y-80581946D01*
X105324786Y-80566351D01*
X105248285Y-80464276D01*
X105235724Y-80451715D01*
X105133644Y-80375210D01*
X105123493Y-80369653D01*
X105073346Y-80319395D01*
X105058332Y-80250004D01*
X105061018Y-80234084D01*
X105061601Y-80232634D01*
X105062783Y-80224333D01*
X105084909Y-80068862D01*
X105084909Y-80068859D01*
X105085490Y-80064778D01*
X105085645Y-80050000D01*
X105065276Y-79881680D01*
X105005345Y-79723077D01*
X104909312Y-79583349D01*
X104862640Y-79541765D01*
X104825663Y-79508820D01*
X104788107Y-79448570D01*
X104789088Y-79377580D01*
X104827652Y-79318933D01*
X104893648Y-79262567D01*
X104893651Y-79262564D01*
X104899423Y-79257634D01*
X104998361Y-79119947D01*
X105008198Y-79095477D01*
X105058766Y-78969687D01*
X105058767Y-78969685D01*
X105061601Y-78962634D01*
X105072481Y-78886188D01*
X105084909Y-78798862D01*
X105084909Y-78798859D01*
X105085490Y-78794778D01*
X105085645Y-78780000D01*
X105065276Y-78611680D01*
X105005345Y-78453077D01*
X105000150Y-78445518D01*
X104913614Y-78319608D01*
X104913613Y-78319607D01*
X104909312Y-78313349D01*
X104878728Y-78286099D01*
X104825663Y-78238820D01*
X104788107Y-78178570D01*
X104789088Y-78107580D01*
X104827652Y-78048933D01*
X104893648Y-77992567D01*
X104893651Y-77992564D01*
X104899423Y-77987634D01*
X104989000Y-77862974D01*
X105044995Y-77819326D01*
X105091323Y-77810500D01*
X115162634Y-77810500D01*
X115165307Y-77810696D01*
X115170342Y-77812425D01*
X115181964Y-77811989D01*
X115181966Y-77811989D01*
X115219255Y-77810589D01*
X115223981Y-77810500D01*
X115242948Y-77810500D01*
X115247683Y-77809618D01*
X115251209Y-77809390D01*
X115254949Y-77809249D01*
X115282208Y-77808226D01*
X115292893Y-77803636D01*
X115297493Y-77802599D01*
X115309214Y-77799038D01*
X115313617Y-77797339D01*
X115325053Y-77795209D01*
X115346041Y-77782272D01*
X115362411Y-77773769D01*
X115376888Y-77767549D01*
X115376892Y-77767547D01*
X115385063Y-77764036D01*
X115389949Y-77760022D01*
X115392134Y-77757837D01*
X115394397Y-77755785D01*
X115394542Y-77755945D01*
X115403549Y-77748825D01*
X115410444Y-77742573D01*
X115420348Y-77736468D01*
X115436916Y-77714680D01*
X115448110Y-77701861D01*
X115959971Y-77190000D01*
X124809534Y-77190000D01*
X124829313Y-77340236D01*
X124887302Y-77480233D01*
X124979549Y-77600451D01*
X125099767Y-77692698D01*
X125239764Y-77750687D01*
X125390000Y-77770466D01*
X125398188Y-77769388D01*
X125438841Y-77764036D01*
X125540236Y-77750687D01*
X125680233Y-77692698D01*
X125800451Y-77600451D01*
X125817592Y-77578113D01*
X125854667Y-77529796D01*
X125912005Y-77487929D01*
X125954629Y-77480500D01*
X128428339Y-77480500D01*
X128496460Y-77500502D01*
X128517434Y-77517405D01*
X131221941Y-80221912D01*
X131255967Y-80284224D01*
X131257768Y-80327453D01*
X131251481Y-80375210D01*
X131249534Y-80390000D01*
X131250612Y-80398188D01*
X131260505Y-80473329D01*
X131269313Y-80540236D01*
X131327302Y-80680233D01*
X131419549Y-80800451D01*
X131539767Y-80892698D01*
X131679764Y-80950687D01*
X131830000Y-80970466D01*
X131838188Y-80969388D01*
X131972048Y-80951765D01*
X131980236Y-80950687D01*
X132120233Y-80892698D01*
X132240451Y-80800451D01*
X132332698Y-80680233D01*
X132390687Y-80540236D01*
X132399496Y-80473329D01*
X132409388Y-80398188D01*
X132410466Y-80390000D01*
X132390687Y-80239764D01*
X132332698Y-80099767D01*
X132240451Y-79979549D01*
X132120233Y-79887302D01*
X131980236Y-79829313D01*
X131830000Y-79809534D01*
X131740943Y-79821259D01*
X131670796Y-79810320D01*
X131635403Y-79785432D01*
X128854519Y-77004548D01*
X128852763Y-77002514D01*
X128850425Y-76997731D01*
X128814523Y-76964427D01*
X128811118Y-76961147D01*
X128797723Y-76947752D01*
X128793753Y-76945028D01*
X128791105Y-76942703D01*
X128776881Y-76929508D01*
X128776878Y-76929506D01*
X128768354Y-76921599D01*
X128757550Y-76917289D01*
X128753561Y-76914767D01*
X128742773Y-76909006D01*
X128738448Y-76907089D01*
X128728854Y-76900508D01*
X128717535Y-76897822D01*
X128717533Y-76897821D01*
X128704873Y-76894817D01*
X128687276Y-76889252D01*
X128672638Y-76883412D01*
X128672635Y-76883411D01*
X128664378Y-76880117D01*
X128658085Y-76879500D01*
X128655006Y-76879500D01*
X128651933Y-76879350D01*
X128651944Y-76879134D01*
X128640569Y-76877802D01*
X128631254Y-76877346D01*
X128619934Y-76874660D01*
X128608405Y-76876229D01*
X128608404Y-76876229D01*
X128592827Y-76878349D01*
X128575836Y-76879500D01*
X125939283Y-76879500D01*
X125871162Y-76859498D01*
X125839321Y-76830204D01*
X125805481Y-76786103D01*
X125805477Y-76786099D01*
X125800451Y-76779549D01*
X125793901Y-76774523D01*
X125793898Y-76774520D01*
X125711729Y-76711470D01*
X125680233Y-76687302D01*
X125540236Y-76629313D01*
X125390000Y-76609534D01*
X125239764Y-76629313D01*
X125099767Y-76687302D01*
X124979549Y-76779549D01*
X124887302Y-76899767D01*
X124829313Y-77039764D01*
X124809534Y-77190000D01*
X115959971Y-77190000D01*
X116793657Y-76356314D01*
X116855969Y-76322288D01*
X116899198Y-76320487D01*
X116966810Y-76329388D01*
X116966812Y-76329388D01*
X116975000Y-76330466D01*
X116983188Y-76329388D01*
X117117048Y-76311765D01*
X117125236Y-76310687D01*
X117265233Y-76252698D01*
X117385451Y-76160451D01*
X117477698Y-76040233D01*
X117535687Y-75900236D01*
X117555466Y-75750000D01*
X117535687Y-75599764D01*
X117511266Y-75540807D01*
X117503677Y-75470218D01*
X117535456Y-75406731D01*
X117596514Y-75370503D01*
X117627675Y-75366589D01*
X118393044Y-75366589D01*
X118461165Y-75386591D01*
X118493005Y-75415883D01*
X118539549Y-75476540D01*
X118659767Y-75568787D01*
X118799764Y-75626776D01*
X118950000Y-75646555D01*
X118958188Y-75645477D01*
X119092048Y-75627854D01*
X119100236Y-75626776D01*
X119240233Y-75568787D01*
X119360451Y-75476540D01*
X119452698Y-75356322D01*
X119510687Y-75216325D01*
X119530466Y-75066089D01*
X119510687Y-74915853D01*
X119452698Y-74775856D01*
X119360451Y-74655638D01*
X119240233Y-74563391D01*
X119100236Y-74505402D01*
X118950000Y-74485623D01*
X118799764Y-74505402D01*
X118659767Y-74563391D01*
X118539549Y-74655638D01*
X118494842Y-74713901D01*
X118493006Y-74716294D01*
X118435668Y-74758161D01*
X118393044Y-74765589D01*
X117643807Y-74765589D01*
X117575686Y-74745587D01*
X117529193Y-74691931D01*
X117519089Y-74621657D01*
X117522100Y-74606980D01*
X117524118Y-74599450D01*
X117527276Y-74591825D01*
X117530358Y-74568420D01*
X117545977Y-74449777D01*
X117547055Y-74441589D01*
X117527276Y-74291353D01*
X117469287Y-74151356D01*
X117410864Y-74075218D01*
X117385263Y-74008998D01*
X117399528Y-73939449D01*
X117410863Y-73921810D01*
X117410910Y-73921749D01*
X117479488Y-73832377D01*
X117537477Y-73692380D01*
X117557256Y-73542144D01*
X117547982Y-73471703D01*
X117558921Y-73401555D01*
X117583809Y-73366162D01*
X118219971Y-72730000D01*
X118989534Y-72730000D01*
X118991860Y-72747669D01*
X119004359Y-72842603D01*
X119009313Y-72880236D01*
X119067302Y-73020233D01*
X119159549Y-73140451D01*
X119279767Y-73232698D01*
X119419764Y-73290687D01*
X119570000Y-73310466D01*
X119578188Y-73309388D01*
X119600429Y-73306460D01*
X119720236Y-73290687D01*
X119860233Y-73232698D01*
X119980451Y-73140451D01*
X120072698Y-73020233D01*
X120130687Y-72880236D01*
X120135642Y-72842603D01*
X120148140Y-72747669D01*
X120150466Y-72730000D01*
X120143502Y-72677102D01*
X120137689Y-72632946D01*
X120148629Y-72562797D01*
X120195757Y-72509699D01*
X120262611Y-72490500D01*
X123210339Y-72490500D01*
X123278460Y-72510502D01*
X123324953Y-72564158D01*
X123335057Y-72634432D01*
X123305563Y-72699012D01*
X123299434Y-72705595D01*
X122742506Y-73262523D01*
X122680194Y-73296549D01*
X122636966Y-73298350D01*
X122570000Y-73289534D01*
X122561242Y-73290687D01*
X122441435Y-73306460D01*
X122419764Y-73309313D01*
X122279767Y-73367302D01*
X122159549Y-73459549D01*
X122067302Y-73579767D01*
X122009313Y-73719764D01*
X121989534Y-73870000D01*
X122009313Y-74020236D01*
X122067302Y-74160233D01*
X122159549Y-74280451D01*
X122279767Y-74372698D01*
X122419764Y-74430687D01*
X122570000Y-74450466D01*
X122578188Y-74449388D01*
X122712048Y-74431765D01*
X122720236Y-74430687D01*
X122727864Y-74427527D01*
X122732299Y-74426339D01*
X122803276Y-74428029D01*
X122862071Y-74467824D01*
X122890018Y-74533089D01*
X122878244Y-74603103D01*
X122854004Y-74637141D01*
X122730511Y-74760634D01*
X122668199Y-74794660D01*
X122624970Y-74796461D01*
X122585691Y-74791290D01*
X122585689Y-74791290D01*
X122577501Y-74790212D01*
X122427265Y-74809991D01*
X122287268Y-74867980D01*
X122167050Y-74960227D01*
X122074803Y-75080445D01*
X122016814Y-75220442D01*
X121997035Y-75370678D01*
X122016814Y-75520914D01*
X122074803Y-75660911D01*
X122167050Y-75781129D01*
X122287268Y-75873376D01*
X122427265Y-75931365D01*
X122577501Y-75951144D01*
X122585689Y-75950066D01*
X122719549Y-75932443D01*
X122727737Y-75931365D01*
X122867734Y-75873376D01*
X122987952Y-75781129D01*
X123080199Y-75660911D01*
X123138188Y-75520914D01*
X123157967Y-75370678D01*
X123144257Y-75266543D01*
X123155196Y-75196396D01*
X123180084Y-75161003D01*
X124503683Y-73837405D01*
X124565995Y-73803379D01*
X124592778Y-73800500D01*
X124740049Y-73800500D01*
X124808170Y-73820502D01*
X124854663Y-73874158D01*
X124864767Y-73944432D01*
X124840012Y-74003203D01*
X124827302Y-74019767D01*
X124769313Y-74159764D01*
X124749534Y-74310000D01*
X124769313Y-74460236D01*
X124827302Y-74600233D01*
X124919549Y-74720451D01*
X125039767Y-74812698D01*
X125179764Y-74870687D01*
X125330000Y-74890466D01*
X125338188Y-74889388D01*
X125384986Y-74883227D01*
X125480236Y-74870687D01*
X125620233Y-74812698D01*
X125740451Y-74720451D01*
X125792750Y-74652294D01*
X125850087Y-74610428D01*
X125892711Y-74603000D01*
X128435839Y-74603000D01*
X128503960Y-74623002D01*
X128524934Y-74639905D01*
X132683686Y-78798657D01*
X132717712Y-78860969D01*
X132719513Y-78904198D01*
X132710820Y-78970233D01*
X132709534Y-78980000D01*
X132729313Y-79130236D01*
X132787302Y-79270233D01*
X132879549Y-79390451D01*
X132999767Y-79482698D01*
X133139764Y-79540687D01*
X133290000Y-79560466D01*
X133298188Y-79559388D01*
X133432048Y-79541765D01*
X133440236Y-79540687D01*
X133580233Y-79482698D01*
X133700451Y-79390451D01*
X133792698Y-79270233D01*
X133850687Y-79130236D01*
X133870466Y-78980000D01*
X133850687Y-78829764D01*
X133792698Y-78689767D01*
X133700451Y-78569549D01*
X133580233Y-78477302D01*
X133440236Y-78419313D01*
X133290000Y-78399534D01*
X133281812Y-78400612D01*
X133281810Y-78400612D01*
X133214198Y-78409513D01*
X133144049Y-78398573D01*
X133108657Y-78373686D01*
X128862019Y-74127048D01*
X128860263Y-74125014D01*
X128857925Y-74120231D01*
X128822023Y-74086927D01*
X128818618Y-74083647D01*
X128805223Y-74070252D01*
X128801253Y-74067528D01*
X128798605Y-74065203D01*
X128784381Y-74052008D01*
X128784378Y-74052006D01*
X128775854Y-74044099D01*
X128765053Y-74039790D01*
X128755217Y-74033572D01*
X128757377Y-74030154D01*
X128718566Y-73999704D01*
X128695269Y-73932639D01*
X128711928Y-73863624D01*
X128763255Y-73814573D01*
X128821119Y-73800500D01*
X131943044Y-73800500D01*
X132011165Y-73820502D01*
X132043005Y-73849794D01*
X132089549Y-73910451D01*
X132209767Y-74002698D01*
X132349764Y-74060687D01*
X132500000Y-74080466D01*
X132508188Y-74079388D01*
X132642048Y-74061765D01*
X132650236Y-74060687D01*
X132790233Y-74002698D01*
X132910451Y-73910451D01*
X133002698Y-73790233D01*
X133060687Y-73650236D01*
X133080466Y-73500000D01*
X133060687Y-73349764D01*
X133057527Y-73342135D01*
X133055389Y-73334156D01*
X133058875Y-73333222D01*
X133053101Y-73279004D01*
X133084944Y-73215549D01*
X133146038Y-73179383D01*
X133177077Y-73175500D01*
X149606881Y-73175500D01*
X149675002Y-73195502D01*
X149706843Y-73224796D01*
X149713406Y-73233349D01*
X149749549Y-73280451D01*
X149869767Y-73372698D01*
X150009764Y-73430687D01*
X150160000Y-73450466D01*
X150168188Y-73449388D01*
X150302048Y-73431765D01*
X150310236Y-73430687D01*
X150450233Y-73372698D01*
X150570451Y-73280451D01*
X150662698Y-73160233D01*
X150720687Y-73020236D01*
X150740466Y-72870000D01*
X150720687Y-72719764D01*
X150697886Y-72664718D01*
X150690297Y-72594129D01*
X150722076Y-72530642D01*
X150783134Y-72494414D01*
X150814295Y-72490500D01*
X151073044Y-72490500D01*
X151141165Y-72510502D01*
X151173005Y-72539794D01*
X151219549Y-72600451D01*
X151339767Y-72692698D01*
X151479764Y-72750687D01*
X151630000Y-72770466D01*
X151638188Y-72769388D01*
X151772048Y-72751765D01*
X151780236Y-72750687D01*
X151920233Y-72692698D01*
X152040451Y-72600451D01*
X152132698Y-72480233D01*
X152190687Y-72340236D01*
X152210466Y-72190000D01*
X152190687Y-72039764D01*
X152186436Y-72029500D01*
X152178150Y-72009498D01*
X152132698Y-71899767D01*
X152040451Y-71779549D01*
X151920233Y-71687302D01*
X151780236Y-71629313D01*
X151630000Y-71609534D01*
X151479764Y-71629313D01*
X151339767Y-71687302D01*
X151219549Y-71779549D01*
X151197417Y-71808392D01*
X151173006Y-71840205D01*
X151115668Y-71882072D01*
X151073044Y-71889500D01*
X119962372Y-71889500D01*
X119959695Y-71889303D01*
X119954658Y-71887574D01*
X119943037Y-71888010D01*
X119943035Y-71888010D01*
X119905730Y-71889411D01*
X119901003Y-71889500D01*
X119882052Y-71889500D01*
X119877319Y-71890382D01*
X119873792Y-71890610D01*
X119854420Y-71891337D01*
X119854418Y-71891338D01*
X119842792Y-71891774D01*
X119832100Y-71896368D01*
X119827497Y-71897405D01*
X119815787Y-71900962D01*
X119811384Y-71902661D01*
X119799947Y-71904791D01*
X119790046Y-71910894D01*
X119790043Y-71910895D01*
X119778956Y-71917729D01*
X119762585Y-71926233D01*
X119748106Y-71932454D01*
X119748103Y-71932456D01*
X119739938Y-71935964D01*
X119735051Y-71939977D01*
X119732856Y-71942172D01*
X119730586Y-71944230D01*
X119730439Y-71944068D01*
X119721461Y-71951165D01*
X119714554Y-71957429D01*
X119704652Y-71963532D01*
X119688091Y-71985311D01*
X119676896Y-71998132D01*
X119612698Y-72062331D01*
X119548991Y-72126038D01*
X119486679Y-72160063D01*
X119476344Y-72161864D01*
X119419764Y-72169313D01*
X119279767Y-72227302D01*
X119159549Y-72319549D01*
X119067302Y-72439767D01*
X119009313Y-72579764D01*
X118989534Y-72730000D01*
X118219971Y-72730000D01*
X121487566Y-69462405D01*
X121549878Y-69428379D01*
X121576661Y-69425500D01*
X130522634Y-69425500D01*
X130525307Y-69425696D01*
X130530342Y-69427425D01*
X130541964Y-69426989D01*
X130541966Y-69426989D01*
X130579255Y-69425589D01*
X130583981Y-69425500D01*
X130602948Y-69425500D01*
X130607683Y-69424618D01*
X130611209Y-69424390D01*
X130614949Y-69424249D01*
X130642208Y-69423226D01*
X130652893Y-69418636D01*
X130657493Y-69417599D01*
X130669214Y-69414038D01*
X130673617Y-69412339D01*
X130685053Y-69410209D01*
X130706041Y-69397272D01*
X130722411Y-69388769D01*
X130736888Y-69382549D01*
X130736892Y-69382547D01*
X130745063Y-69379036D01*
X130749949Y-69375022D01*
X130752134Y-69372837D01*
X130754397Y-69370785D01*
X130754542Y-69370945D01*
X130763549Y-69363825D01*
X130770444Y-69357573D01*
X130780348Y-69351468D01*
X130796916Y-69329680D01*
X130808110Y-69316861D01*
X131874223Y-68250748D01*
X131936535Y-68216722D01*
X131946871Y-68214921D01*
X131975236Y-68211187D01*
X132115233Y-68153198D01*
X132235451Y-68060951D01*
X132327698Y-67940733D01*
X132385687Y-67800736D01*
X132405466Y-67650500D01*
X132385687Y-67500264D01*
X132327698Y-67360267D01*
X132235451Y-67240049D01*
X132115233Y-67147802D01*
X131975236Y-67089813D01*
X131825000Y-67070034D01*
X131674764Y-67089813D01*
X131534767Y-67147802D01*
X131414549Y-67240049D01*
X131322302Y-67360267D01*
X131264313Y-67500264D01*
X131244534Y-67650500D01*
X131264313Y-67800736D01*
X131293597Y-67871434D01*
X131301186Y-67942022D01*
X131266283Y-68008746D01*
X130750531Y-68524498D01*
X130688219Y-68558524D01*
X130617404Y-68553459D01*
X130560568Y-68510912D01*
X130535757Y-68444392D01*
X130536514Y-68418957D01*
X130554388Y-68283188D01*
X130555466Y-68275000D01*
X130535687Y-68124764D01*
X130477698Y-67984767D01*
X130385451Y-67864549D01*
X130265233Y-67772302D01*
X130125236Y-67714313D01*
X129975000Y-67694534D01*
X129824764Y-67714313D01*
X129684767Y-67772302D01*
X129564549Y-67864549D01*
X129518006Y-67925205D01*
X129460668Y-67967072D01*
X129418044Y-67974500D01*
X121017366Y-67974500D01*
X121014693Y-67974304D01*
X121009658Y-67972575D01*
X120998036Y-67973011D01*
X120998034Y-67973011D01*
X120960745Y-67974411D01*
X120956019Y-67974500D01*
X120937052Y-67974500D01*
X120932317Y-67975382D01*
X120928791Y-67975610D01*
X120925051Y-67975751D01*
X120897792Y-67976774D01*
X120887107Y-67981364D01*
X120882507Y-67982401D01*
X120870786Y-67985962D01*
X120866383Y-67987661D01*
X120854947Y-67989791D01*
X120842415Y-67997516D01*
X120833961Y-68002727D01*
X120817589Y-68011231D01*
X120797308Y-68019945D01*
X120726823Y-68028460D01*
X120662925Y-67997516D01*
X120625900Y-67936938D01*
X120627503Y-67865960D01*
X120658472Y-67815084D01*
X122961151Y-65512405D01*
X123023463Y-65478379D01*
X123050246Y-65475500D01*
X129387227Y-65475500D01*
X129455348Y-65495502D01*
X129487189Y-65524796D01*
X129509519Y-65553897D01*
X129509523Y-65553901D01*
X129514549Y-65560451D01*
X129521099Y-65565477D01*
X129521102Y-65565480D01*
X129562234Y-65597041D01*
X129634767Y-65652698D01*
X129774764Y-65710687D01*
X129925000Y-65730466D01*
X129933188Y-65729388D01*
X130067048Y-65711765D01*
X130075236Y-65710687D01*
X130215233Y-65652698D01*
X130335451Y-65560451D01*
X130427698Y-65440233D01*
X130485687Y-65300236D01*
X130505466Y-65150000D01*
X130485687Y-64999764D01*
X130427698Y-64859767D01*
X130335451Y-64739549D01*
X130215233Y-64647302D01*
X130075236Y-64589313D01*
X129925000Y-64569534D01*
X129774764Y-64589313D01*
X129634767Y-64647302D01*
X129514549Y-64739549D01*
X129509523Y-64746099D01*
X129448823Y-64825204D01*
X129391485Y-64867071D01*
X129348861Y-64874500D01*
X122925951Y-64874500D01*
X122923278Y-64874304D01*
X122918243Y-64872575D01*
X122906621Y-64873011D01*
X122906619Y-64873011D01*
X122869330Y-64874411D01*
X122864604Y-64874500D01*
X122845637Y-64874500D01*
X122840902Y-64875382D01*
X122837376Y-64875610D01*
X122833636Y-64875751D01*
X122806377Y-64876774D01*
X122795692Y-64881364D01*
X122791092Y-64882401D01*
X122779371Y-64885962D01*
X122774968Y-64887661D01*
X122763532Y-64889791D01*
X122742546Y-64902727D01*
X122726174Y-64911231D01*
X122711697Y-64917451D01*
X122711693Y-64917453D01*
X122703522Y-64920964D01*
X122698636Y-64924978D01*
X122696451Y-64927163D01*
X122694188Y-64929215D01*
X122694043Y-64929055D01*
X122685036Y-64936175D01*
X122678141Y-64942427D01*
X122668237Y-64948532D01*
X122651669Y-64970320D01*
X122640475Y-64983139D01*
X116291747Y-71331867D01*
X116229435Y-71365893D01*
X116158620Y-71360828D01*
X116101784Y-71318281D01*
X116077730Y-71259218D01*
X116071650Y-71213035D01*
X116082589Y-71142886D01*
X116107477Y-71107494D01*
X127802566Y-59412405D01*
X127864878Y-59378379D01*
X127891661Y-59375500D01*
X143093044Y-59375500D01*
X143161165Y-59395502D01*
X143193005Y-59424794D01*
X143239549Y-59485451D01*
X143359767Y-59577698D01*
X143499764Y-59635687D01*
X143650000Y-59655466D01*
X143658188Y-59654388D01*
X143792048Y-59636765D01*
X143800236Y-59635687D01*
X143940233Y-59577698D01*
X144060451Y-59485451D01*
X144152698Y-59365233D01*
X144210687Y-59225236D01*
X144230466Y-59075000D01*
X144210687Y-58924764D01*
X144152698Y-58784767D01*
X144060451Y-58664549D01*
X143940233Y-58572302D01*
X143800236Y-58514313D01*
X143650000Y-58494534D01*
X143499764Y-58514313D01*
X143359767Y-58572302D01*
X143239549Y-58664549D01*
X143193006Y-58725205D01*
X143135668Y-58767072D01*
X143093044Y-58774500D01*
X127767372Y-58774500D01*
X127764695Y-58774303D01*
X127759658Y-58772574D01*
X127748037Y-58773010D01*
X127748035Y-58773010D01*
X127710730Y-58774411D01*
X127706003Y-58774500D01*
X127687052Y-58774500D01*
X127682319Y-58775382D01*
X127678792Y-58775610D01*
X127659420Y-58776337D01*
X127659418Y-58776338D01*
X127647792Y-58776774D01*
X127637100Y-58781368D01*
X127632497Y-58782405D01*
X127620787Y-58785962D01*
X127616384Y-58787661D01*
X127604947Y-58789791D01*
X127595046Y-58795894D01*
X127595043Y-58795895D01*
X127583956Y-58802729D01*
X127567585Y-58811233D01*
X127553109Y-58817453D01*
X127553107Y-58817454D01*
X127544938Y-58820964D01*
X127540052Y-58824977D01*
X127537869Y-58827160D01*
X127535593Y-58829224D01*
X127535447Y-58829063D01*
X127526451Y-58836175D01*
X127519556Y-58842427D01*
X127509652Y-58848532D01*
X127493084Y-58870320D01*
X127481890Y-58883139D01*
X115690179Y-70674850D01*
X115627867Y-70708876D01*
X115584639Y-70710677D01*
X115500000Y-70699534D01*
X115349764Y-70719313D01*
X115209767Y-70777302D01*
X115089549Y-70869549D01*
X114997302Y-70989767D01*
X114939313Y-71129764D01*
X114919534Y-71280000D01*
X114939313Y-71430236D01*
X114997302Y-71570233D01*
X115089549Y-71690451D01*
X115209767Y-71782698D01*
X115243404Y-71796631D01*
X115255207Y-71801520D01*
X115310488Y-71846069D01*
X115332909Y-71913432D01*
X115315351Y-71982223D01*
X115263388Y-72030602D01*
X115255210Y-72034337D01*
X115199767Y-72057302D01*
X115079549Y-72149549D01*
X114987302Y-72269767D01*
X114929313Y-72409764D01*
X114928235Y-72417952D01*
X114921040Y-72472603D01*
X114909534Y-72560000D01*
X114929313Y-72710236D01*
X114987302Y-72850233D01*
X115079549Y-72970451D01*
X115199767Y-73062698D01*
X115339764Y-73120687D01*
X115490000Y-73140466D01*
X115498188Y-73139388D01*
X115632048Y-73121765D01*
X115640236Y-73120687D01*
X115780233Y-73062698D01*
X115900451Y-72970451D01*
X115992698Y-72850233D01*
X116050687Y-72710236D01*
X116070466Y-72560000D01*
X116060322Y-72482948D01*
X116071261Y-72412799D01*
X116096149Y-72377407D01*
X116193976Y-72279580D01*
X116256288Y-72245554D01*
X116327103Y-72250619D01*
X116383939Y-72293166D01*
X116407993Y-72352228D01*
X116414313Y-72400236D01*
X116472302Y-72540233D01*
X116564549Y-72660451D01*
X116684767Y-72752698D01*
X116750762Y-72780034D01*
X116806042Y-72824583D01*
X116828463Y-72891946D01*
X116810904Y-72960738D01*
X116758942Y-73009116D01*
X116750769Y-73012849D01*
X116686557Y-73039446D01*
X116566339Y-73131693D01*
X116474092Y-73251911D01*
X116416103Y-73391908D01*
X116396324Y-73542144D01*
X116416103Y-73692380D01*
X116474092Y-73832377D01*
X116506152Y-73874158D01*
X116532515Y-73908515D01*
X116558116Y-73974735D01*
X116543851Y-74044284D01*
X116532518Y-74061920D01*
X116509595Y-74091794D01*
X116452258Y-74133660D01*
X116409633Y-74141089D01*
X105467020Y-74141089D01*
X105398899Y-74121087D01*
X105352406Y-74067431D01*
X105342302Y-73997157D01*
X105371796Y-73932577D01*
X105373856Y-73930470D01*
X105380348Y-73926468D01*
X105396916Y-73904680D01*
X105408110Y-73891861D01*
X108537567Y-70762405D01*
X108599879Y-70728379D01*
X108626662Y-70725500D01*
X113766881Y-70725500D01*
X113835002Y-70745502D01*
X113866843Y-70774796D01*
X113870035Y-70778956D01*
X113909549Y-70830451D01*
X114029767Y-70922698D01*
X114169764Y-70980687D01*
X114320000Y-71000466D01*
X114328188Y-70999388D01*
X114341428Y-70997645D01*
X114470236Y-70980687D01*
X114610233Y-70922698D01*
X114730451Y-70830451D01*
X114822698Y-70710233D01*
X114880687Y-70570236D01*
X114900466Y-70420000D01*
X114880687Y-70269764D01*
X114822698Y-70129767D01*
X114730451Y-70009549D01*
X114610233Y-69917302D01*
X114470236Y-69859313D01*
X114320000Y-69839534D01*
X114169764Y-69859313D01*
X114029767Y-69917302D01*
X113969658Y-69963426D01*
X113916102Y-70004520D01*
X113916099Y-70004523D01*
X113909549Y-70009549D01*
X113904523Y-70016099D01*
X113904518Y-70016104D01*
X113859169Y-70075204D01*
X113801831Y-70117071D01*
X113759207Y-70124500D01*
X108771083Y-70124500D01*
X108702962Y-70104498D01*
X108656469Y-70050842D01*
X108646365Y-69980568D01*
X108675859Y-69915988D01*
X108681988Y-69909405D01*
X113053549Y-65537844D01*
X113115861Y-65503818D01*
X113126198Y-65502017D01*
X113175684Y-65495502D01*
X113250236Y-65485687D01*
X113390233Y-65427698D01*
X113489486Y-65351538D01*
X113555706Y-65325937D01*
X113566190Y-65325500D01*
X118918433Y-65325500D01*
X118927864Y-65322436D01*
X118927868Y-65322435D01*
X118939353Y-65318703D01*
X118958578Y-65314087D01*
X118970512Y-65312197D01*
X118970513Y-65312197D01*
X118980304Y-65310646D01*
X118989137Y-65306145D01*
X118989141Y-65306144D01*
X118999906Y-65300659D01*
X119018166Y-65293095D01*
X119039090Y-65286296D01*
X119056893Y-65273361D01*
X119073745Y-65263035D01*
X119084502Y-65257554D01*
X119093342Y-65253050D01*
X119115905Y-65230487D01*
X119115909Y-65230484D01*
X121880693Y-62465700D01*
X121943005Y-62431674D01*
X121953342Y-62429873D01*
X122032147Y-62419498D01*
X122085575Y-62412464D01*
X122225572Y-62354475D01*
X122345790Y-62262228D01*
X122438037Y-62142010D01*
X122496026Y-62002013D01*
X122515805Y-61851777D01*
X122496026Y-61701541D01*
X122438037Y-61561544D01*
X122345790Y-61441326D01*
X122225572Y-61349079D01*
X122085575Y-61291090D01*
X121935339Y-61271311D01*
X121785103Y-61291090D01*
X121645106Y-61349079D01*
X121524888Y-61441326D01*
X121432641Y-61561544D01*
X121374652Y-61701541D01*
X121373574Y-61709729D01*
X121359401Y-61817384D01*
X121330679Y-61882311D01*
X121323574Y-61890033D01*
X118726012Y-64487595D01*
X118663700Y-64521621D01*
X118636917Y-64524500D01*
X113566190Y-64524500D01*
X113498069Y-64504498D01*
X113489486Y-64498462D01*
X113475324Y-64487595D01*
X113390233Y-64422302D01*
X113250236Y-64364313D01*
X113100000Y-64344534D01*
X112949764Y-64364313D01*
X112809767Y-64422302D01*
X112689549Y-64514549D01*
X112597302Y-64634767D01*
X112539313Y-64774764D01*
X112538235Y-64782953D01*
X112522983Y-64898802D01*
X112494261Y-64963730D01*
X112487156Y-64971451D01*
X105466012Y-71992595D01*
X105403700Y-72026621D01*
X105376917Y-72029500D01*
X105021068Y-72029500D01*
X104952947Y-72009498D01*
X104917229Y-71974868D01*
X104913618Y-71969614D01*
X104913617Y-71969613D01*
X104909312Y-71963349D01*
X104859167Y-71918671D01*
X104788392Y-71855612D01*
X104788388Y-71855610D01*
X104782721Y-71850560D01*
X104632881Y-71771224D01*
X104468441Y-71729919D01*
X104460843Y-71729879D01*
X104460841Y-71729879D01*
X104298895Y-71729031D01*
X104298910Y-71726098D01*
X104242316Y-71716352D01*
X104208721Y-71692329D01*
X101900917Y-69384524D01*
X101900909Y-69384516D01*
X101900905Y-69384513D01*
X101878342Y-69361950D01*
X101858746Y-69351965D01*
X101841893Y-69341639D01*
X101824090Y-69328704D01*
X101803166Y-69321905D01*
X101784906Y-69314341D01*
X101774141Y-69308856D01*
X101774137Y-69308855D01*
X101765304Y-69304354D01*
X101755513Y-69302803D01*
X101755512Y-69302803D01*
X101743578Y-69300913D01*
X101724353Y-69296297D01*
X101712868Y-69292565D01*
X101712864Y-69292564D01*
X101703433Y-69289500D01*
X101106190Y-69289500D01*
X101038069Y-69269498D01*
X101029486Y-69263462D01*
X100930233Y-69187302D01*
X100790236Y-69129313D01*
X100640000Y-69109534D01*
X100489764Y-69129313D01*
X100349767Y-69187302D01*
X100229549Y-69279549D01*
X100137302Y-69399767D01*
X100079313Y-69539764D01*
X100059534Y-69690000D01*
X100079313Y-69840236D01*
X100137302Y-69980233D01*
X100229549Y-70100451D01*
X100349767Y-70192698D01*
X100489764Y-70250687D01*
X100640000Y-70270466D01*
X100648188Y-70269388D01*
X100782048Y-70251765D01*
X100790236Y-70250687D01*
X100930233Y-70192698D01*
X101029486Y-70116538D01*
X101095706Y-70090937D01*
X101106190Y-70090500D01*
X101421917Y-70090500D01*
X101490038Y-70110502D01*
X101511012Y-70127405D01*
X101663095Y-70279488D01*
X101697121Y-70341800D01*
X101700000Y-70368583D01*
X101700000Y-85224000D01*
X101679998Y-85292121D01*
X101626342Y-85338614D01*
X101574000Y-85350000D01*
X66976000Y-85350000D01*
X66907879Y-85329998D01*
X66861386Y-85276342D01*
X66850000Y-85224000D01*
X66850000Y-82750000D01*
X68944532Y-82750000D01*
X68964365Y-82976692D01*
X68965789Y-82982005D01*
X68965789Y-82982007D01*
X68982024Y-83042595D01*
X69023261Y-83196496D01*
X69025583Y-83201476D01*
X69025584Y-83201478D01*
X69107348Y-83376819D01*
X69119432Y-83402734D01*
X69249953Y-83589139D01*
X69410861Y-83750047D01*
X69597266Y-83880568D01*
X69602244Y-83882889D01*
X69602247Y-83882891D01*
X69798522Y-83974416D01*
X69803504Y-83976739D01*
X69808812Y-83978161D01*
X69808814Y-83978162D01*
X70017993Y-84034211D01*
X70017995Y-84034211D01*
X70023308Y-84035635D01*
X70122302Y-84044296D01*
X70190492Y-84050262D01*
X70190499Y-84050262D01*
X70193216Y-84050500D01*
X70306784Y-84050500D01*
X70309501Y-84050262D01*
X70309508Y-84050262D01*
X70377698Y-84044296D01*
X70476692Y-84035635D01*
X70482005Y-84034211D01*
X70482007Y-84034211D01*
X70691186Y-83978162D01*
X70691188Y-83978161D01*
X70696496Y-83976739D01*
X70701478Y-83974416D01*
X70897753Y-83882891D01*
X70897756Y-83882889D01*
X70902734Y-83880568D01*
X71089139Y-83750047D01*
X71250047Y-83589139D01*
X71380568Y-83402734D01*
X71392653Y-83376819D01*
X71474416Y-83201478D01*
X71474417Y-83201476D01*
X71476739Y-83196496D01*
X71517977Y-83042595D01*
X71534211Y-82982007D01*
X71534211Y-82982005D01*
X71535635Y-82976692D01*
X71555468Y-82750000D01*
X71535635Y-82523308D01*
X71520487Y-82466773D01*
X71478162Y-82308814D01*
X71478161Y-82308812D01*
X71476739Y-82303504D01*
X71462666Y-82273324D01*
X71382891Y-82102247D01*
X71382889Y-82102244D01*
X71380568Y-82097266D01*
X71250047Y-81910861D01*
X71089139Y-81749953D01*
X70902734Y-81619432D01*
X70897756Y-81617111D01*
X70897753Y-81617109D01*
X70701478Y-81525584D01*
X70701476Y-81525583D01*
X70696496Y-81523261D01*
X70691188Y-81521839D01*
X70691186Y-81521838D01*
X70482007Y-81465789D01*
X70482005Y-81465789D01*
X70476692Y-81464365D01*
X70377698Y-81455704D01*
X70309508Y-81449738D01*
X70309501Y-81449738D01*
X70306784Y-81449500D01*
X70193216Y-81449500D01*
X70190499Y-81449738D01*
X70190492Y-81449738D01*
X70122302Y-81455704D01*
X70023308Y-81464365D01*
X70017995Y-81465789D01*
X70017993Y-81465789D01*
X69808814Y-81521838D01*
X69808812Y-81521839D01*
X69803504Y-81523261D01*
X69798524Y-81525583D01*
X69798522Y-81525584D01*
X69602247Y-81617109D01*
X69602244Y-81617111D01*
X69597266Y-81619432D01*
X69410861Y-81749953D01*
X69249953Y-81910861D01*
X69119432Y-82097266D01*
X69117111Y-82102244D01*
X69117109Y-82102247D01*
X69037334Y-82273324D01*
X69023261Y-82303504D01*
X69021839Y-82308812D01*
X69021838Y-82308814D01*
X68979513Y-82466773D01*
X68964365Y-82523308D01*
X68944532Y-82750000D01*
X66850000Y-82750000D01*
X66850000Y-78281105D01*
X68524031Y-78281105D01*
X68525805Y-78288492D01*
X68525805Y-78288496D01*
X68551951Y-78397397D01*
X68563612Y-78445968D01*
X68567093Y-78452712D01*
X68567094Y-78452715D01*
X68606862Y-78529764D01*
X68641375Y-78596631D01*
X68646367Y-78602353D01*
X68646368Y-78602355D01*
X68706959Y-78671812D01*
X68752831Y-78724396D01*
X68759045Y-78728763D01*
X68885330Y-78817518D01*
X68885332Y-78817519D01*
X68891547Y-78821887D01*
X69049513Y-78883476D01*
X69057046Y-78884468D01*
X69057047Y-78884468D01*
X69174739Y-78899962D01*
X69178826Y-78900500D01*
X69267516Y-78900500D01*
X69393320Y-78885276D01*
X69506272Y-78842595D01*
X69544820Y-78828029D01*
X69551923Y-78825345D01*
X69691651Y-78729312D01*
X69719380Y-78698190D01*
X69799388Y-78608392D01*
X69799390Y-78608388D01*
X69804440Y-78602721D01*
X69811238Y-78589883D01*
X69880224Y-78459589D01*
X69883776Y-78452881D01*
X69925081Y-78288441D01*
X69925969Y-78118895D01*
X69923981Y-78110612D01*
X69888161Y-77961417D01*
X69886388Y-77954032D01*
X69839390Y-77862974D01*
X69812108Y-77810117D01*
X69812108Y-77810116D01*
X69808625Y-77803369D01*
X69803313Y-77797279D01*
X69720074Y-77701861D01*
X69697169Y-77675604D01*
X69590237Y-77600451D01*
X69564670Y-77582482D01*
X69564668Y-77582481D01*
X69558453Y-77578113D01*
X69400487Y-77516524D01*
X69392954Y-77515532D01*
X69392953Y-77515532D01*
X69275261Y-77500038D01*
X69275260Y-77500038D01*
X69271174Y-77499500D01*
X69182484Y-77499500D01*
X69056680Y-77514724D01*
X68898077Y-77574655D01*
X68758349Y-77670688D01*
X68753297Y-77676358D01*
X68753296Y-77676359D01*
X68650612Y-77791608D01*
X68650610Y-77791612D01*
X68645560Y-77797279D01*
X68642008Y-77803988D01*
X68642007Y-77803989D01*
X68633887Y-77819326D01*
X68566224Y-77947119D01*
X68524919Y-78111559D01*
X68524879Y-78119157D01*
X68524879Y-78119159D01*
X68524591Y-78174142D01*
X68524031Y-78281105D01*
X66850000Y-78281105D01*
X66850000Y-71481105D01*
X68524031Y-71481105D01*
X68563612Y-71645968D01*
X68567093Y-71652712D01*
X68567094Y-71652715D01*
X68606942Y-71729919D01*
X68641375Y-71796631D01*
X68646367Y-71802353D01*
X68646368Y-71802355D01*
X68708808Y-71873931D01*
X68752831Y-71924396D01*
X68801060Y-71958292D01*
X68885330Y-72017518D01*
X68885332Y-72017519D01*
X68891547Y-72021887D01*
X69049513Y-72083476D01*
X69057046Y-72084468D01*
X69057047Y-72084468D01*
X69173235Y-72099764D01*
X69178826Y-72100500D01*
X69267516Y-72100500D01*
X69393320Y-72085276D01*
X69538011Y-72030602D01*
X69544820Y-72028029D01*
X69551923Y-72025345D01*
X69659855Y-71951165D01*
X69685392Y-71933614D01*
X69685393Y-71933613D01*
X69691651Y-71929312D01*
X69696704Y-71923641D01*
X69799388Y-71808392D01*
X69799390Y-71808388D01*
X69804440Y-71802721D01*
X69811238Y-71789883D01*
X69850170Y-71716352D01*
X69883776Y-71652881D01*
X69925081Y-71488441D01*
X69925969Y-71318895D01*
X69911642Y-71259218D01*
X69888161Y-71161417D01*
X69886388Y-71154032D01*
X69878089Y-71137952D01*
X69812108Y-71010117D01*
X69812108Y-71010116D01*
X69808625Y-71003369D01*
X69803416Y-70997397D01*
X69702163Y-70881329D01*
X69697169Y-70875604D01*
X69623603Y-70823901D01*
X69564670Y-70782482D01*
X69564668Y-70782481D01*
X69558453Y-70778113D01*
X69400487Y-70716524D01*
X69392954Y-70715532D01*
X69392953Y-70715532D01*
X69275261Y-70700038D01*
X69275260Y-70700038D01*
X69271174Y-70699500D01*
X69182484Y-70699500D01*
X69056680Y-70714724D01*
X68898077Y-70774655D01*
X68758349Y-70870688D01*
X68753297Y-70876358D01*
X68753296Y-70876359D01*
X68650612Y-70991608D01*
X68650610Y-70991612D01*
X68645560Y-70997279D01*
X68642008Y-71003988D01*
X68642007Y-71003989D01*
X68609746Y-71064920D01*
X68566224Y-71147119D01*
X68524919Y-71311559D01*
X68524879Y-71319157D01*
X68524879Y-71319159D01*
X68524661Y-71360828D01*
X68524031Y-71481105D01*
X66850000Y-71481105D01*
X66850000Y-62368580D01*
X68743752Y-62368580D01*
X68768477Y-62486421D01*
X68771537Y-62496617D01*
X68852263Y-62701029D01*
X68856994Y-62710561D01*
X68971016Y-62898462D01*
X68977280Y-62907052D01*
X69121327Y-63073052D01*
X69128958Y-63080472D01*
X69298911Y-63219826D01*
X69307678Y-63225850D01*
X69464671Y-63315216D01*
X69513977Y-63366298D01*
X69527839Y-63435928D01*
X69501856Y-63501999D01*
X69444276Y-63543534D01*
X69414197Y-63550159D01*
X69405845Y-63550948D01*
X69397278Y-63551758D01*
X69397277Y-63551758D01*
X69389631Y-63552481D01*
X69261816Y-63597366D01*
X69254246Y-63602958D01*
X69254243Y-63602959D01*
X69169794Y-63665335D01*
X69152850Y-63677850D01*
X69147258Y-63685421D01*
X69077959Y-63779243D01*
X69077958Y-63779246D01*
X69072366Y-63786816D01*
X69027481Y-63914631D01*
X69024500Y-63946166D01*
X69024500Y-65253834D01*
X69027481Y-65285369D01*
X69072366Y-65413184D01*
X69077958Y-65420754D01*
X69077959Y-65420757D01*
X69120520Y-65478379D01*
X69152850Y-65522150D01*
X69160421Y-65527742D01*
X69254243Y-65597041D01*
X69254246Y-65597042D01*
X69261816Y-65602634D01*
X69389631Y-65647519D01*
X69397277Y-65648242D01*
X69397278Y-65648242D01*
X69403248Y-65648806D01*
X69421166Y-65650500D01*
X71028834Y-65650500D01*
X71046752Y-65648806D01*
X71052722Y-65648242D01*
X71052723Y-65648242D01*
X71060369Y-65647519D01*
X71188184Y-65602634D01*
X71195754Y-65597042D01*
X71195757Y-65597041D01*
X71289579Y-65527742D01*
X71297150Y-65522150D01*
X71329480Y-65478379D01*
X71372041Y-65420757D01*
X71372042Y-65420754D01*
X71377634Y-65413184D01*
X71422519Y-65285369D01*
X71425500Y-65253834D01*
X71425500Y-63946166D01*
X71422519Y-63914631D01*
X71377634Y-63786816D01*
X71372042Y-63779246D01*
X71372041Y-63779243D01*
X71302742Y-63685421D01*
X71297150Y-63677850D01*
X71280206Y-63665335D01*
X71195757Y-63602959D01*
X71195754Y-63602958D01*
X71188184Y-63597366D01*
X71060369Y-63552481D01*
X71052725Y-63551758D01*
X71052723Y-63551758D01*
X71035658Y-63550145D01*
X70969722Y-63523820D01*
X70928486Y-63466027D01*
X70925041Y-63395114D01*
X70960481Y-63333596D01*
X70995766Y-63309822D01*
X71032970Y-63293063D01*
X71042256Y-63287894D01*
X71224575Y-63165150D01*
X71232870Y-63158481D01*
X71391900Y-63006772D01*
X71398941Y-62998814D01*
X71530141Y-62822475D01*
X71535745Y-62813438D01*
X71573083Y-62740000D01*
X95059534Y-62740000D01*
X95079313Y-62890236D01*
X95137302Y-63030233D01*
X95229549Y-63150451D01*
X95349767Y-63242698D01*
X95489764Y-63300687D01*
X95640000Y-63320466D01*
X95648188Y-63319388D01*
X95679878Y-63315216D01*
X95790236Y-63300687D01*
X95930233Y-63242698D01*
X96050451Y-63150451D01*
X96096995Y-63089794D01*
X96154332Y-63047928D01*
X96196956Y-63040500D01*
X98983044Y-63040500D01*
X99051165Y-63060502D01*
X99083005Y-63089794D01*
X99129549Y-63150451D01*
X99249767Y-63242698D01*
X99389764Y-63300687D01*
X99540000Y-63320466D01*
X99548188Y-63319388D01*
X99579878Y-63315216D01*
X99690236Y-63300687D01*
X99830233Y-63242698D01*
X99950451Y-63150451D01*
X100042698Y-63030233D01*
X100100687Y-62890236D01*
X100120466Y-62740000D01*
X100100687Y-62589764D01*
X100042698Y-62449767D01*
X99950451Y-62329549D01*
X99830233Y-62237302D01*
X99690236Y-62179313D01*
X99542947Y-62159922D01*
X99539953Y-62158598D01*
X99537053Y-62159922D01*
X99389764Y-62179313D01*
X99249767Y-62237302D01*
X99129549Y-62329549D01*
X99083006Y-62390205D01*
X99025668Y-62432072D01*
X98983044Y-62439500D01*
X96196956Y-62439500D01*
X96128835Y-62419498D01*
X96096994Y-62390205D01*
X96050451Y-62329549D01*
X95930233Y-62237302D01*
X95790236Y-62179313D01*
X95640000Y-62159534D01*
X95489764Y-62179313D01*
X95349767Y-62237302D01*
X95229549Y-62329549D01*
X95137302Y-62449767D01*
X95079313Y-62589764D01*
X95059534Y-62740000D01*
X71573083Y-62740000D01*
X71635357Y-62617516D01*
X71639357Y-62607665D01*
X71704534Y-62397760D01*
X71706817Y-62387376D01*
X71708861Y-62371957D01*
X71706665Y-62357793D01*
X71693478Y-62354000D01*
X68758808Y-62354000D01*
X68745277Y-62357973D01*
X68743752Y-62368580D01*
X66850000Y-62368580D01*
X66850000Y-61828043D01*
X68741139Y-61828043D01*
X68743335Y-61842207D01*
X68756522Y-61846000D01*
X69952885Y-61846000D01*
X69968124Y-61841525D01*
X69969329Y-61840135D01*
X69971000Y-61832452D01*
X69971000Y-61827885D01*
X70479000Y-61827885D01*
X70483475Y-61843124D01*
X70484865Y-61844329D01*
X70492548Y-61846000D01*
X71691192Y-61846000D01*
X71704723Y-61842027D01*
X71706248Y-61831420D01*
X71681523Y-61713579D01*
X71678463Y-61703383D01*
X71597737Y-61498971D01*
X71593006Y-61489439D01*
X71478984Y-61301538D01*
X71472720Y-61292948D01*
X71328673Y-61126948D01*
X71321042Y-61119528D01*
X71151089Y-60980174D01*
X71142322Y-60974150D01*
X70951318Y-60865424D01*
X70941654Y-60860959D01*
X70735059Y-60785969D01*
X70724792Y-60783198D01*
X70507345Y-60743877D01*
X70499116Y-60742944D01*
X70494624Y-60742732D01*
X70481876Y-60746475D01*
X70480671Y-60747865D01*
X70479000Y-60755548D01*
X70479000Y-61827885D01*
X69971000Y-61827885D01*
X69971000Y-60764030D01*
X69966690Y-60749352D01*
X69954807Y-60747289D01*
X69850675Y-60756124D01*
X69840203Y-60757914D01*
X69627465Y-60813130D01*
X69617425Y-60816665D01*
X69417030Y-60906937D01*
X69407744Y-60912106D01*
X69225425Y-61034850D01*
X69217130Y-61041519D01*
X69058100Y-61193228D01*
X69051059Y-61201186D01*
X68919859Y-61377525D01*
X68914255Y-61386562D01*
X68814643Y-61582484D01*
X68810643Y-61592335D01*
X68745466Y-61802240D01*
X68743183Y-61812624D01*
X68741139Y-61828043D01*
X66850000Y-61828043D01*
X66850000Y-58230000D01*
X94509534Y-58230000D01*
X94529313Y-58380236D01*
X94587302Y-58520233D01*
X94679549Y-58640451D01*
X94799767Y-58732698D01*
X94939764Y-58790687D01*
X94947952Y-58791765D01*
X95014202Y-58800487D01*
X95090000Y-58810466D01*
X95098188Y-58809388D01*
X95098190Y-58809388D01*
X95165802Y-58800487D01*
X95235951Y-58811427D01*
X95271343Y-58836314D01*
X97940481Y-61505452D01*
X97942237Y-61507486D01*
X97944575Y-61512269D01*
X97953104Y-61520181D01*
X97953105Y-61520182D01*
X97980477Y-61545573D01*
X97983882Y-61548853D01*
X97997277Y-61562248D01*
X98001247Y-61564972D01*
X98003895Y-61567297D01*
X98018119Y-61580492D01*
X98018122Y-61580494D01*
X98026646Y-61588401D01*
X98037450Y-61592711D01*
X98041439Y-61595233D01*
X98052227Y-61600994D01*
X98056552Y-61602911D01*
X98066146Y-61609492D01*
X98077465Y-61612178D01*
X98077467Y-61612179D01*
X98090127Y-61615183D01*
X98107724Y-61620748D01*
X98122362Y-61626588D01*
X98122365Y-61626589D01*
X98130622Y-61629883D01*
X98136915Y-61630500D01*
X98139994Y-61630500D01*
X98143067Y-61630650D01*
X98143056Y-61630866D01*
X98154431Y-61632198D01*
X98163746Y-61632654D01*
X98175066Y-61635340D01*
X98186595Y-61633771D01*
X98186596Y-61633771D01*
X98202173Y-61631651D01*
X98219164Y-61630500D01*
X98983044Y-61630500D01*
X99051165Y-61650502D01*
X99083005Y-61679794D01*
X99129549Y-61740451D01*
X99249767Y-61832698D01*
X99389764Y-61890687D01*
X99397952Y-61891765D01*
X99537053Y-61910078D01*
X99540047Y-61911402D01*
X99542947Y-61910078D01*
X99682048Y-61891765D01*
X99690236Y-61890687D01*
X99830233Y-61832698D01*
X99950451Y-61740451D01*
X100042698Y-61620233D01*
X100100687Y-61480236D01*
X100120466Y-61330000D01*
X100100687Y-61179764D01*
X100042698Y-61039767D01*
X99950451Y-60919549D01*
X99830233Y-60827302D01*
X99690236Y-60769313D01*
X99540000Y-60749534D01*
X99389764Y-60769313D01*
X99249767Y-60827302D01*
X99129549Y-60919549D01*
X99083006Y-60980205D01*
X99025668Y-61022072D01*
X98983044Y-61029500D01*
X98366661Y-61029500D01*
X98298540Y-61009498D01*
X98277566Y-60992595D01*
X95696314Y-58411343D01*
X95662288Y-58349031D01*
X95660487Y-58305802D01*
X95669388Y-58238190D01*
X95669388Y-58238188D01*
X95670466Y-58230000D01*
X95650687Y-58079764D01*
X95592698Y-57939767D01*
X95500451Y-57819549D01*
X95380233Y-57727302D01*
X95240236Y-57669313D01*
X95090000Y-57649534D01*
X94939764Y-57669313D01*
X94799767Y-57727302D01*
X94679549Y-57819549D01*
X94587302Y-57939767D01*
X94529313Y-58079764D01*
X94509534Y-58230000D01*
X66850000Y-58230000D01*
X66850000Y-56500000D01*
X68944532Y-56500000D01*
X68964365Y-56726692D01*
X68965789Y-56732005D01*
X68965789Y-56732007D01*
X68972697Y-56757786D01*
X69023261Y-56946496D01*
X69119432Y-57152734D01*
X69249953Y-57339139D01*
X69410861Y-57500047D01*
X69597266Y-57630568D01*
X69602244Y-57632889D01*
X69602247Y-57632891D01*
X69798522Y-57724416D01*
X69803504Y-57726739D01*
X69808812Y-57728161D01*
X69808814Y-57728162D01*
X70017993Y-57784211D01*
X70017995Y-57784211D01*
X70023308Y-57785635D01*
X70122302Y-57794296D01*
X70190492Y-57800262D01*
X70190499Y-57800262D01*
X70193216Y-57800500D01*
X70306784Y-57800500D01*
X70309501Y-57800262D01*
X70309508Y-57800262D01*
X70377698Y-57794296D01*
X70476692Y-57785635D01*
X70482005Y-57784211D01*
X70482007Y-57784211D01*
X70691186Y-57728162D01*
X70691188Y-57728161D01*
X70696496Y-57726739D01*
X70701478Y-57724416D01*
X70897753Y-57632891D01*
X70897756Y-57632889D01*
X70902734Y-57630568D01*
X71089139Y-57500047D01*
X71250047Y-57339139D01*
X71380568Y-57152734D01*
X71476739Y-56946496D01*
X71527304Y-56757786D01*
X71534211Y-56732007D01*
X71534211Y-56732005D01*
X71535635Y-56726692D01*
X71555468Y-56500000D01*
X71535635Y-56273308D01*
X71534211Y-56267993D01*
X71478162Y-56058814D01*
X71478161Y-56058812D01*
X71476739Y-56053504D01*
X71380568Y-55847266D01*
X71314419Y-55752795D01*
X102190707Y-55752795D01*
X102197463Y-55756000D01*
X103492393Y-55756000D01*
X103507632Y-55751525D01*
X103508837Y-55750135D01*
X103510508Y-55742452D01*
X103510508Y-54970115D01*
X103506033Y-54954876D01*
X103504643Y-54953671D01*
X103496960Y-54952000D01*
X103165384Y-54952000D01*
X103159236Y-54952301D01*
X103014147Y-54966527D01*
X103002112Y-54968910D01*
X102815285Y-55025317D01*
X102803943Y-55029992D01*
X102631629Y-55121612D01*
X102621413Y-55128399D01*
X102470173Y-55251747D01*
X102461469Y-55260391D01*
X102337070Y-55410763D01*
X102330211Y-55420931D01*
X102237387Y-55592607D01*
X102232637Y-55603907D01*
X102190913Y-55738693D01*
X102190707Y-55752795D01*
X71314419Y-55752795D01*
X71250047Y-55660861D01*
X71089139Y-55499953D01*
X70902734Y-55369432D01*
X70897756Y-55367111D01*
X70897753Y-55367109D01*
X70701478Y-55275584D01*
X70701476Y-55275583D01*
X70696496Y-55273261D01*
X70691188Y-55271839D01*
X70691186Y-55271838D01*
X70482007Y-55215789D01*
X70482005Y-55215789D01*
X70476692Y-55214365D01*
X70377698Y-55205704D01*
X70309508Y-55199738D01*
X70309501Y-55199738D01*
X70306784Y-55199500D01*
X70193216Y-55199500D01*
X70190499Y-55199738D01*
X70190492Y-55199738D01*
X70122302Y-55205704D01*
X70023308Y-55214365D01*
X70017995Y-55215789D01*
X70017993Y-55215789D01*
X69808814Y-55271838D01*
X69808812Y-55271839D01*
X69803504Y-55273261D01*
X69798524Y-55275583D01*
X69798522Y-55275584D01*
X69602247Y-55367109D01*
X69602244Y-55367111D01*
X69597266Y-55369432D01*
X69410861Y-55499953D01*
X69249953Y-55660861D01*
X69119432Y-55847266D01*
X69023261Y-56053504D01*
X69021839Y-56058812D01*
X69021838Y-56058814D01*
X68965789Y-56267993D01*
X68964365Y-56273308D01*
X68944532Y-56500000D01*
X66850000Y-56500000D01*
X66850000Y-53976000D01*
X66870002Y-53907879D01*
X66923658Y-53861386D01*
X66976000Y-53850000D01*
X103894000Y-53850000D01*
X103962121Y-53870002D01*
G37*
%TD.AperFunction*%
%TD*%
M02*
