%TF.GenerationSoftware,KiCad,Pcbnew,6.0.2+dfsg-1*%
%TF.CreationDate,2023-04-22T13:44:06+02:00*%
%TF.ProjectId,weather_station,77656174-6865-4725-9f73-746174696f6e,rev?*%
%TF.SameCoordinates,Original*%
%TF.FileFunction,Legend,Top*%
%TF.FilePolarity,Positive*%
%FSLAX46Y46*%
G04 Gerber Fmt 4.6, Leading zero omitted, Abs format (unit mm)*
G04 Created by KiCad (PCBNEW 6.0.2+dfsg-1) date 2023-04-22 13:44:06*
%MOMM*%
%LPD*%
G01*
G04 APERTURE LIST*
%ADD10C,0.100000*%
%ADD11C,0.150000*%
%ADD12C,0.120000*%
%ADD13C,0.249999*%
%ADD14C,0.127000*%
%ADD15C,0.300000*%
%ADD16C,0.250000*%
%ADD17C,0.200000*%
G04 APERTURE END LIST*
D10*
X91082857Y-80631785D02*
X91261428Y-81381785D01*
X91404285Y-80846071D01*
X91547142Y-81381785D01*
X91725714Y-80631785D01*
X92297142Y-81346071D02*
X92225714Y-81381785D01*
X92082857Y-81381785D01*
X92011428Y-81346071D01*
X91975714Y-81274642D01*
X91975714Y-80988928D01*
X92011428Y-80917500D01*
X92082857Y-80881785D01*
X92225714Y-80881785D01*
X92297142Y-80917500D01*
X92332857Y-80988928D01*
X92332857Y-81060357D01*
X91975714Y-81131785D01*
X92975714Y-81381785D02*
X92975714Y-80988928D01*
X92940000Y-80917500D01*
X92868571Y-80881785D01*
X92725714Y-80881785D01*
X92654285Y-80917500D01*
X92975714Y-81346071D02*
X92904285Y-81381785D01*
X92725714Y-81381785D01*
X92654285Y-81346071D01*
X92618571Y-81274642D01*
X92618571Y-81203214D01*
X92654285Y-81131785D01*
X92725714Y-81096071D01*
X92904285Y-81096071D01*
X92975714Y-81060357D01*
X93225714Y-80881785D02*
X93511428Y-80881785D01*
X93332857Y-80631785D02*
X93332857Y-81274642D01*
X93368571Y-81346071D01*
X93440000Y-81381785D01*
X93511428Y-81381785D01*
X93761428Y-81381785D02*
X93761428Y-80631785D01*
X94082857Y-81381785D02*
X94082857Y-80988928D01*
X94047142Y-80917500D01*
X93975714Y-80881785D01*
X93868571Y-80881785D01*
X93797142Y-80917500D01*
X93761428Y-80953214D01*
X94725714Y-81346071D02*
X94654285Y-81381785D01*
X94511428Y-81381785D01*
X94440000Y-81346071D01*
X94404285Y-81274642D01*
X94404285Y-80988928D01*
X94440000Y-80917500D01*
X94511428Y-80881785D01*
X94654285Y-80881785D01*
X94725714Y-80917500D01*
X94761428Y-80988928D01*
X94761428Y-81060357D01*
X94404285Y-81131785D01*
X95082857Y-81381785D02*
X95082857Y-80881785D01*
X95082857Y-81024642D02*
X95118571Y-80953214D01*
X95154285Y-80917500D01*
X95225714Y-80881785D01*
X95297142Y-80881785D01*
X96082857Y-81346071D02*
X96190000Y-81381785D01*
X96368571Y-81381785D01*
X96440000Y-81346071D01*
X96475714Y-81310357D01*
X96511428Y-81238928D01*
X96511428Y-81167500D01*
X96475714Y-81096071D01*
X96440000Y-81060357D01*
X96368571Y-81024642D01*
X96225714Y-80988928D01*
X96154285Y-80953214D01*
X96118571Y-80917500D01*
X96082857Y-80846071D01*
X96082857Y-80774642D01*
X96118571Y-80703214D01*
X96154285Y-80667500D01*
X96225714Y-80631785D01*
X96404285Y-80631785D01*
X96511428Y-80667500D01*
X96725714Y-80881785D02*
X97011428Y-80881785D01*
X96832857Y-80631785D02*
X96832857Y-81274642D01*
X96868571Y-81346071D01*
X96940000Y-81381785D01*
X97011428Y-81381785D01*
X97582857Y-81381785D02*
X97582857Y-80988928D01*
X97547142Y-80917500D01*
X97475714Y-80881785D01*
X97332857Y-80881785D01*
X97261428Y-80917500D01*
X97582857Y-81346071D02*
X97511428Y-81381785D01*
X97332857Y-81381785D01*
X97261428Y-81346071D01*
X97225714Y-81274642D01*
X97225714Y-81203214D01*
X97261428Y-81131785D01*
X97332857Y-81096071D01*
X97511428Y-81096071D01*
X97582857Y-81060357D01*
X97832857Y-80881785D02*
X98118571Y-80881785D01*
X97940000Y-80631785D02*
X97940000Y-81274642D01*
X97975714Y-81346071D01*
X98047142Y-81381785D01*
X98118571Y-81381785D01*
X98368571Y-81381785D02*
X98368571Y-80881785D01*
X98368571Y-80631785D02*
X98332857Y-80667500D01*
X98368571Y-80703214D01*
X98404285Y-80667500D01*
X98368571Y-80631785D01*
X98368571Y-80703214D01*
X98832857Y-81381785D02*
X98761428Y-81346071D01*
X98725714Y-81310357D01*
X98690000Y-81238928D01*
X98690000Y-81024642D01*
X98725714Y-80953214D01*
X98761428Y-80917500D01*
X98832857Y-80881785D01*
X98940000Y-80881785D01*
X99011428Y-80917500D01*
X99047142Y-80953214D01*
X99082857Y-81024642D01*
X99082857Y-81238928D01*
X99047142Y-81310357D01*
X99011428Y-81346071D01*
X98940000Y-81381785D01*
X98832857Y-81381785D01*
X99404285Y-80881785D02*
X99404285Y-81381785D01*
X99404285Y-80953214D02*
X99440000Y-80917500D01*
X99511428Y-80881785D01*
X99618571Y-80881785D01*
X99690000Y-80917500D01*
X99725714Y-80988928D01*
X99725714Y-81381785D01*
X91582857Y-81839285D02*
X91582857Y-82375000D01*
X91547142Y-82482142D01*
X91475714Y-82553571D01*
X91368571Y-82589285D01*
X91297142Y-82589285D01*
X92261428Y-82589285D02*
X92261428Y-82196428D01*
X92225714Y-82125000D01*
X92154285Y-82089285D01*
X92011428Y-82089285D01*
X91940000Y-82125000D01*
X92261428Y-82553571D02*
X92190000Y-82589285D01*
X92011428Y-82589285D01*
X91940000Y-82553571D01*
X91904285Y-82482142D01*
X91904285Y-82410714D01*
X91940000Y-82339285D01*
X92011428Y-82303571D01*
X92190000Y-82303571D01*
X92261428Y-82267857D01*
X92618571Y-82589285D02*
X92618571Y-81839285D01*
X92690000Y-82303571D02*
X92904285Y-82589285D01*
X92904285Y-82089285D02*
X92618571Y-82375000D01*
X93547142Y-82089285D02*
X93547142Y-82589285D01*
X93225714Y-82089285D02*
X93225714Y-82482142D01*
X93261428Y-82553571D01*
X93332857Y-82589285D01*
X93440000Y-82589285D01*
X93511428Y-82553571D01*
X93547142Y-82517857D01*
X93904285Y-82589285D02*
X93904285Y-81839285D01*
X93904285Y-82125000D02*
X93975714Y-82089285D01*
X94118571Y-82089285D01*
X94190000Y-82125000D01*
X94225714Y-82160714D01*
X94261428Y-82232142D01*
X94261428Y-82446428D01*
X94225714Y-82517857D01*
X94190000Y-82553571D01*
X94118571Y-82589285D01*
X93975714Y-82589285D01*
X93904285Y-82553571D01*
X95547142Y-81875000D02*
X95475714Y-81839285D01*
X95368571Y-81839285D01*
X95261428Y-81875000D01*
X95190000Y-81946428D01*
X95154285Y-82017857D01*
X95118571Y-82160714D01*
X95118571Y-82267857D01*
X95154285Y-82410714D01*
X95190000Y-82482142D01*
X95261428Y-82553571D01*
X95368571Y-82589285D01*
X95440000Y-82589285D01*
X95547142Y-82553571D01*
X95582857Y-82517857D01*
X95582857Y-82267857D01*
X95440000Y-82267857D01*
X95904285Y-82589285D02*
X95904285Y-82089285D01*
X95904285Y-82232142D02*
X95940000Y-82160714D01*
X95975714Y-82125000D01*
X96047142Y-82089285D01*
X96118571Y-82089285D01*
X96297142Y-82089285D02*
X96690000Y-82089285D01*
X96297142Y-82589285D01*
X96690000Y-82589285D01*
X97261428Y-82553571D02*
X97190000Y-82589285D01*
X97047142Y-82589285D01*
X96975714Y-82553571D01*
X96940000Y-82482142D01*
X96940000Y-82196428D01*
X96975714Y-82125000D01*
X97047142Y-82089285D01*
X97190000Y-82089285D01*
X97261428Y-82125000D01*
X97297142Y-82196428D01*
X97297142Y-82267857D01*
X96940000Y-82339285D01*
X97582857Y-82553571D02*
X97654285Y-82589285D01*
X97797142Y-82589285D01*
X97868571Y-82553571D01*
X97904285Y-82482142D01*
X97904285Y-82446428D01*
X97868571Y-82375000D01*
X97797142Y-82339285D01*
X97690000Y-82339285D01*
X97618571Y-82303571D01*
X97582857Y-82232142D01*
X97582857Y-82196428D01*
X97618571Y-82125000D01*
X97690000Y-82089285D01*
X97797142Y-82089285D01*
X97868571Y-82125000D01*
X98225714Y-82589285D02*
X98225714Y-82089285D01*
X98225714Y-81839285D02*
X98190000Y-81875000D01*
X98225714Y-81910714D01*
X98261428Y-81875000D01*
X98225714Y-81839285D01*
X98225714Y-81910714D01*
X98904285Y-82589285D02*
X98904285Y-82196428D01*
X98868571Y-82125000D01*
X98797142Y-82089285D01*
X98654285Y-82089285D01*
X98582857Y-82125000D01*
X98904285Y-82553571D02*
X98832857Y-82589285D01*
X98654285Y-82589285D01*
X98582857Y-82553571D01*
X98547142Y-82482142D01*
X98547142Y-82410714D01*
X98582857Y-82339285D01*
X98654285Y-82303571D01*
X98832857Y-82303571D01*
X98904285Y-82267857D01*
X99261428Y-82589285D02*
X99261428Y-81839285D01*
X99332857Y-82303571D02*
X99547142Y-82589285D01*
X99547142Y-82089285D02*
X99261428Y-82375000D01*
X92332857Y-83118214D02*
X92368571Y-83082500D01*
X92440000Y-83046785D01*
X92618571Y-83046785D01*
X92690000Y-83082500D01*
X92725714Y-83118214D01*
X92761428Y-83189642D01*
X92761428Y-83261071D01*
X92725714Y-83368214D01*
X92297142Y-83796785D01*
X92761428Y-83796785D01*
X93225714Y-83046785D02*
X93297142Y-83046785D01*
X93368571Y-83082500D01*
X93404285Y-83118214D01*
X93440000Y-83189642D01*
X93475714Y-83332500D01*
X93475714Y-83511071D01*
X93440000Y-83653928D01*
X93404285Y-83725357D01*
X93368571Y-83761071D01*
X93297142Y-83796785D01*
X93225714Y-83796785D01*
X93154285Y-83761071D01*
X93118571Y-83725357D01*
X93082857Y-83653928D01*
X93047142Y-83511071D01*
X93047142Y-83332500D01*
X93082857Y-83189642D01*
X93118571Y-83118214D01*
X93154285Y-83082500D01*
X93225714Y-83046785D01*
X93761428Y-83118214D02*
X93797142Y-83082500D01*
X93868571Y-83046785D01*
X94047142Y-83046785D01*
X94118571Y-83082500D01*
X94154285Y-83118214D01*
X94190000Y-83189642D01*
X94190000Y-83261071D01*
X94154285Y-83368214D01*
X93725714Y-83796785D01*
X94190000Y-83796785D01*
X94475714Y-83118214D02*
X94511428Y-83082500D01*
X94582857Y-83046785D01*
X94761428Y-83046785D01*
X94832857Y-83082500D01*
X94868571Y-83118214D01*
X94904285Y-83189642D01*
X94904285Y-83261071D01*
X94868571Y-83368214D01*
X94440000Y-83796785D01*
X94904285Y-83796785D01*
X95761428Y-83011071D02*
X95118571Y-83975357D01*
X95975714Y-83118214D02*
X96011428Y-83082500D01*
X96082857Y-83046785D01*
X96261428Y-83046785D01*
X96332857Y-83082500D01*
X96368571Y-83118214D01*
X96404285Y-83189642D01*
X96404285Y-83261071D01*
X96368571Y-83368214D01*
X95940000Y-83796785D01*
X96404285Y-83796785D01*
X96868571Y-83046785D02*
X96940000Y-83046785D01*
X97011428Y-83082500D01*
X97047142Y-83118214D01*
X97082857Y-83189642D01*
X97118571Y-83332500D01*
X97118571Y-83511071D01*
X97082857Y-83653928D01*
X97047142Y-83725357D01*
X97011428Y-83761071D01*
X96940000Y-83796785D01*
X96868571Y-83796785D01*
X96797142Y-83761071D01*
X96761428Y-83725357D01*
X96725714Y-83653928D01*
X96690000Y-83511071D01*
X96690000Y-83332500D01*
X96725714Y-83189642D01*
X96761428Y-83118214D01*
X96797142Y-83082500D01*
X96868571Y-83046785D01*
X97404285Y-83118214D02*
X97440000Y-83082500D01*
X97511428Y-83046785D01*
X97690000Y-83046785D01*
X97761428Y-83082500D01*
X97797142Y-83118214D01*
X97832857Y-83189642D01*
X97832857Y-83261071D01*
X97797142Y-83368214D01*
X97368571Y-83796785D01*
X97832857Y-83796785D01*
X98082857Y-83046785D02*
X98547142Y-83046785D01*
X98297142Y-83332500D01*
X98404285Y-83332500D01*
X98475714Y-83368214D01*
X98511428Y-83403928D01*
X98547142Y-83475357D01*
X98547142Y-83653928D01*
X98511428Y-83725357D01*
X98475714Y-83761071D01*
X98404285Y-83796785D01*
X98190000Y-83796785D01*
X98118571Y-83761071D01*
X98082857Y-83725357D01*
D11*
%TO.C,J3*%
X104026666Y-70017380D02*
X104026666Y-70731666D01*
X103979047Y-70874523D01*
X103883809Y-70969761D01*
X103740952Y-71017380D01*
X103645714Y-71017380D01*
X104407619Y-70017380D02*
X105026666Y-70017380D01*
X104693333Y-70398333D01*
X104836190Y-70398333D01*
X104931428Y-70445952D01*
X104979047Y-70493571D01*
X105026666Y-70588809D01*
X105026666Y-70826904D01*
X104979047Y-70922142D01*
X104931428Y-70969761D01*
X104836190Y-71017380D01*
X104550476Y-71017380D01*
X104455238Y-70969761D01*
X104407619Y-70922142D01*
%TO.C,L2*%
X76708333Y-67852380D02*
X76232142Y-67852380D01*
X76232142Y-66852380D01*
X76994047Y-66947619D02*
X77041666Y-66900000D01*
X77136904Y-66852380D01*
X77375000Y-66852380D01*
X77470238Y-66900000D01*
X77517857Y-66947619D01*
X77565476Y-67042857D01*
X77565476Y-67138095D01*
X77517857Y-67280952D01*
X76946428Y-67852380D01*
X77565476Y-67852380D01*
X80561700Y-65282380D02*
X80561700Y-65520476D01*
X80323604Y-65425238D02*
X80561700Y-65520476D01*
X80799795Y-65425238D01*
X80418842Y-65710952D02*
X80561700Y-65520476D01*
X80704557Y-65710952D01*
%TO.C,C2*%
X110572142Y-73721665D02*
X110619761Y-73769284D01*
X110667380Y-73912141D01*
X110667380Y-74007379D01*
X110619761Y-74150237D01*
X110524523Y-74245475D01*
X110429285Y-74293094D01*
X110238809Y-74340713D01*
X110095952Y-74340713D01*
X109905476Y-74293094D01*
X109810238Y-74245475D01*
X109715000Y-74150237D01*
X109667380Y-74007379D01*
X109667380Y-73912141D01*
X109715000Y-73769284D01*
X109762619Y-73721665D01*
X109762619Y-73340713D02*
X109715000Y-73293094D01*
X109667380Y-73197856D01*
X109667380Y-72959760D01*
X109715000Y-72864522D01*
X109762619Y-72816903D01*
X109857857Y-72769284D01*
X109953095Y-72769284D01*
X110095952Y-72816903D01*
X110667380Y-73388332D01*
X110667380Y-72769284D01*
%TO.C,U1*%
X137413095Y-55452380D02*
X137413095Y-56261904D01*
X137460714Y-56357142D01*
X137508333Y-56404761D01*
X137603571Y-56452380D01*
X137794047Y-56452380D01*
X137889285Y-56404761D01*
X137936904Y-56357142D01*
X137984523Y-56261904D01*
X137984523Y-55452380D01*
X138984523Y-56452380D02*
X138413095Y-56452380D01*
X138698809Y-56452380D02*
X138698809Y-55452380D01*
X138603571Y-55595238D01*
X138508333Y-55690476D01*
X138413095Y-55738095D01*
%TO.C,R5*%
X115572380Y-84571666D02*
X115096190Y-84905000D01*
X115572380Y-85143095D02*
X114572380Y-85143095D01*
X114572380Y-84762142D01*
X114620000Y-84666904D01*
X114667619Y-84619285D01*
X114762857Y-84571666D01*
X114905714Y-84571666D01*
X115000952Y-84619285D01*
X115048571Y-84666904D01*
X115096190Y-84762142D01*
X115096190Y-85143095D01*
X114572380Y-83666904D02*
X114572380Y-84143095D01*
X115048571Y-84190714D01*
X115000952Y-84143095D01*
X114953333Y-84047857D01*
X114953333Y-83809761D01*
X115000952Y-83714523D01*
X115048571Y-83666904D01*
X115143809Y-83619285D01*
X115381904Y-83619285D01*
X115477142Y-83666904D01*
X115524761Y-83714523D01*
X115572380Y-83809761D01*
X115572380Y-84047857D01*
X115524761Y-84143095D01*
X115477142Y-84190714D01*
%TO.C,R16*%
X88782142Y-74062380D02*
X88448809Y-73586190D01*
X88210714Y-74062380D02*
X88210714Y-73062380D01*
X88591666Y-73062380D01*
X88686904Y-73110000D01*
X88734523Y-73157619D01*
X88782142Y-73252857D01*
X88782142Y-73395714D01*
X88734523Y-73490952D01*
X88686904Y-73538571D01*
X88591666Y-73586190D01*
X88210714Y-73586190D01*
X89734523Y-74062380D02*
X89163095Y-74062380D01*
X89448809Y-74062380D02*
X89448809Y-73062380D01*
X89353571Y-73205238D01*
X89258333Y-73300476D01*
X89163095Y-73348095D01*
X90591666Y-73062380D02*
X90401190Y-73062380D01*
X90305952Y-73110000D01*
X90258333Y-73157619D01*
X90163095Y-73300476D01*
X90115476Y-73490952D01*
X90115476Y-73871904D01*
X90163095Y-73967142D01*
X90210714Y-74014761D01*
X90305952Y-74062380D01*
X90496428Y-74062380D01*
X90591666Y-74014761D01*
X90639285Y-73967142D01*
X90686904Y-73871904D01*
X90686904Y-73633809D01*
X90639285Y-73538571D01*
X90591666Y-73490952D01*
X90496428Y-73443333D01*
X90305952Y-73443333D01*
X90210714Y-73490952D01*
X90163095Y-73538571D01*
X90115476Y-73633809D01*
%TO.C,C8*%
X101877142Y-78171666D02*
X101924761Y-78219285D01*
X101972380Y-78362142D01*
X101972380Y-78457380D01*
X101924761Y-78600238D01*
X101829523Y-78695476D01*
X101734285Y-78743095D01*
X101543809Y-78790714D01*
X101400952Y-78790714D01*
X101210476Y-78743095D01*
X101115238Y-78695476D01*
X101020000Y-78600238D01*
X100972380Y-78457380D01*
X100972380Y-78362142D01*
X101020000Y-78219285D01*
X101067619Y-78171666D01*
X101400952Y-77600238D02*
X101353333Y-77695476D01*
X101305714Y-77743095D01*
X101210476Y-77790714D01*
X101162857Y-77790714D01*
X101067619Y-77743095D01*
X101020000Y-77695476D01*
X100972380Y-77600238D01*
X100972380Y-77409761D01*
X101020000Y-77314523D01*
X101067619Y-77266904D01*
X101162857Y-77219285D01*
X101210476Y-77219285D01*
X101305714Y-77266904D01*
X101353333Y-77314523D01*
X101400952Y-77409761D01*
X101400952Y-77600238D01*
X101448571Y-77695476D01*
X101496190Y-77743095D01*
X101591428Y-77790714D01*
X101781904Y-77790714D01*
X101877142Y-77743095D01*
X101924761Y-77695476D01*
X101972380Y-77600238D01*
X101972380Y-77409761D01*
X101924761Y-77314523D01*
X101877142Y-77266904D01*
X101781904Y-77219285D01*
X101591428Y-77219285D01*
X101496190Y-77266904D01*
X101448571Y-77314523D01*
X101400952Y-77409761D01*
%TO.C,C7*%
X112385833Y-64352143D02*
X112338214Y-64399762D01*
X112195357Y-64447381D01*
X112100119Y-64447381D01*
X111957261Y-64399762D01*
X111862023Y-64304524D01*
X111814404Y-64209286D01*
X111766785Y-64018810D01*
X111766785Y-63875953D01*
X111814404Y-63685477D01*
X111862023Y-63590239D01*
X111957261Y-63495001D01*
X112100119Y-63447381D01*
X112195357Y-63447381D01*
X112338214Y-63495001D01*
X112385833Y-63542620D01*
X112719166Y-63447381D02*
X113385833Y-63447381D01*
X112957261Y-64447381D01*
%TO.C,C12*%
X128832142Y-56557142D02*
X128784523Y-56604761D01*
X128641666Y-56652380D01*
X128546428Y-56652380D01*
X128403571Y-56604761D01*
X128308333Y-56509523D01*
X128260714Y-56414285D01*
X128213095Y-56223809D01*
X128213095Y-56080952D01*
X128260714Y-55890476D01*
X128308333Y-55795238D01*
X128403571Y-55700000D01*
X128546428Y-55652380D01*
X128641666Y-55652380D01*
X128784523Y-55700000D01*
X128832142Y-55747619D01*
X129784523Y-56652380D02*
X129213095Y-56652380D01*
X129498809Y-56652380D02*
X129498809Y-55652380D01*
X129403571Y-55795238D01*
X129308333Y-55890476D01*
X129213095Y-55938095D01*
X130165476Y-55747619D02*
X130213095Y-55700000D01*
X130308333Y-55652380D01*
X130546428Y-55652380D01*
X130641666Y-55700000D01*
X130689285Y-55747619D01*
X130736904Y-55842857D01*
X130736904Y-55938095D01*
X130689285Y-56080952D01*
X130117857Y-56652380D01*
X130736904Y-56652380D01*
%TO.C,C5*%
X123333333Y-64382142D02*
X123285714Y-64429761D01*
X123142857Y-64477380D01*
X123047619Y-64477380D01*
X122904761Y-64429761D01*
X122809523Y-64334523D01*
X122761904Y-64239285D01*
X122714285Y-64048809D01*
X122714285Y-63905952D01*
X122761904Y-63715476D01*
X122809523Y-63620238D01*
X122904761Y-63525000D01*
X123047619Y-63477380D01*
X123142857Y-63477380D01*
X123285714Y-63525000D01*
X123333333Y-63572619D01*
X124238095Y-63477380D02*
X123761904Y-63477380D01*
X123714285Y-63953571D01*
X123761904Y-63905952D01*
X123857142Y-63858333D01*
X124095238Y-63858333D01*
X124190476Y-63905952D01*
X124238095Y-63953571D01*
X124285714Y-64048809D01*
X124285714Y-64286904D01*
X124238095Y-64382142D01*
X124190476Y-64429761D01*
X124095238Y-64477380D01*
X123857142Y-64477380D01*
X123761904Y-64429761D01*
X123714285Y-64382142D01*
%TO.C,R14*%
X128544642Y-76134880D02*
X128211309Y-75658690D01*
X127973214Y-76134880D02*
X127973214Y-75134880D01*
X128354166Y-75134880D01*
X128449404Y-75182500D01*
X128497023Y-75230119D01*
X128544642Y-75325357D01*
X128544642Y-75468214D01*
X128497023Y-75563452D01*
X128449404Y-75611071D01*
X128354166Y-75658690D01*
X127973214Y-75658690D01*
X129497023Y-76134880D02*
X128925595Y-76134880D01*
X129211309Y-76134880D02*
X129211309Y-75134880D01*
X129116071Y-75277738D01*
X129020833Y-75372976D01*
X128925595Y-75420595D01*
X130354166Y-75468214D02*
X130354166Y-76134880D01*
X130116071Y-75087261D02*
X129877976Y-75801547D01*
X130497023Y-75801547D01*
%TO.C,U7*%
X83726780Y-79986904D02*
X84536304Y-79986904D01*
X84631542Y-79939285D01*
X84679161Y-79891666D01*
X84726780Y-79796428D01*
X84726780Y-79605952D01*
X84679161Y-79510714D01*
X84631542Y-79463095D01*
X84536304Y-79415476D01*
X83726780Y-79415476D01*
X83726780Y-79034523D02*
X83726780Y-78367857D01*
X84726780Y-78796428D01*
X82084400Y-78727380D02*
X82084400Y-78965476D01*
X81846304Y-78870238D02*
X82084400Y-78965476D01*
X82322495Y-78870238D01*
X81941542Y-79155952D02*
X82084400Y-78965476D01*
X82227257Y-79155952D01*
%TO.C,L1*%
X76550633Y-84802380D02*
X76074442Y-84802380D01*
X76074442Y-83802380D01*
X77407776Y-84802380D02*
X76836347Y-84802380D01*
X77122061Y-84802380D02*
X77122061Y-83802380D01*
X77026823Y-83945238D01*
X76931585Y-84040476D01*
X76836347Y-84088095D01*
X80341700Y-82247380D02*
X80341700Y-82485476D01*
X80103604Y-82390238D02*
X80341700Y-82485476D01*
X80579795Y-82390238D01*
X80198842Y-82675952D02*
X80341700Y-82485476D01*
X80484557Y-82675952D01*
%TO.C,U4*%
X125290595Y-57602380D02*
X125290595Y-58411904D01*
X125338214Y-58507142D01*
X125385833Y-58554761D01*
X125481071Y-58602380D01*
X125671547Y-58602380D01*
X125766785Y-58554761D01*
X125814404Y-58507142D01*
X125862023Y-58411904D01*
X125862023Y-57602380D01*
X126766785Y-57935714D02*
X126766785Y-58602380D01*
X126528690Y-57554761D02*
X126290595Y-58269047D01*
X126909642Y-58269047D01*
%TO.C,R8*%
X134443333Y-75822380D02*
X134110000Y-75346190D01*
X133871904Y-75822380D02*
X133871904Y-74822380D01*
X134252857Y-74822380D01*
X134348095Y-74870000D01*
X134395714Y-74917619D01*
X134443333Y-75012857D01*
X134443333Y-75155714D01*
X134395714Y-75250952D01*
X134348095Y-75298571D01*
X134252857Y-75346190D01*
X133871904Y-75346190D01*
X135014761Y-75250952D02*
X134919523Y-75203333D01*
X134871904Y-75155714D01*
X134824285Y-75060476D01*
X134824285Y-75012857D01*
X134871904Y-74917619D01*
X134919523Y-74870000D01*
X135014761Y-74822380D01*
X135205238Y-74822380D01*
X135300476Y-74870000D01*
X135348095Y-74917619D01*
X135395714Y-75012857D01*
X135395714Y-75060476D01*
X135348095Y-75155714D01*
X135300476Y-75203333D01*
X135205238Y-75250952D01*
X135014761Y-75250952D01*
X134919523Y-75298571D01*
X134871904Y-75346190D01*
X134824285Y-75441428D01*
X134824285Y-75631904D01*
X134871904Y-75727142D01*
X134919523Y-75774761D01*
X135014761Y-75822380D01*
X135205238Y-75822380D01*
X135300476Y-75774761D01*
X135348095Y-75727142D01*
X135395714Y-75631904D01*
X135395714Y-75441428D01*
X135348095Y-75346190D01*
X135300476Y-75298571D01*
X135205238Y-75250952D01*
%TO.C,R6*%
X117922380Y-84571666D02*
X117446190Y-84905000D01*
X117922380Y-85143095D02*
X116922380Y-85143095D01*
X116922380Y-84762142D01*
X116970000Y-84666904D01*
X117017619Y-84619285D01*
X117112857Y-84571666D01*
X117255714Y-84571666D01*
X117350952Y-84619285D01*
X117398571Y-84666904D01*
X117446190Y-84762142D01*
X117446190Y-85143095D01*
X116922380Y-83714523D02*
X116922380Y-83905000D01*
X116970000Y-84000238D01*
X117017619Y-84047857D01*
X117160476Y-84143095D01*
X117350952Y-84190714D01*
X117731904Y-84190714D01*
X117827142Y-84143095D01*
X117874761Y-84095476D01*
X117922380Y-84000238D01*
X117922380Y-83809761D01*
X117874761Y-83714523D01*
X117827142Y-83666904D01*
X117731904Y-83619285D01*
X117493809Y-83619285D01*
X117398571Y-83666904D01*
X117350952Y-83714523D01*
X117303333Y-83809761D01*
X117303333Y-84000238D01*
X117350952Y-84095476D01*
X117398571Y-84143095D01*
X117493809Y-84190714D01*
%TO.C,J2*%
X147666666Y-77702380D02*
X147666666Y-78416666D01*
X147619047Y-78559523D01*
X147523809Y-78654761D01*
X147380952Y-78702380D01*
X147285714Y-78702380D01*
X148095238Y-77797619D02*
X148142857Y-77750000D01*
X148238095Y-77702380D01*
X148476190Y-77702380D01*
X148571428Y-77750000D01*
X148619047Y-77797619D01*
X148666666Y-77892857D01*
X148666666Y-77988095D01*
X148619047Y-78130952D01*
X148047619Y-78702380D01*
X148666666Y-78702380D01*
%TO.C,U2*%
X94898095Y-53992380D02*
X94898095Y-54801904D01*
X94945714Y-54897142D01*
X94993333Y-54944761D01*
X95088571Y-54992380D01*
X95279047Y-54992380D01*
X95374285Y-54944761D01*
X95421904Y-54897142D01*
X95469523Y-54801904D01*
X95469523Y-53992380D01*
X95898095Y-54087619D02*
X95945714Y-54040000D01*
X96040952Y-53992380D01*
X96279047Y-53992380D01*
X96374285Y-54040000D01*
X96421904Y-54087619D01*
X96469523Y-54182857D01*
X96469523Y-54278095D01*
X96421904Y-54420952D01*
X95850476Y-54992380D01*
X96469523Y-54992380D01*
%TO.C,R7*%
X113468333Y-62047381D02*
X113135000Y-61571191D01*
X112896904Y-62047381D02*
X112896904Y-61047381D01*
X113277857Y-61047381D01*
X113373095Y-61095001D01*
X113420714Y-61142620D01*
X113468333Y-61237858D01*
X113468333Y-61380715D01*
X113420714Y-61475953D01*
X113373095Y-61523572D01*
X113277857Y-61571191D01*
X112896904Y-61571191D01*
X113801666Y-61047381D02*
X114468333Y-61047381D01*
X114039761Y-62047381D01*
%TO.C,M1*%
X72690476Y-55202380D02*
X72690476Y-54202380D01*
X73023809Y-54916666D01*
X73357142Y-54202380D01*
X73357142Y-55202380D01*
X74357142Y-55202380D02*
X73785714Y-55202380D01*
X74071428Y-55202380D02*
X74071428Y-54202380D01*
X73976190Y-54345238D01*
X73880952Y-54440476D01*
X73785714Y-54488095D01*
%TO.C,U6*%
X99421305Y-54457380D02*
X99421305Y-55266904D01*
X99468924Y-55362142D01*
X99516543Y-55409761D01*
X99611781Y-55457380D01*
X99802257Y-55457380D01*
X99897495Y-55409761D01*
X99945114Y-55362142D01*
X99992733Y-55266904D01*
X99992733Y-54457380D01*
X100897495Y-54457380D02*
X100707019Y-54457380D01*
X100611781Y-54505000D01*
X100564162Y-54552619D01*
X100468924Y-54695476D01*
X100421305Y-54885952D01*
X100421305Y-55266904D01*
X100468924Y-55362142D01*
X100516543Y-55409761D01*
X100611781Y-55457380D01*
X100802257Y-55457380D01*
X100897495Y-55409761D01*
X100945114Y-55362142D01*
X100992733Y-55266904D01*
X100992733Y-55028809D01*
X100945114Y-54933571D01*
X100897495Y-54885952D01*
X100802257Y-54838333D01*
X100611781Y-54838333D01*
X100516543Y-54885952D01*
X100468924Y-54933571D01*
X100421305Y-55028809D01*
%TO.C,D2*%
X94831904Y-78762380D02*
X94831904Y-77762380D01*
X95070000Y-77762380D01*
X95212857Y-77810000D01*
X95308095Y-77905238D01*
X95355714Y-78000476D01*
X95403333Y-78190952D01*
X95403333Y-78333809D01*
X95355714Y-78524285D01*
X95308095Y-78619523D01*
X95212857Y-78714761D01*
X95070000Y-78762380D01*
X94831904Y-78762380D01*
X95784285Y-77857619D02*
X95831904Y-77810000D01*
X95927142Y-77762380D01*
X96165238Y-77762380D01*
X96260476Y-77810000D01*
X96308095Y-77857619D01*
X96355714Y-77952857D01*
X96355714Y-78048095D01*
X96308095Y-78190952D01*
X95736666Y-78762380D01*
X96355714Y-78762380D01*
%TO.C,C11*%
X108377142Y-79742857D02*
X108424761Y-79790476D01*
X108472380Y-79933333D01*
X108472380Y-80028571D01*
X108424761Y-80171428D01*
X108329523Y-80266666D01*
X108234285Y-80314285D01*
X108043809Y-80361904D01*
X107900952Y-80361904D01*
X107710476Y-80314285D01*
X107615238Y-80266666D01*
X107520000Y-80171428D01*
X107472380Y-80028571D01*
X107472380Y-79933333D01*
X107520000Y-79790476D01*
X107567619Y-79742857D01*
X108472380Y-78790476D02*
X108472380Y-79361904D01*
X108472380Y-79076190D02*
X107472380Y-79076190D01*
X107615238Y-79171428D01*
X107710476Y-79266666D01*
X107758095Y-79361904D01*
X108472380Y-77838095D02*
X108472380Y-78409523D01*
X108472380Y-78123809D02*
X107472380Y-78123809D01*
X107615238Y-78219047D01*
X107710476Y-78314285D01*
X107758095Y-78409523D01*
%TO.C,U8*%
X94863095Y-69212380D02*
X94863095Y-70021904D01*
X94910714Y-70117142D01*
X94958333Y-70164761D01*
X95053571Y-70212380D01*
X95244047Y-70212380D01*
X95339285Y-70164761D01*
X95386904Y-70117142D01*
X95434523Y-70021904D01*
X95434523Y-69212380D01*
X96053571Y-69640952D02*
X95958333Y-69593333D01*
X95910714Y-69545714D01*
X95863095Y-69450476D01*
X95863095Y-69402857D01*
X95910714Y-69307619D01*
X95958333Y-69260000D01*
X96053571Y-69212380D01*
X96244047Y-69212380D01*
X96339285Y-69260000D01*
X96386904Y-69307619D01*
X96434523Y-69402857D01*
X96434523Y-69450476D01*
X96386904Y-69545714D01*
X96339285Y-69593333D01*
X96244047Y-69640952D01*
X96053571Y-69640952D01*
X95958333Y-69688571D01*
X95910714Y-69736190D01*
X95863095Y-69831428D01*
X95863095Y-70021904D01*
X95910714Y-70117142D01*
X95958333Y-70164761D01*
X96053571Y-70212380D01*
X96244047Y-70212380D01*
X96339285Y-70164761D01*
X96386904Y-70117142D01*
X96434523Y-70021904D01*
X96434523Y-69831428D01*
X96386904Y-69736190D01*
X96339285Y-69688571D01*
X96244047Y-69640952D01*
%TO.C,C15*%
X89097142Y-76837857D02*
X89144761Y-76885476D01*
X89192380Y-77028333D01*
X89192380Y-77123571D01*
X89144761Y-77266428D01*
X89049523Y-77361666D01*
X88954285Y-77409285D01*
X88763809Y-77456904D01*
X88620952Y-77456904D01*
X88430476Y-77409285D01*
X88335238Y-77361666D01*
X88240000Y-77266428D01*
X88192380Y-77123571D01*
X88192380Y-77028333D01*
X88240000Y-76885476D01*
X88287619Y-76837857D01*
X89192380Y-75885476D02*
X89192380Y-76456904D01*
X89192380Y-76171190D02*
X88192380Y-76171190D01*
X88335238Y-76266428D01*
X88430476Y-76361666D01*
X88478095Y-76456904D01*
X88192380Y-74980714D02*
X88192380Y-75456904D01*
X88668571Y-75504523D01*
X88620952Y-75456904D01*
X88573333Y-75361666D01*
X88573333Y-75123571D01*
X88620952Y-75028333D01*
X88668571Y-74980714D01*
X88763809Y-74933095D01*
X89001904Y-74933095D01*
X89097142Y-74980714D01*
X89144761Y-75028333D01*
X89192380Y-75123571D01*
X89192380Y-75361666D01*
X89144761Y-75456904D01*
X89097142Y-75504523D01*
%TO.C,R10*%
X88732142Y-71912380D02*
X88398809Y-71436190D01*
X88160714Y-71912380D02*
X88160714Y-70912380D01*
X88541666Y-70912380D01*
X88636904Y-70960000D01*
X88684523Y-71007619D01*
X88732142Y-71102857D01*
X88732142Y-71245714D01*
X88684523Y-71340952D01*
X88636904Y-71388571D01*
X88541666Y-71436190D01*
X88160714Y-71436190D01*
X89684523Y-71912380D02*
X89113095Y-71912380D01*
X89398809Y-71912380D02*
X89398809Y-70912380D01*
X89303571Y-71055238D01*
X89208333Y-71150476D01*
X89113095Y-71198095D01*
X90303571Y-70912380D02*
X90398809Y-70912380D01*
X90494047Y-70960000D01*
X90541666Y-71007619D01*
X90589285Y-71102857D01*
X90636904Y-71293333D01*
X90636904Y-71531428D01*
X90589285Y-71721904D01*
X90541666Y-71817142D01*
X90494047Y-71864761D01*
X90398809Y-71912380D01*
X90303571Y-71912380D01*
X90208333Y-71864761D01*
X90160714Y-71817142D01*
X90113095Y-71721904D01*
X90065476Y-71531428D01*
X90065476Y-71293333D01*
X90113095Y-71102857D01*
X90160714Y-71007619D01*
X90208333Y-70960000D01*
X90303571Y-70912380D01*
%TO.C,R1*%
X98392380Y-68956666D02*
X97916190Y-69290000D01*
X98392380Y-69528095D02*
X97392380Y-69528095D01*
X97392380Y-69147142D01*
X97440000Y-69051904D01*
X97487619Y-69004285D01*
X97582857Y-68956666D01*
X97725714Y-68956666D01*
X97820952Y-69004285D01*
X97868571Y-69051904D01*
X97916190Y-69147142D01*
X97916190Y-69528095D01*
X98392380Y-68004285D02*
X98392380Y-68575714D01*
X98392380Y-68290000D02*
X97392380Y-68290000D01*
X97535238Y-68385238D01*
X97630476Y-68480476D01*
X97678095Y-68575714D01*
%TO.C,C3*%
X120208333Y-82057142D02*
X120160714Y-82104761D01*
X120017857Y-82152380D01*
X119922619Y-82152380D01*
X119779761Y-82104761D01*
X119684523Y-82009523D01*
X119636904Y-81914285D01*
X119589285Y-81723809D01*
X119589285Y-81580952D01*
X119636904Y-81390476D01*
X119684523Y-81295238D01*
X119779761Y-81200000D01*
X119922619Y-81152380D01*
X120017857Y-81152380D01*
X120160714Y-81200000D01*
X120208333Y-81247619D01*
X120541666Y-81152380D02*
X121160714Y-81152380D01*
X120827380Y-81533333D01*
X120970238Y-81533333D01*
X121065476Y-81580952D01*
X121113095Y-81628571D01*
X121160714Y-81723809D01*
X121160714Y-81961904D01*
X121113095Y-82057142D01*
X121065476Y-82104761D01*
X120970238Y-82152380D01*
X120684523Y-82152380D01*
X120589285Y-82104761D01*
X120541666Y-82057142D01*
%TO.C,R18*%
X83512380Y-56710357D02*
X83036190Y-57043690D01*
X83512380Y-57281785D02*
X82512380Y-57281785D01*
X82512380Y-56900833D01*
X82560000Y-56805595D01*
X82607619Y-56757976D01*
X82702857Y-56710357D01*
X82845714Y-56710357D01*
X82940952Y-56757976D01*
X82988571Y-56805595D01*
X83036190Y-56900833D01*
X83036190Y-57281785D01*
X83512380Y-55757976D02*
X83512380Y-56329404D01*
X83512380Y-56043690D02*
X82512380Y-56043690D01*
X82655238Y-56138928D01*
X82750476Y-56234166D01*
X82798095Y-56329404D01*
X82940952Y-55186547D02*
X82893333Y-55281785D01*
X82845714Y-55329404D01*
X82750476Y-55377023D01*
X82702857Y-55377023D01*
X82607619Y-55329404D01*
X82560000Y-55281785D01*
X82512380Y-55186547D01*
X82512380Y-54996071D01*
X82560000Y-54900833D01*
X82607619Y-54853214D01*
X82702857Y-54805595D01*
X82750476Y-54805595D01*
X82845714Y-54853214D01*
X82893333Y-54900833D01*
X82940952Y-54996071D01*
X82940952Y-55186547D01*
X82988571Y-55281785D01*
X83036190Y-55329404D01*
X83131428Y-55377023D01*
X83321904Y-55377023D01*
X83417142Y-55329404D01*
X83464761Y-55281785D01*
X83512380Y-55186547D01*
X83512380Y-54996071D01*
X83464761Y-54900833D01*
X83417142Y-54853214D01*
X83321904Y-54805595D01*
X83131428Y-54805595D01*
X83036190Y-54853214D01*
X82988571Y-54900833D01*
X82940952Y-54996071D01*
%TO.C,J1*%
X73166666Y-57927380D02*
X73166666Y-58641666D01*
X73119047Y-58784523D01*
X73023809Y-58879761D01*
X72880952Y-58927380D01*
X72785714Y-58927380D01*
X74166666Y-58927380D02*
X73595238Y-58927380D01*
X73880952Y-58927380D02*
X73880952Y-57927380D01*
X73785714Y-58070238D01*
X73690476Y-58165476D01*
X73595238Y-58213095D01*
%TO.C,C1*%
X112385833Y-66652143D02*
X112338214Y-66699762D01*
X112195357Y-66747381D01*
X112100119Y-66747381D01*
X111957261Y-66699762D01*
X111862023Y-66604524D01*
X111814404Y-66509286D01*
X111766785Y-66318810D01*
X111766785Y-66175953D01*
X111814404Y-65985477D01*
X111862023Y-65890239D01*
X111957261Y-65795001D01*
X112100119Y-65747381D01*
X112195357Y-65747381D01*
X112338214Y-65795001D01*
X112385833Y-65842620D01*
X113338214Y-66747381D02*
X112766785Y-66747381D01*
X113052500Y-66747381D02*
X113052500Y-65747381D01*
X112957261Y-65890239D01*
X112862023Y-65985477D01*
X112766785Y-66033096D01*
%TO.C,R2*%
X93729880Y-69056666D02*
X93253690Y-69390000D01*
X93729880Y-69628095D02*
X92729880Y-69628095D01*
X92729880Y-69247142D01*
X92777500Y-69151904D01*
X92825119Y-69104285D01*
X92920357Y-69056666D01*
X93063214Y-69056666D01*
X93158452Y-69104285D01*
X93206071Y-69151904D01*
X93253690Y-69247142D01*
X93253690Y-69628095D01*
X92825119Y-68675714D02*
X92777500Y-68628095D01*
X92729880Y-68532857D01*
X92729880Y-68294761D01*
X92777500Y-68199523D01*
X92825119Y-68151904D01*
X92920357Y-68104285D01*
X93015595Y-68104285D01*
X93158452Y-68151904D01*
X93729880Y-68723333D01*
X93729880Y-68104285D01*
%TO.C,C14*%
X86687142Y-76862857D02*
X86734761Y-76910476D01*
X86782380Y-77053333D01*
X86782380Y-77148571D01*
X86734761Y-77291428D01*
X86639523Y-77386666D01*
X86544285Y-77434285D01*
X86353809Y-77481904D01*
X86210952Y-77481904D01*
X86020476Y-77434285D01*
X85925238Y-77386666D01*
X85830000Y-77291428D01*
X85782380Y-77148571D01*
X85782380Y-77053333D01*
X85830000Y-76910476D01*
X85877619Y-76862857D01*
X86782380Y-75910476D02*
X86782380Y-76481904D01*
X86782380Y-76196190D02*
X85782380Y-76196190D01*
X85925238Y-76291428D01*
X86020476Y-76386666D01*
X86068095Y-76481904D01*
X86115714Y-75053333D02*
X86782380Y-75053333D01*
X85734761Y-75291428D02*
X86449047Y-75529523D01*
X86449047Y-74910476D01*
%TO.C,R13*%
X128544642Y-73409880D02*
X128211309Y-72933690D01*
X127973214Y-73409880D02*
X127973214Y-72409880D01*
X128354166Y-72409880D01*
X128449404Y-72457500D01*
X128497023Y-72505119D01*
X128544642Y-72600357D01*
X128544642Y-72743214D01*
X128497023Y-72838452D01*
X128449404Y-72886071D01*
X128354166Y-72933690D01*
X127973214Y-72933690D01*
X129497023Y-73409880D02*
X128925595Y-73409880D01*
X129211309Y-73409880D02*
X129211309Y-72409880D01*
X129116071Y-72552738D01*
X129020833Y-72647976D01*
X128925595Y-72695595D01*
X129830357Y-72409880D02*
X130449404Y-72409880D01*
X130116071Y-72790833D01*
X130258928Y-72790833D01*
X130354166Y-72838452D01*
X130401785Y-72886071D01*
X130449404Y-72981309D01*
X130449404Y-73219404D01*
X130401785Y-73314642D01*
X130354166Y-73362261D01*
X130258928Y-73409880D01*
X129973214Y-73409880D01*
X129877976Y-73362261D01*
X129830357Y-73314642D01*
%TO.C,U5*%
X109740595Y-84232380D02*
X109740595Y-85041904D01*
X109788214Y-85137142D01*
X109835833Y-85184761D01*
X109931071Y-85232380D01*
X110121547Y-85232380D01*
X110216785Y-85184761D01*
X110264404Y-85137142D01*
X110312023Y-85041904D01*
X110312023Y-84232380D01*
X111264404Y-84232380D02*
X110788214Y-84232380D01*
X110740595Y-84708571D01*
X110788214Y-84660952D01*
X110883452Y-84613333D01*
X111121547Y-84613333D01*
X111216785Y-84660952D01*
X111264404Y-84708571D01*
X111312023Y-84803809D01*
X111312023Y-85041904D01*
X111264404Y-85137142D01*
X111216785Y-85184761D01*
X111121547Y-85232380D01*
X110883452Y-85232380D01*
X110788214Y-85184761D01*
X110740595Y-85137142D01*
%TO.C,C16*%
X129182141Y-83227857D02*
X129229760Y-83275476D01*
X129277379Y-83418333D01*
X129277379Y-83513571D01*
X129229760Y-83656428D01*
X129134522Y-83751666D01*
X129039284Y-83799285D01*
X128848808Y-83846904D01*
X128705951Y-83846904D01*
X128515475Y-83799285D01*
X128420237Y-83751666D01*
X128324999Y-83656428D01*
X128277379Y-83513571D01*
X128277379Y-83418333D01*
X128324999Y-83275476D01*
X128372618Y-83227857D01*
X129277379Y-82275476D02*
X129277379Y-82846904D01*
X129277379Y-82561190D02*
X128277379Y-82561190D01*
X128420237Y-82656428D01*
X128515475Y-82751666D01*
X128563094Y-82846904D01*
X128277379Y-81418333D02*
X128277379Y-81608809D01*
X128324999Y-81704047D01*
X128372618Y-81751666D01*
X128515475Y-81846904D01*
X128705951Y-81894523D01*
X129086903Y-81894523D01*
X129182141Y-81846904D01*
X129229760Y-81799285D01*
X129277379Y-81704047D01*
X129277379Y-81513571D01*
X129229760Y-81418333D01*
X129182141Y-81370714D01*
X129086903Y-81323095D01*
X128848808Y-81323095D01*
X128753570Y-81370714D01*
X128705951Y-81418333D01*
X128658332Y-81513571D01*
X128658332Y-81704047D01*
X128705951Y-81799285D01*
X128753570Y-81846904D01*
X128848808Y-81894523D01*
%TO.C,C19*%
X89317142Y-59897857D02*
X89364761Y-59945476D01*
X89412380Y-60088333D01*
X89412380Y-60183571D01*
X89364761Y-60326428D01*
X89269523Y-60421666D01*
X89174285Y-60469285D01*
X88983809Y-60516904D01*
X88840952Y-60516904D01*
X88650476Y-60469285D01*
X88555238Y-60421666D01*
X88460000Y-60326428D01*
X88412380Y-60183571D01*
X88412380Y-60088333D01*
X88460000Y-59945476D01*
X88507619Y-59897857D01*
X89412380Y-58945476D02*
X89412380Y-59516904D01*
X89412380Y-59231190D02*
X88412380Y-59231190D01*
X88555238Y-59326428D01*
X88650476Y-59421666D01*
X88698095Y-59516904D01*
X89412380Y-58469285D02*
X89412380Y-58278809D01*
X89364761Y-58183571D01*
X89317142Y-58135952D01*
X89174285Y-58040714D01*
X88983809Y-57993095D01*
X88602857Y-57993095D01*
X88507619Y-58040714D01*
X88460000Y-58088333D01*
X88412380Y-58183571D01*
X88412380Y-58374047D01*
X88460000Y-58469285D01*
X88507619Y-58516904D01*
X88602857Y-58564523D01*
X88840952Y-58564523D01*
X88936190Y-58516904D01*
X88983809Y-58469285D01*
X89031428Y-58374047D01*
X89031428Y-58183571D01*
X88983809Y-58088333D01*
X88936190Y-58040714D01*
X88840952Y-57993095D01*
%TO.C,R9*%
X125677379Y-82751666D02*
X125201189Y-83085000D01*
X125677379Y-83323095D02*
X124677379Y-83323095D01*
X124677379Y-82942142D01*
X124724999Y-82846904D01*
X124772618Y-82799285D01*
X124867856Y-82751666D01*
X125010713Y-82751666D01*
X125105951Y-82799285D01*
X125153570Y-82846904D01*
X125201189Y-82942142D01*
X125201189Y-83323095D01*
X125677379Y-82275476D02*
X125677379Y-82085000D01*
X125629760Y-81989761D01*
X125582141Y-81942142D01*
X125439284Y-81846904D01*
X125248808Y-81799285D01*
X124867856Y-81799285D01*
X124772618Y-81846904D01*
X124724999Y-81894523D01*
X124677379Y-81989761D01*
X124677379Y-82180238D01*
X124724999Y-82275476D01*
X124772618Y-82323095D01*
X124867856Y-82370714D01*
X125105951Y-82370714D01*
X125201189Y-82323095D01*
X125248808Y-82275476D01*
X125296427Y-82180238D01*
X125296427Y-81989761D01*
X125248808Y-81894523D01*
X125201189Y-81846904D01*
X125105951Y-81799285D01*
%TO.C,C18*%
X86917142Y-59897857D02*
X86964761Y-59945476D01*
X87012380Y-60088333D01*
X87012380Y-60183571D01*
X86964761Y-60326428D01*
X86869523Y-60421666D01*
X86774285Y-60469285D01*
X86583809Y-60516904D01*
X86440952Y-60516904D01*
X86250476Y-60469285D01*
X86155238Y-60421666D01*
X86060000Y-60326428D01*
X86012380Y-60183571D01*
X86012380Y-60088333D01*
X86060000Y-59945476D01*
X86107619Y-59897857D01*
X87012380Y-58945476D02*
X87012380Y-59516904D01*
X87012380Y-59231190D02*
X86012380Y-59231190D01*
X86155238Y-59326428D01*
X86250476Y-59421666D01*
X86298095Y-59516904D01*
X86440952Y-58374047D02*
X86393333Y-58469285D01*
X86345714Y-58516904D01*
X86250476Y-58564523D01*
X86202857Y-58564523D01*
X86107619Y-58516904D01*
X86060000Y-58469285D01*
X86012380Y-58374047D01*
X86012380Y-58183571D01*
X86060000Y-58088333D01*
X86107619Y-58040714D01*
X86202857Y-57993095D01*
X86250476Y-57993095D01*
X86345714Y-58040714D01*
X86393333Y-58088333D01*
X86440952Y-58183571D01*
X86440952Y-58374047D01*
X86488571Y-58469285D01*
X86536190Y-58516904D01*
X86631428Y-58564523D01*
X86821904Y-58564523D01*
X86917142Y-58516904D01*
X86964761Y-58469285D01*
X87012380Y-58374047D01*
X87012380Y-58183571D01*
X86964761Y-58088333D01*
X86917142Y-58040714D01*
X86821904Y-57993095D01*
X86631428Y-57993095D01*
X86536190Y-58040714D01*
X86488571Y-58088333D01*
X86440952Y-58183571D01*
%TO.C,C10*%
X107582142Y-55682142D02*
X107534523Y-55729761D01*
X107391666Y-55777380D01*
X107296428Y-55777380D01*
X107153571Y-55729761D01*
X107058333Y-55634523D01*
X107010714Y-55539285D01*
X106963095Y-55348809D01*
X106963095Y-55205952D01*
X107010714Y-55015476D01*
X107058333Y-54920238D01*
X107153571Y-54825000D01*
X107296428Y-54777380D01*
X107391666Y-54777380D01*
X107534523Y-54825000D01*
X107582142Y-54872619D01*
X108534523Y-55777380D02*
X107963095Y-55777380D01*
X108248809Y-55777380D02*
X108248809Y-54777380D01*
X108153571Y-54920238D01*
X108058333Y-55015476D01*
X107963095Y-55063095D01*
X109153571Y-54777380D02*
X109248809Y-54777380D01*
X109344047Y-54825000D01*
X109391666Y-54872619D01*
X109439285Y-54967857D01*
X109486904Y-55158333D01*
X109486904Y-55396428D01*
X109439285Y-55586904D01*
X109391666Y-55682142D01*
X109344047Y-55729761D01*
X109248809Y-55777380D01*
X109153571Y-55777380D01*
X109058333Y-55729761D01*
X109010714Y-55682142D01*
X108963095Y-55586904D01*
X108915476Y-55396428D01*
X108915476Y-55158333D01*
X108963095Y-54967857D01*
X109010714Y-54872619D01*
X109058333Y-54825000D01*
X109153571Y-54777380D01*
%TO.C,C4*%
X125957142Y-70091667D02*
X126004761Y-70139286D01*
X126052380Y-70282143D01*
X126052380Y-70377381D01*
X126004761Y-70520239D01*
X125909523Y-70615477D01*
X125814285Y-70663096D01*
X125623809Y-70710715D01*
X125480952Y-70710715D01*
X125290476Y-70663096D01*
X125195238Y-70615477D01*
X125100000Y-70520239D01*
X125052380Y-70377381D01*
X125052380Y-70282143D01*
X125100000Y-70139286D01*
X125147619Y-70091667D01*
X125385714Y-69234524D02*
X126052380Y-69234524D01*
X125004761Y-69472620D02*
X125719047Y-69710715D01*
X125719047Y-69091667D01*
%TO.C,U10*%
X84056780Y-64018095D02*
X84866304Y-64018095D01*
X84961542Y-63970476D01*
X85009161Y-63922857D01*
X85056780Y-63827619D01*
X85056780Y-63637142D01*
X85009161Y-63541904D01*
X84961542Y-63494285D01*
X84866304Y-63446666D01*
X84056780Y-63446666D01*
X85056780Y-62446666D02*
X85056780Y-63018095D01*
X85056780Y-62732380D02*
X84056780Y-62732380D01*
X84199638Y-62827619D01*
X84294876Y-62922857D01*
X84342495Y-63018095D01*
X84056780Y-61827619D02*
X84056780Y-61732380D01*
X84104400Y-61637142D01*
X84152019Y-61589523D01*
X84247257Y-61541904D01*
X84437733Y-61494285D01*
X84675828Y-61494285D01*
X84866304Y-61541904D01*
X84961542Y-61589523D01*
X85009161Y-61637142D01*
X85056780Y-61732380D01*
X85056780Y-61827619D01*
X85009161Y-61922857D01*
X84961542Y-61970476D01*
X84866304Y-62018095D01*
X84675828Y-62065714D01*
X84437733Y-62065714D01*
X84247257Y-62018095D01*
X84152019Y-61970476D01*
X84104400Y-61922857D01*
X84056780Y-61827619D01*
X82304400Y-61762380D02*
X82304400Y-62000476D01*
X82066304Y-61905238D02*
X82304400Y-62000476D01*
X82542495Y-61905238D01*
X82161542Y-62190952D02*
X82304400Y-62000476D01*
X82447257Y-62190952D01*
%TO.C,U3*%
X111698095Y-68142380D02*
X111698095Y-68951904D01*
X111745714Y-69047142D01*
X111793333Y-69094761D01*
X111888571Y-69142380D01*
X112079047Y-69142380D01*
X112174285Y-69094761D01*
X112221904Y-69047142D01*
X112269523Y-68951904D01*
X112269523Y-68142380D01*
X112650476Y-68142380D02*
X113269523Y-68142380D01*
X112936190Y-68523333D01*
X113079047Y-68523333D01*
X113174285Y-68570952D01*
X113221904Y-68618571D01*
X113269523Y-68713809D01*
X113269523Y-68951904D01*
X113221904Y-69047142D01*
X113174285Y-69094761D01*
X113079047Y-69142380D01*
X112793333Y-69142380D01*
X112698095Y-69094761D01*
X112650476Y-69047142D01*
%TO.C,C17*%
X77217142Y-60912142D02*
X77169523Y-60959761D01*
X77026666Y-61007380D01*
X76931428Y-61007380D01*
X76788571Y-60959761D01*
X76693333Y-60864523D01*
X76645714Y-60769285D01*
X76598095Y-60578809D01*
X76598095Y-60435952D01*
X76645714Y-60245476D01*
X76693333Y-60150238D01*
X76788571Y-60055000D01*
X76931428Y-60007380D01*
X77026666Y-60007380D01*
X77169523Y-60055000D01*
X77217142Y-60102619D01*
X78169523Y-61007380D02*
X77598095Y-61007380D01*
X77883809Y-61007380D02*
X77883809Y-60007380D01*
X77788571Y-60150238D01*
X77693333Y-60245476D01*
X77598095Y-60293095D01*
X78502857Y-60007380D02*
X79169523Y-60007380D01*
X78740952Y-61007380D01*
%TO.C,C6*%
X123333333Y-66632143D02*
X123285714Y-66679762D01*
X123142857Y-66727381D01*
X123047619Y-66727381D01*
X122904761Y-66679762D01*
X122809523Y-66584524D01*
X122761904Y-66489286D01*
X122714285Y-66298810D01*
X122714285Y-66155953D01*
X122761904Y-65965477D01*
X122809523Y-65870239D01*
X122904761Y-65775001D01*
X123047619Y-65727381D01*
X123142857Y-65727381D01*
X123285714Y-65775001D01*
X123333333Y-65822620D01*
X124190476Y-65727381D02*
X124000000Y-65727381D01*
X123904761Y-65775001D01*
X123857142Y-65822620D01*
X123761904Y-65965477D01*
X123714285Y-66155953D01*
X123714285Y-66536905D01*
X123761904Y-66632143D01*
X123809523Y-66679762D01*
X123904761Y-66727381D01*
X124095238Y-66727381D01*
X124190476Y-66679762D01*
X124238095Y-66632143D01*
X124285714Y-66536905D01*
X124285714Y-66298810D01*
X124238095Y-66203572D01*
X124190476Y-66155953D01*
X124095238Y-66108334D01*
X123904761Y-66108334D01*
X123809523Y-66155953D01*
X123761904Y-66203572D01*
X123714285Y-66298810D01*
%TO.C,M2*%
X72440476Y-84952380D02*
X72440476Y-83952380D01*
X72773809Y-84666666D01*
X73107142Y-83952380D01*
X73107142Y-84952380D01*
X73535714Y-84047619D02*
X73583333Y-84000000D01*
X73678571Y-83952380D01*
X73916666Y-83952380D01*
X74011904Y-84000000D01*
X74059523Y-84047619D01*
X74107142Y-84142857D01*
X74107142Y-84238095D01*
X74059523Y-84380952D01*
X73488095Y-84952380D01*
X74107142Y-84952380D01*
%TO.C,R19*%
X81212380Y-56710357D02*
X80736190Y-57043690D01*
X81212380Y-57281785D02*
X80212380Y-57281785D01*
X80212380Y-56900833D01*
X80260000Y-56805595D01*
X80307619Y-56757976D01*
X80402857Y-56710357D01*
X80545714Y-56710357D01*
X80640952Y-56757976D01*
X80688571Y-56805595D01*
X80736190Y-56900833D01*
X80736190Y-57281785D01*
X81212380Y-55757976D02*
X81212380Y-56329404D01*
X81212380Y-56043690D02*
X80212380Y-56043690D01*
X80355238Y-56138928D01*
X80450476Y-56234166D01*
X80498095Y-56329404D01*
X81212380Y-55281785D02*
X81212380Y-55091309D01*
X81164761Y-54996071D01*
X81117142Y-54948452D01*
X80974285Y-54853214D01*
X80783809Y-54805595D01*
X80402857Y-54805595D01*
X80307619Y-54853214D01*
X80260000Y-54900833D01*
X80212380Y-54996071D01*
X80212380Y-55186547D01*
X80260000Y-55281785D01*
X80307619Y-55329404D01*
X80402857Y-55377023D01*
X80640952Y-55377023D01*
X80736190Y-55329404D01*
X80783809Y-55281785D01*
X80831428Y-55186547D01*
X80831428Y-54996071D01*
X80783809Y-54900833D01*
X80736190Y-54853214D01*
X80640952Y-54805595D01*
%TO.C,SW1*%
X67891666Y-69454761D02*
X68034523Y-69502380D01*
X68272619Y-69502380D01*
X68367857Y-69454761D01*
X68415476Y-69407142D01*
X68463095Y-69311904D01*
X68463095Y-69216666D01*
X68415476Y-69121428D01*
X68367857Y-69073809D01*
X68272619Y-69026190D01*
X68082142Y-68978571D01*
X67986904Y-68930952D01*
X67939285Y-68883333D01*
X67891666Y-68788095D01*
X67891666Y-68692857D01*
X67939285Y-68597619D01*
X67986904Y-68550000D01*
X68082142Y-68502380D01*
X68320238Y-68502380D01*
X68463095Y-68550000D01*
X68796428Y-68502380D02*
X69034523Y-69502380D01*
X69225000Y-68788095D01*
X69415476Y-69502380D01*
X69653571Y-68502380D01*
X70558333Y-69502380D02*
X69986904Y-69502380D01*
X70272619Y-69502380D02*
X70272619Y-68502380D01*
X70177380Y-68645238D01*
X70082142Y-68740476D01*
X69986904Y-68788095D01*
%TO.C,R3*%
X123917380Y-83534166D02*
X123441190Y-83867500D01*
X123917380Y-84105595D02*
X122917380Y-84105595D01*
X122917380Y-83724642D01*
X122965000Y-83629404D01*
X123012619Y-83581785D01*
X123107857Y-83534166D01*
X123250714Y-83534166D01*
X123345952Y-83581785D01*
X123393571Y-83629404D01*
X123441190Y-83724642D01*
X123441190Y-84105595D01*
X122917380Y-83200833D02*
X122917380Y-82581785D01*
X123298333Y-82915119D01*
X123298333Y-82772261D01*
X123345952Y-82677023D01*
X123393571Y-82629404D01*
X123488809Y-82581785D01*
X123726904Y-82581785D01*
X123822142Y-82629404D01*
X123869761Y-82677023D01*
X123917380Y-82772261D01*
X123917380Y-83057976D01*
X123869761Y-83153214D01*
X123822142Y-83200833D01*
%TO.C,Y1*%
X114698809Y-55851190D02*
X114698809Y-56327380D01*
X114365476Y-55327380D02*
X114698809Y-55851190D01*
X115032142Y-55327380D01*
X115889285Y-56327380D02*
X115317857Y-56327380D01*
X115603571Y-56327380D02*
X115603571Y-55327380D01*
X115508333Y-55470238D01*
X115413095Y-55565476D01*
X115317857Y-55613095D01*
%TO.C,R15*%
X80992380Y-73702857D02*
X80516190Y-74036190D01*
X80992380Y-74274285D02*
X79992380Y-74274285D01*
X79992380Y-73893333D01*
X80040000Y-73798095D01*
X80087619Y-73750476D01*
X80182857Y-73702857D01*
X80325714Y-73702857D01*
X80420952Y-73750476D01*
X80468571Y-73798095D01*
X80516190Y-73893333D01*
X80516190Y-74274285D01*
X80992380Y-72750476D02*
X80992380Y-73321904D01*
X80992380Y-73036190D02*
X79992380Y-73036190D01*
X80135238Y-73131428D01*
X80230476Y-73226666D01*
X80278095Y-73321904D01*
X79992380Y-71845714D02*
X79992380Y-72321904D01*
X80468571Y-72369523D01*
X80420952Y-72321904D01*
X80373333Y-72226666D01*
X80373333Y-71988571D01*
X80420952Y-71893333D01*
X80468571Y-71845714D01*
X80563809Y-71798095D01*
X80801904Y-71798095D01*
X80897142Y-71845714D01*
X80944761Y-71893333D01*
X80992380Y-71988571D01*
X80992380Y-72226666D01*
X80944761Y-72321904D01*
X80897142Y-72369523D01*
%TO.C,C13*%
X76997142Y-77892142D02*
X76949523Y-77939761D01*
X76806666Y-77987380D01*
X76711428Y-77987380D01*
X76568571Y-77939761D01*
X76473333Y-77844523D01*
X76425714Y-77749285D01*
X76378095Y-77558809D01*
X76378095Y-77415952D01*
X76425714Y-77225476D01*
X76473333Y-77130238D01*
X76568571Y-77035000D01*
X76711428Y-76987380D01*
X76806666Y-76987380D01*
X76949523Y-77035000D01*
X76997142Y-77082619D01*
X77949523Y-77987380D02*
X77378095Y-77987380D01*
X77663809Y-77987380D02*
X77663809Y-76987380D01*
X77568571Y-77130238D01*
X77473333Y-77225476D01*
X77378095Y-77273095D01*
X78282857Y-76987380D02*
X78901904Y-76987380D01*
X78568571Y-77368333D01*
X78711428Y-77368333D01*
X78806666Y-77415952D01*
X78854285Y-77463571D01*
X78901904Y-77558809D01*
X78901904Y-77796904D01*
X78854285Y-77892142D01*
X78806666Y-77939761D01*
X78711428Y-77987380D01*
X78425714Y-77987380D01*
X78330476Y-77939761D01*
X78282857Y-77892142D01*
%TO.C,C9*%
X121533333Y-55625891D02*
X121485714Y-55673510D01*
X121342857Y-55721129D01*
X121247619Y-55721129D01*
X121104761Y-55673510D01*
X121009523Y-55578272D01*
X120961904Y-55483034D01*
X120914285Y-55292558D01*
X120914285Y-55149701D01*
X120961904Y-54959225D01*
X121009523Y-54863987D01*
X121104761Y-54768749D01*
X121247619Y-54721129D01*
X121342857Y-54721129D01*
X121485714Y-54768749D01*
X121533333Y-54816368D01*
X122009523Y-55721129D02*
X122200000Y-55721129D01*
X122295238Y-55673510D01*
X122342857Y-55625891D01*
X122438095Y-55483034D01*
X122485714Y-55292558D01*
X122485714Y-54911606D01*
X122438095Y-54816368D01*
X122390476Y-54768749D01*
X122295238Y-54721129D01*
X122104761Y-54721129D01*
X122009523Y-54768749D01*
X121961904Y-54816368D01*
X121914285Y-54911606D01*
X121914285Y-55149701D01*
X121961904Y-55244939D01*
X122009523Y-55292558D01*
X122104761Y-55340177D01*
X122295238Y-55340177D01*
X122390476Y-55292558D01*
X122438095Y-55244939D01*
X122485714Y-55149701D01*
%TO.C,R12*%
X100467380Y-76102857D02*
X99991190Y-76436190D01*
X100467380Y-76674285D02*
X99467380Y-76674285D01*
X99467380Y-76293333D01*
X99515000Y-76198095D01*
X99562619Y-76150476D01*
X99657857Y-76102857D01*
X99800714Y-76102857D01*
X99895952Y-76150476D01*
X99943571Y-76198095D01*
X99991190Y-76293333D01*
X99991190Y-76674285D01*
X100467380Y-75150476D02*
X100467380Y-75721904D01*
X100467380Y-75436190D02*
X99467380Y-75436190D01*
X99610238Y-75531428D01*
X99705476Y-75626666D01*
X99753095Y-75721904D01*
X99562619Y-74769523D02*
X99515000Y-74721904D01*
X99467380Y-74626666D01*
X99467380Y-74388571D01*
X99515000Y-74293333D01*
X99562619Y-74245714D01*
X99657857Y-74198095D01*
X99753095Y-74198095D01*
X99895952Y-74245714D01*
X100467380Y-74817142D01*
X100467380Y-74198095D01*
%TO.C,R11*%
X83292380Y-73677857D02*
X82816190Y-74011190D01*
X83292380Y-74249285D02*
X82292380Y-74249285D01*
X82292380Y-73868333D01*
X82340000Y-73773095D01*
X82387619Y-73725476D01*
X82482857Y-73677857D01*
X82625714Y-73677857D01*
X82720952Y-73725476D01*
X82768571Y-73773095D01*
X82816190Y-73868333D01*
X82816190Y-74249285D01*
X83292380Y-72725476D02*
X83292380Y-73296904D01*
X83292380Y-73011190D02*
X82292380Y-73011190D01*
X82435238Y-73106428D01*
X82530476Y-73201666D01*
X82578095Y-73296904D01*
X83292380Y-71773095D02*
X83292380Y-72344523D01*
X83292380Y-72058809D02*
X82292380Y-72058809D01*
X82435238Y-72154047D01*
X82530476Y-72249285D01*
X82578095Y-72344523D01*
%TO.C,R4*%
X87365833Y-56537380D02*
X87032500Y-56061190D01*
X86794404Y-56537380D02*
X86794404Y-55537380D01*
X87175357Y-55537380D01*
X87270595Y-55585000D01*
X87318214Y-55632619D01*
X87365833Y-55727857D01*
X87365833Y-55870714D01*
X87318214Y-55965952D01*
X87270595Y-56013571D01*
X87175357Y-56061190D01*
X86794404Y-56061190D01*
X88222976Y-55870714D02*
X88222976Y-56537380D01*
X87984880Y-55489761D02*
X87746785Y-56204047D01*
X88365833Y-56204047D01*
%TO.C,D1*%
X133861904Y-72237380D02*
X133861904Y-71237380D01*
X134100000Y-71237380D01*
X134242857Y-71285000D01*
X134338095Y-71380238D01*
X134385714Y-71475476D01*
X134433333Y-71665952D01*
X134433333Y-71808809D01*
X134385714Y-71999285D01*
X134338095Y-72094523D01*
X134242857Y-72189761D01*
X134100000Y-72237380D01*
X133861904Y-72237380D01*
X135385714Y-72237380D02*
X134814285Y-72237380D01*
X135100000Y-72237380D02*
X135100000Y-71237380D01*
X135004761Y-71380238D01*
X134909523Y-71475476D01*
X134814285Y-71523095D01*
%TO.C,U9*%
X132427117Y-79441678D02*
X132427117Y-80252240D01*
X132474797Y-80347601D01*
X132522478Y-80395281D01*
X132617838Y-80442961D01*
X132808558Y-80442961D01*
X132903919Y-80395281D01*
X132951599Y-80347601D01*
X132999279Y-80252240D01*
X132999279Y-79441678D01*
X133523761Y-80442961D02*
X133714481Y-80442961D01*
X133809841Y-80395281D01*
X133857522Y-80347601D01*
X133952882Y-80204560D01*
X134000562Y-80013840D01*
X134000562Y-79632398D01*
X133952882Y-79537038D01*
X133905202Y-79489358D01*
X133809841Y-79441678D01*
X133619121Y-79441678D01*
X133523761Y-79489358D01*
X133476080Y-79537038D01*
X133428400Y-79632398D01*
X133428400Y-79870799D01*
X133476080Y-79966159D01*
X133523761Y-80013840D01*
X133619121Y-80061520D01*
X133809841Y-80061520D01*
X133905202Y-80013840D01*
X133952882Y-79966159D01*
X134000562Y-79870799D01*
%TO.C,R17*%
X138138630Y-83205357D02*
X137662440Y-83538690D01*
X138138630Y-83776785D02*
X137138630Y-83776785D01*
X137138630Y-83395833D01*
X137186250Y-83300595D01*
X137233869Y-83252976D01*
X137329107Y-83205357D01*
X137471964Y-83205357D01*
X137567202Y-83252976D01*
X137614821Y-83300595D01*
X137662440Y-83395833D01*
X137662440Y-83776785D01*
X138138630Y-82252976D02*
X138138630Y-82824404D01*
X138138630Y-82538690D02*
X137138630Y-82538690D01*
X137281488Y-82633928D01*
X137376726Y-82729166D01*
X137424345Y-82824404D01*
X137138630Y-81919642D02*
X137138630Y-81252976D01*
X138138630Y-81681547D01*
D12*
%TO.C,J3*%
X103816529Y-80560000D02*
X103270000Y-80560000D01*
X105490000Y-71735000D02*
X104687530Y-71735000D01*
X105490000Y-80560000D02*
X105490000Y-71735000D01*
X105490000Y-81320000D02*
X105490000Y-82080000D01*
X104072470Y-71735000D02*
X103270000Y-71735000D01*
X103270000Y-80560000D02*
X103270000Y-71735000D01*
X105490000Y-82080000D02*
X104380000Y-82080000D01*
X105490000Y-80560000D02*
X104943471Y-80560000D01*
%TO.C,L2*%
X79865950Y-68052500D02*
X81257450Y-68052500D01*
X81257450Y-63607500D02*
X79865950Y-63607500D01*
X77354200Y-65830000D02*
G75*
G03*
X77354200Y-65830000I-76200J0D01*
G01*
%TO.C,C2*%
X110935000Y-76068748D02*
X110935000Y-76591252D01*
X109465000Y-76068748D02*
X109465000Y-76591252D01*
D10*
%TO.C,U1*%
X155850000Y-55975000D02*
X155450000Y-55975000D01*
X155850000Y-55975000D02*
X155850000Y-65975000D01*
X139450000Y-75575000D02*
X139450000Y-76075000D01*
X139850000Y-76075000D02*
X139450000Y-76075000D01*
X155850000Y-75575000D02*
X155850000Y-76075000D01*
X139450000Y-55975000D02*
X139450000Y-56475000D01*
X139850000Y-55975000D02*
X139450000Y-55975000D01*
X155850000Y-76075000D02*
X155450000Y-76075000D01*
D12*
%TO.C,R5*%
X114385000Y-81452936D02*
X114385000Y-81907064D01*
X115855000Y-81452936D02*
X115855000Y-81907064D01*
%TO.C,R16*%
X92939564Y-72875000D02*
X92485436Y-72875000D01*
X92939564Y-74345000D02*
X92485436Y-74345000D01*
%TO.C,C8*%
X102215000Y-81046252D02*
X102215000Y-80523748D01*
X100745000Y-81046252D02*
X100745000Y-80523748D01*
%TO.C,C7*%
X115563752Y-63300001D02*
X115041248Y-63300001D01*
X115563752Y-64770001D02*
X115041248Y-64770001D01*
%TO.C,C12*%
X132986252Y-55465001D02*
X132463748Y-55465001D01*
X132986252Y-56935001D02*
X132463748Y-56935001D01*
%TO.C,C5*%
X120961252Y-63300001D02*
X120438748Y-63300001D01*
X120961252Y-64770001D02*
X120438748Y-64770001D01*
%TO.C,R14*%
X125610436Y-76417500D02*
X126064564Y-76417500D01*
X125610436Y-74947500D02*
X126064564Y-74947500D01*
%TO.C,U7*%
X81584401Y-80225001D02*
X82584399Y-80225001D01*
X81184399Y-78324999D02*
X82584399Y-78324999D01*
%TO.C,L1*%
X79645950Y-85017500D02*
X81037450Y-85017500D01*
X81037450Y-80572500D02*
X79645950Y-80572500D01*
X77134200Y-82795000D02*
G75*
G03*
X77134200Y-82795000I-76200J0D01*
G01*
D11*
%TO.C,U4*%
X134887500Y-65812500D02*
X134080001Y-65812500D01*
X134887500Y-58787500D02*
X134080001Y-58787500D01*
X128269999Y-65812500D02*
X127462500Y-65812500D01*
X127462500Y-65812500D02*
X127462500Y-58787500D01*
X134887500Y-65812500D02*
X134887500Y-58787500D01*
X128269999Y-58787500D02*
X127462500Y-58787500D01*
D13*
X128445000Y-66399999D02*
G75*
G03*
X128445000Y-66399999I-125001J0D01*
G01*
D12*
%TO.C,R8*%
X134847064Y-77785000D02*
X134392936Y-77785000D01*
X134847064Y-76315000D02*
X134392936Y-76315000D01*
%TO.C,R6*%
X118180000Y-81452936D02*
X118180000Y-81907064D01*
X116710000Y-81452936D02*
X116710000Y-81907064D01*
D14*
%TO.C,J2*%
X151400000Y-78075000D02*
X153600000Y-78075000D01*
X149325000Y-82350000D02*
X149325000Y-80150000D01*
X151400000Y-84425000D02*
X153600000Y-84425000D01*
X155675000Y-82350000D02*
X155675000Y-80150000D01*
%TO.C,U2*%
X93752500Y-55985000D02*
X93152500Y-55985000D01*
X93152500Y-62985000D02*
X93152500Y-61385000D01*
X97552500Y-55985000D02*
X98152500Y-55985000D01*
X93752500Y-62985000D02*
X93152500Y-62985000D01*
X98152500Y-62985000D02*
X98152500Y-61385000D01*
X98152500Y-55985000D02*
X98152500Y-57585000D01*
X97552500Y-62985000D02*
X98152500Y-62985000D01*
X93152500Y-55985000D02*
X93152500Y-57585000D01*
D15*
X92093919Y-58285000D02*
G75*
G03*
X92093919Y-58285000I-141419J0D01*
G01*
D12*
%TO.C,R7*%
X116097936Y-60890000D02*
X116552064Y-60890000D01*
X116097936Y-62360000D02*
X116552064Y-62360000D01*
D14*
%TO.C,U6*%
X105027508Y-59424000D02*
X105027508Y-59180000D01*
X105027508Y-55374000D02*
X105027508Y-55136000D01*
X105027508Y-55136000D02*
G75*
G03*
X105027508Y-59424000I-1557707J-2144000D01*
G01*
D15*
X105884508Y-58580000D02*
G75*
G03*
X105884508Y-58580000I-100000J0D01*
G01*
D12*
%TO.C,D2*%
X96632500Y-77390000D02*
X97282500Y-77390000D01*
X96632500Y-77390000D02*
X95982500Y-77390000D01*
X96632500Y-74270000D02*
X97282500Y-74270000D01*
X96632500Y-74270000D02*
X94957500Y-74270000D01*
%TO.C,C11*%
X108755000Y-82571252D02*
X108755000Y-82048748D01*
X107285000Y-82571252D02*
X107285000Y-82048748D01*
%TO.C,U8*%
X96762500Y-70650000D02*
X97562500Y-70650000D01*
X96762500Y-73770000D02*
X97562500Y-73770000D01*
X96762500Y-70650000D02*
X94962500Y-70650000D01*
X96762500Y-73770000D02*
X95962500Y-73770000D01*
%TO.C,C15*%
X89475000Y-79183748D02*
X89475000Y-79706252D01*
X88005000Y-79183748D02*
X88005000Y-79706252D01*
%TO.C,R10*%
X92485436Y-70725000D02*
X92939564Y-70725000D01*
X92485436Y-72195000D02*
X92939564Y-72195000D01*
%TO.C,R1*%
X98725000Y-65832936D02*
X98725000Y-66287064D01*
X97255000Y-65832936D02*
X97255000Y-66287064D01*
%TO.C,C3*%
X120138748Y-79240000D02*
X120661252Y-79240000D01*
X120138748Y-80710000D02*
X120661252Y-80710000D01*
%TO.C,R18*%
X82325000Y-59052936D02*
X82325000Y-59507064D01*
X83795000Y-59052936D02*
X83795000Y-59507064D01*
%TO.C,J1*%
X68525000Y-59550000D02*
X67775000Y-59550000D01*
X67765000Y-67160000D02*
X73735000Y-67160000D01*
X67475000Y-67450000D02*
X68725000Y-67450000D01*
X68525000Y-61350000D02*
X68525000Y-59550000D01*
X70025000Y-59550000D02*
X70025000Y-60300000D01*
X67775000Y-67150000D02*
X68525000Y-67150000D01*
X67775000Y-61350000D02*
X68525000Y-61350000D01*
X68525000Y-63850000D02*
X68525000Y-62850000D01*
X68525000Y-65350000D02*
X67775000Y-65350000D01*
X67775000Y-65350000D02*
X67775000Y-67150000D01*
X67765000Y-59540000D02*
X67765000Y-67160000D01*
X67475000Y-66200000D02*
X67475000Y-67450000D01*
X72975000Y-66400000D02*
X72975000Y-63350000D01*
X67775000Y-62850000D02*
X67775000Y-63850000D01*
X67775000Y-59550000D02*
X67775000Y-61350000D01*
X73735000Y-67160000D02*
X73735000Y-59540000D01*
X73735000Y-59540000D02*
X67765000Y-59540000D01*
X70025000Y-60300000D02*
X72975000Y-60300000D01*
X70025000Y-66400000D02*
X72975000Y-66400000D01*
X70025000Y-67150000D02*
X70025000Y-66400000D01*
X72975000Y-60300000D02*
X72975000Y-63350000D01*
X68525000Y-62850000D02*
X67775000Y-62850000D01*
X68525000Y-67150000D02*
X68525000Y-65350000D01*
X67775000Y-63850000D02*
X68525000Y-63850000D01*
%TO.C,C1*%
X115563752Y-67030001D02*
X115041248Y-67030001D01*
X115563752Y-65560001D02*
X115041248Y-65560001D01*
%TO.C,R2*%
X92542500Y-65832936D02*
X92542500Y-66287064D01*
X94012500Y-65832936D02*
X94012500Y-66287064D01*
%TO.C,C14*%
X85605000Y-79183748D02*
X85605000Y-79706252D01*
X87075000Y-79183748D02*
X87075000Y-79706252D01*
%TO.C,R13*%
X125610436Y-72222500D02*
X126064564Y-72222500D01*
X125610436Y-73692500D02*
X126064564Y-73692500D01*
D11*
%TO.C,U5*%
X109557500Y-79025000D02*
X109959000Y-79025000D01*
X109557500Y-83925000D02*
X109959000Y-83925000D01*
X109557500Y-79025000D02*
X109557500Y-83925000D01*
D16*
X110984000Y-78425000D02*
G75*
G03*
X110984000Y-78425000I-125000J0D01*
G01*
D12*
%TO.C,C16*%
X131360000Y-82838752D02*
X131360000Y-82316248D01*
X129890000Y-82838752D02*
X129890000Y-82316248D01*
%TO.C,C19*%
X89695000Y-62218748D02*
X89695000Y-62741252D01*
X88225000Y-62218748D02*
X88225000Y-62741252D01*
%TO.C,R9*%
X126289999Y-82824564D02*
X126289999Y-82370436D01*
X127759999Y-82824564D02*
X127759999Y-82370436D01*
%TO.C,C18*%
X85825000Y-62218748D02*
X85825000Y-62741252D01*
X87295000Y-62218748D02*
X87295000Y-62741252D01*
%TO.C,C10*%
X111213748Y-54590000D02*
X111736252Y-54590000D01*
X111213748Y-56060000D02*
X111736252Y-56060000D01*
%TO.C,C4*%
X124560000Y-70186252D02*
X124560000Y-69663748D01*
X123090000Y-70186252D02*
X123090000Y-69663748D01*
%TO.C,U10*%
X81404399Y-61359999D02*
X82804399Y-61359999D01*
X81804401Y-63260001D02*
X82804399Y-63260001D01*
%TO.C,U3*%
X120610000Y-76285000D02*
X120610000Y-76735000D01*
X113390000Y-76285000D02*
X113390000Y-76735000D01*
X113390000Y-69515000D02*
X113840000Y-69515000D01*
X120160000Y-69515000D02*
X120160000Y-68225000D01*
X120610000Y-69515000D02*
X120160000Y-69515000D01*
X120610000Y-76735000D02*
X120160000Y-76735000D01*
X113390000Y-76735000D02*
X113840000Y-76735000D01*
X120610000Y-69965000D02*
X120610000Y-69515000D01*
X113390000Y-69965000D02*
X113390000Y-69515000D01*
%TO.C,C17*%
X78121252Y-61535000D02*
X77598748Y-61535000D01*
X78121252Y-63005000D02*
X77598748Y-63005000D01*
%TO.C,C6*%
X120961252Y-67030001D02*
X120438748Y-67030001D01*
X120961252Y-65560001D02*
X120438748Y-65560001D01*
%TO.C,R19*%
X80025000Y-59507064D02*
X80025000Y-59052936D01*
X81495000Y-59507064D02*
X81495000Y-59052936D01*
%TO.C,SW1*%
X65425000Y-76000000D02*
X65425000Y-75500000D01*
X65425000Y-72800000D02*
X65925000Y-72800000D01*
X65425000Y-75200000D02*
X65425000Y-74400000D01*
X67325000Y-79400000D02*
X67325000Y-77700000D01*
X67325000Y-70200000D02*
X71125000Y-70200000D01*
X66225000Y-72800000D02*
X66725000Y-72800000D01*
X65425000Y-74400000D02*
X65425000Y-74400000D01*
X67325000Y-77700000D02*
X67025000Y-77700000D01*
X67325000Y-72700000D02*
X67025000Y-72700000D01*
X67325000Y-74400000D02*
X67325000Y-72700000D01*
X71125000Y-73000000D02*
X71125000Y-73000000D01*
X65925000Y-76800000D02*
X65925000Y-76800000D01*
X67325000Y-71900000D02*
X67325000Y-70200000D01*
X67025000Y-72700000D02*
X67025000Y-71900000D01*
X67025000Y-75200000D02*
X67025000Y-74400000D01*
X65425000Y-74100000D02*
X65425000Y-74100000D01*
X71125000Y-78000000D02*
X71125000Y-79400000D01*
X66225000Y-76800000D02*
X66725000Y-76800000D01*
X67325000Y-75200000D02*
X67025000Y-75200000D01*
X65425000Y-75500000D02*
X65425000Y-75500000D01*
X65425000Y-73300000D02*
X65425000Y-73300000D01*
X67325000Y-76900000D02*
X67325000Y-75200000D01*
X66725000Y-76800000D02*
X66725000Y-76800000D01*
X65425000Y-72800000D02*
X65425000Y-73300000D01*
X71125000Y-75500000D02*
X71125000Y-75500000D01*
X65925000Y-72800000D02*
X65925000Y-72800000D01*
X65425000Y-76800000D02*
X65925000Y-76800000D01*
X65425000Y-76800000D02*
X65425000Y-76300000D01*
X67325000Y-70200000D02*
X67325000Y-70200000D01*
X65425000Y-76300000D02*
X65425000Y-76300000D01*
X66725000Y-72800000D02*
X66725000Y-72800000D01*
X71125000Y-74100000D02*
X71125000Y-73000000D01*
X71125000Y-70200000D02*
X71125000Y-71600000D01*
X67025000Y-77700000D02*
X67025000Y-76900000D01*
X65425000Y-73600000D02*
X65425000Y-74100000D01*
X67025000Y-74400000D02*
X67325000Y-74400000D01*
X67025000Y-71900000D02*
X67325000Y-71900000D01*
X67025000Y-76900000D02*
X67325000Y-76900000D01*
X71125000Y-76600000D02*
X71125000Y-75500000D01*
X71125000Y-79400000D02*
X67325000Y-79400000D01*
%TO.C,R3*%
X124235000Y-80902064D02*
X124235000Y-80447936D01*
X122765000Y-80902064D02*
X122765000Y-80447936D01*
%TO.C,Y1*%
X110562500Y-56700000D02*
X110562500Y-60300000D01*
X117887500Y-56700000D02*
X110562500Y-56700000D01*
X110562500Y-60300000D02*
X117887500Y-60300000D01*
%TO.C,R15*%
X81275000Y-76474564D02*
X81275000Y-76020436D01*
X79805000Y-76474564D02*
X79805000Y-76020436D01*
%TO.C,C13*%
X77901252Y-78500000D02*
X77378748Y-78500000D01*
X77901252Y-79970000D02*
X77378748Y-79970000D01*
%TO.C,C9*%
X119161252Y-56060000D02*
X118638748Y-56060000D01*
X119161252Y-54590000D02*
X118638748Y-54590000D01*
%TO.C,R12*%
X99290000Y-71962936D02*
X99290000Y-72417064D01*
X100760000Y-71962936D02*
X100760000Y-72417064D01*
%TO.C,R11*%
X83575000Y-76020436D02*
X83575000Y-76474564D01*
X82105000Y-76020436D02*
X82105000Y-76474564D01*
%TO.C,R4*%
X90547064Y-56920000D02*
X90092936Y-56920000D01*
X90547064Y-55450000D02*
X90092936Y-55450000D01*
%TO.C,D1*%
X133600000Y-74460000D02*
X136285000Y-74460000D01*
X136285000Y-72540000D02*
X133600000Y-72540000D01*
X136285000Y-74460000D02*
X136285000Y-72540000D01*
D14*
%TO.C,U9*%
X133980000Y-83370000D02*
X133980000Y-81810000D01*
X132380000Y-81810000D02*
X132380000Y-83370000D01*
D17*
X132780000Y-84690000D02*
G75*
G03*
X132780000Y-84690000I-100000J0D01*
G01*
D12*
%TO.C,R17*%
X134985000Y-82332936D02*
X134985000Y-82787064D01*
X136455000Y-82332936D02*
X136455000Y-82787064D01*
%TD*%
M02*
