%TF.GenerationSoftware,KiCad,Pcbnew,6.0.2+dfsg-1*%
%TF.CreationDate,2023-05-28T23:34:27+02:00*%
%TF.ProjectId,weather_station,77656174-6865-4725-9f73-746174696f6e,rev?*%
%TF.SameCoordinates,Original*%
%TF.FileFunction,Legend,Top*%
%TF.FilePolarity,Positive*%
%FSLAX46Y46*%
G04 Gerber Fmt 4.6, Leading zero omitted, Abs format (unit mm)*
G04 Created by KiCad (PCBNEW 6.0.2+dfsg-1) date 2023-05-28 23:34:27*
%MOMM*%
%LPD*%
G01*
G04 APERTURE LIST*
%TA.AperFunction,Profile*%
%ADD10C,0.100000*%
%TD*%
%ADD11C,0.100000*%
%ADD12C,0.150000*%
%ADD13C,0.120000*%
%ADD14C,0.249999*%
%ADD15C,0.127000*%
%ADD16C,0.300000*%
%ADD17C,0.250000*%
%ADD18C,0.200000*%
G04 APERTURE END LIST*
D10*
X66600000Y-53600000D02*
X156600000Y-53600000D01*
X156600000Y-53600000D02*
X156600000Y-85600000D01*
X156600000Y-85600000D02*
X66600000Y-85600000D01*
X66600000Y-85600000D02*
X66600000Y-53600000D01*
D11*
X91082857Y-80631785D02*
X91261428Y-81381785D01*
X91404285Y-80846071D01*
X91547142Y-81381785D01*
X91725714Y-80631785D01*
X92297142Y-81346071D02*
X92225714Y-81381785D01*
X92082857Y-81381785D01*
X92011428Y-81346071D01*
X91975714Y-81274642D01*
X91975714Y-80988928D01*
X92011428Y-80917500D01*
X92082857Y-80881785D01*
X92225714Y-80881785D01*
X92297142Y-80917500D01*
X92332857Y-80988928D01*
X92332857Y-81060357D01*
X91975714Y-81131785D01*
X92975714Y-81381785D02*
X92975714Y-80988928D01*
X92940000Y-80917500D01*
X92868571Y-80881785D01*
X92725714Y-80881785D01*
X92654285Y-80917500D01*
X92975714Y-81346071D02*
X92904285Y-81381785D01*
X92725714Y-81381785D01*
X92654285Y-81346071D01*
X92618571Y-81274642D01*
X92618571Y-81203214D01*
X92654285Y-81131785D01*
X92725714Y-81096071D01*
X92904285Y-81096071D01*
X92975714Y-81060357D01*
X93225714Y-80881785D02*
X93511428Y-80881785D01*
X93332857Y-80631785D02*
X93332857Y-81274642D01*
X93368571Y-81346071D01*
X93440000Y-81381785D01*
X93511428Y-81381785D01*
X93761428Y-81381785D02*
X93761428Y-80631785D01*
X94082857Y-81381785D02*
X94082857Y-80988928D01*
X94047142Y-80917500D01*
X93975714Y-80881785D01*
X93868571Y-80881785D01*
X93797142Y-80917500D01*
X93761428Y-80953214D01*
X94725714Y-81346071D02*
X94654285Y-81381785D01*
X94511428Y-81381785D01*
X94440000Y-81346071D01*
X94404285Y-81274642D01*
X94404285Y-80988928D01*
X94440000Y-80917500D01*
X94511428Y-80881785D01*
X94654285Y-80881785D01*
X94725714Y-80917500D01*
X94761428Y-80988928D01*
X94761428Y-81060357D01*
X94404285Y-81131785D01*
X95082857Y-81381785D02*
X95082857Y-80881785D01*
X95082857Y-81024642D02*
X95118571Y-80953214D01*
X95154285Y-80917500D01*
X95225714Y-80881785D01*
X95297142Y-80881785D01*
X96082857Y-81346071D02*
X96190000Y-81381785D01*
X96368571Y-81381785D01*
X96440000Y-81346071D01*
X96475714Y-81310357D01*
X96511428Y-81238928D01*
X96511428Y-81167500D01*
X96475714Y-81096071D01*
X96440000Y-81060357D01*
X96368571Y-81024642D01*
X96225714Y-80988928D01*
X96154285Y-80953214D01*
X96118571Y-80917500D01*
X96082857Y-80846071D01*
X96082857Y-80774642D01*
X96118571Y-80703214D01*
X96154285Y-80667500D01*
X96225714Y-80631785D01*
X96404285Y-80631785D01*
X96511428Y-80667500D01*
X96725714Y-80881785D02*
X97011428Y-80881785D01*
X96832857Y-80631785D02*
X96832857Y-81274642D01*
X96868571Y-81346071D01*
X96940000Y-81381785D01*
X97011428Y-81381785D01*
X97582857Y-81381785D02*
X97582857Y-80988928D01*
X97547142Y-80917500D01*
X97475714Y-80881785D01*
X97332857Y-80881785D01*
X97261428Y-80917500D01*
X97582857Y-81346071D02*
X97511428Y-81381785D01*
X97332857Y-81381785D01*
X97261428Y-81346071D01*
X97225714Y-81274642D01*
X97225714Y-81203214D01*
X97261428Y-81131785D01*
X97332857Y-81096071D01*
X97511428Y-81096071D01*
X97582857Y-81060357D01*
X97832857Y-80881785D02*
X98118571Y-80881785D01*
X97940000Y-80631785D02*
X97940000Y-81274642D01*
X97975714Y-81346071D01*
X98047142Y-81381785D01*
X98118571Y-81381785D01*
X98368571Y-81381785D02*
X98368571Y-80881785D01*
X98368571Y-80631785D02*
X98332857Y-80667500D01*
X98368571Y-80703214D01*
X98404285Y-80667500D01*
X98368571Y-80631785D01*
X98368571Y-80703214D01*
X98832857Y-81381785D02*
X98761428Y-81346071D01*
X98725714Y-81310357D01*
X98690000Y-81238928D01*
X98690000Y-81024642D01*
X98725714Y-80953214D01*
X98761428Y-80917500D01*
X98832857Y-80881785D01*
X98940000Y-80881785D01*
X99011428Y-80917500D01*
X99047142Y-80953214D01*
X99082857Y-81024642D01*
X99082857Y-81238928D01*
X99047142Y-81310357D01*
X99011428Y-81346071D01*
X98940000Y-81381785D01*
X98832857Y-81381785D01*
X99404285Y-80881785D02*
X99404285Y-81381785D01*
X99404285Y-80953214D02*
X99440000Y-80917500D01*
X99511428Y-80881785D01*
X99618571Y-80881785D01*
X99690000Y-80917500D01*
X99725714Y-80988928D01*
X99725714Y-81381785D01*
X91582857Y-81839285D02*
X91582857Y-82375000D01*
X91547142Y-82482142D01*
X91475714Y-82553571D01*
X91368571Y-82589285D01*
X91297142Y-82589285D01*
X92261428Y-82589285D02*
X92261428Y-82196428D01*
X92225714Y-82125000D01*
X92154285Y-82089285D01*
X92011428Y-82089285D01*
X91940000Y-82125000D01*
X92261428Y-82553571D02*
X92190000Y-82589285D01*
X92011428Y-82589285D01*
X91940000Y-82553571D01*
X91904285Y-82482142D01*
X91904285Y-82410714D01*
X91940000Y-82339285D01*
X92011428Y-82303571D01*
X92190000Y-82303571D01*
X92261428Y-82267857D01*
X92618571Y-82589285D02*
X92618571Y-81839285D01*
X92690000Y-82303571D02*
X92904285Y-82589285D01*
X92904285Y-82089285D02*
X92618571Y-82375000D01*
X93547142Y-82089285D02*
X93547142Y-82589285D01*
X93225714Y-82089285D02*
X93225714Y-82482142D01*
X93261428Y-82553571D01*
X93332857Y-82589285D01*
X93440000Y-82589285D01*
X93511428Y-82553571D01*
X93547142Y-82517857D01*
X93904285Y-82589285D02*
X93904285Y-81839285D01*
X93904285Y-82125000D02*
X93975714Y-82089285D01*
X94118571Y-82089285D01*
X94190000Y-82125000D01*
X94225714Y-82160714D01*
X94261428Y-82232142D01*
X94261428Y-82446428D01*
X94225714Y-82517857D01*
X94190000Y-82553571D01*
X94118571Y-82589285D01*
X93975714Y-82589285D01*
X93904285Y-82553571D01*
X95547142Y-81875000D02*
X95475714Y-81839285D01*
X95368571Y-81839285D01*
X95261428Y-81875000D01*
X95190000Y-81946428D01*
X95154285Y-82017857D01*
X95118571Y-82160714D01*
X95118571Y-82267857D01*
X95154285Y-82410714D01*
X95190000Y-82482142D01*
X95261428Y-82553571D01*
X95368571Y-82589285D01*
X95440000Y-82589285D01*
X95547142Y-82553571D01*
X95582857Y-82517857D01*
X95582857Y-82267857D01*
X95440000Y-82267857D01*
X95904285Y-82589285D02*
X95904285Y-82089285D01*
X95904285Y-82232142D02*
X95940000Y-82160714D01*
X95975714Y-82125000D01*
X96047142Y-82089285D01*
X96118571Y-82089285D01*
X96297142Y-82089285D02*
X96690000Y-82089285D01*
X96297142Y-82589285D01*
X96690000Y-82589285D01*
X97261428Y-82553571D02*
X97190000Y-82589285D01*
X97047142Y-82589285D01*
X96975714Y-82553571D01*
X96940000Y-82482142D01*
X96940000Y-82196428D01*
X96975714Y-82125000D01*
X97047142Y-82089285D01*
X97190000Y-82089285D01*
X97261428Y-82125000D01*
X97297142Y-82196428D01*
X97297142Y-82267857D01*
X96940000Y-82339285D01*
X97582857Y-82553571D02*
X97654285Y-82589285D01*
X97797142Y-82589285D01*
X97868571Y-82553571D01*
X97904285Y-82482142D01*
X97904285Y-82446428D01*
X97868571Y-82375000D01*
X97797142Y-82339285D01*
X97690000Y-82339285D01*
X97618571Y-82303571D01*
X97582857Y-82232142D01*
X97582857Y-82196428D01*
X97618571Y-82125000D01*
X97690000Y-82089285D01*
X97797142Y-82089285D01*
X97868571Y-82125000D01*
X98225714Y-82589285D02*
X98225714Y-82089285D01*
X98225714Y-81839285D02*
X98190000Y-81875000D01*
X98225714Y-81910714D01*
X98261428Y-81875000D01*
X98225714Y-81839285D01*
X98225714Y-81910714D01*
X98904285Y-82589285D02*
X98904285Y-82196428D01*
X98868571Y-82125000D01*
X98797142Y-82089285D01*
X98654285Y-82089285D01*
X98582857Y-82125000D01*
X98904285Y-82553571D02*
X98832857Y-82589285D01*
X98654285Y-82589285D01*
X98582857Y-82553571D01*
X98547142Y-82482142D01*
X98547142Y-82410714D01*
X98582857Y-82339285D01*
X98654285Y-82303571D01*
X98832857Y-82303571D01*
X98904285Y-82267857D01*
X99261428Y-82589285D02*
X99261428Y-81839285D01*
X99332857Y-82303571D02*
X99547142Y-82589285D01*
X99547142Y-82089285D02*
X99261428Y-82375000D01*
X92332857Y-83118214D02*
X92368571Y-83082500D01*
X92440000Y-83046785D01*
X92618571Y-83046785D01*
X92690000Y-83082500D01*
X92725714Y-83118214D01*
X92761428Y-83189642D01*
X92761428Y-83261071D01*
X92725714Y-83368214D01*
X92297142Y-83796785D01*
X92761428Y-83796785D01*
X93225714Y-83046785D02*
X93297142Y-83046785D01*
X93368571Y-83082500D01*
X93404285Y-83118214D01*
X93440000Y-83189642D01*
X93475714Y-83332500D01*
X93475714Y-83511071D01*
X93440000Y-83653928D01*
X93404285Y-83725357D01*
X93368571Y-83761071D01*
X93297142Y-83796785D01*
X93225714Y-83796785D01*
X93154285Y-83761071D01*
X93118571Y-83725357D01*
X93082857Y-83653928D01*
X93047142Y-83511071D01*
X93047142Y-83332500D01*
X93082857Y-83189642D01*
X93118571Y-83118214D01*
X93154285Y-83082500D01*
X93225714Y-83046785D01*
X93761428Y-83118214D02*
X93797142Y-83082500D01*
X93868571Y-83046785D01*
X94047142Y-83046785D01*
X94118571Y-83082500D01*
X94154285Y-83118214D01*
X94190000Y-83189642D01*
X94190000Y-83261071D01*
X94154285Y-83368214D01*
X93725714Y-83796785D01*
X94190000Y-83796785D01*
X94475714Y-83118214D02*
X94511428Y-83082500D01*
X94582857Y-83046785D01*
X94761428Y-83046785D01*
X94832857Y-83082500D01*
X94868571Y-83118214D01*
X94904285Y-83189642D01*
X94904285Y-83261071D01*
X94868571Y-83368214D01*
X94440000Y-83796785D01*
X94904285Y-83796785D01*
X95761428Y-83011071D02*
X95118571Y-83975357D01*
X95975714Y-83118214D02*
X96011428Y-83082500D01*
X96082857Y-83046785D01*
X96261428Y-83046785D01*
X96332857Y-83082500D01*
X96368571Y-83118214D01*
X96404285Y-83189642D01*
X96404285Y-83261071D01*
X96368571Y-83368214D01*
X95940000Y-83796785D01*
X96404285Y-83796785D01*
X96868571Y-83046785D02*
X96940000Y-83046785D01*
X97011428Y-83082500D01*
X97047142Y-83118214D01*
X97082857Y-83189642D01*
X97118571Y-83332500D01*
X97118571Y-83511071D01*
X97082857Y-83653928D01*
X97047142Y-83725357D01*
X97011428Y-83761071D01*
X96940000Y-83796785D01*
X96868571Y-83796785D01*
X96797142Y-83761071D01*
X96761428Y-83725357D01*
X96725714Y-83653928D01*
X96690000Y-83511071D01*
X96690000Y-83332500D01*
X96725714Y-83189642D01*
X96761428Y-83118214D01*
X96797142Y-83082500D01*
X96868571Y-83046785D01*
X97404285Y-83118214D02*
X97440000Y-83082500D01*
X97511428Y-83046785D01*
X97690000Y-83046785D01*
X97761428Y-83082500D01*
X97797142Y-83118214D01*
X97832857Y-83189642D01*
X97832857Y-83261071D01*
X97797142Y-83368214D01*
X97368571Y-83796785D01*
X97832857Y-83796785D01*
X98082857Y-83046785D02*
X98547142Y-83046785D01*
X98297142Y-83332500D01*
X98404285Y-83332500D01*
X98475714Y-83368214D01*
X98511428Y-83403928D01*
X98547142Y-83475357D01*
X98547142Y-83653928D01*
X98511428Y-83725357D01*
X98475714Y-83761071D01*
X98404285Y-83796785D01*
X98190000Y-83796785D01*
X98118571Y-83761071D01*
X98082857Y-83725357D01*
D12*
%TO.C,L2*%
X77371223Y-66282380D02*
X76799795Y-66282380D01*
X77085509Y-66282380D02*
X77085509Y-65282380D01*
X76990271Y-65425238D01*
X76895033Y-65520476D01*
X76799795Y-65568095D01*
X78228366Y-65615714D02*
X78228366Y-66282380D01*
X77799795Y-65615714D02*
X77799795Y-66139523D01*
X77847414Y-66234761D01*
X77942652Y-66282380D01*
X78085509Y-66282380D01*
X78180747Y-66234761D01*
X78228366Y-66187142D01*
X78704557Y-66282380D02*
X78704557Y-65282380D01*
X78704557Y-65758571D02*
X79275985Y-65758571D01*
X79275985Y-66282380D02*
X79275985Y-65282380D01*
X81037890Y-66282380D02*
X80466461Y-66282380D01*
X80752176Y-66282380D02*
X80752176Y-65282380D01*
X80656938Y-65425238D01*
X80561700Y-65520476D01*
X80466461Y-65568095D01*
X81371223Y-65282380D02*
X82037890Y-65282380D01*
X81609319Y-66282380D01*
X82418842Y-66282380D02*
X82418842Y-65615714D01*
X82418842Y-65710952D02*
X82466461Y-65663333D01*
X82561700Y-65615714D01*
X82704557Y-65615714D01*
X82799795Y-65663333D01*
X82847414Y-65758571D01*
X82847414Y-66282380D01*
X82847414Y-65758571D02*
X82895033Y-65663333D01*
X82990271Y-65615714D01*
X83133128Y-65615714D01*
X83228366Y-65663333D01*
X83275985Y-65758571D01*
X83275985Y-66282380D01*
X84323604Y-66282380D02*
X83990271Y-65806190D01*
X83752176Y-66282380D02*
X83752176Y-65282380D01*
X84133128Y-65282380D01*
X84228366Y-65330000D01*
X84275985Y-65377619D01*
X84323604Y-65472857D01*
X84323604Y-65615714D01*
X84275985Y-65710952D01*
X84228366Y-65758571D01*
X84133128Y-65806190D01*
X83752176Y-65806190D01*
X80561700Y-65282380D02*
X80561700Y-65520476D01*
X80323604Y-65425238D02*
X80561700Y-65520476D01*
X80799795Y-65425238D01*
X80418842Y-65710952D02*
X80561700Y-65520476D01*
X80704557Y-65710952D01*
%TO.C,U7*%
X76346780Y-80907380D02*
X76918209Y-80907380D01*
X76632495Y-81907380D02*
X76632495Y-80907380D01*
X77251542Y-81907380D02*
X77251542Y-80907380D01*
X77632495Y-80907380D01*
X77727733Y-80955000D01*
X77775352Y-81002619D01*
X77822971Y-81097857D01*
X77822971Y-81240714D01*
X77775352Y-81335952D01*
X77727733Y-81383571D01*
X77632495Y-81431190D01*
X77251542Y-81431190D01*
X78203923Y-81859761D02*
X78346780Y-81907380D01*
X78584876Y-81907380D01*
X78680114Y-81859761D01*
X78727733Y-81812142D01*
X78775352Y-81716904D01*
X78775352Y-81621666D01*
X78727733Y-81526428D01*
X78680114Y-81478809D01*
X78584876Y-81431190D01*
X78394400Y-81383571D01*
X78299161Y-81335952D01*
X78251542Y-81288333D01*
X78203923Y-81193095D01*
X78203923Y-81097857D01*
X78251542Y-81002619D01*
X78299161Y-80955000D01*
X78394400Y-80907380D01*
X78632495Y-80907380D01*
X78775352Y-80955000D01*
X79632495Y-80907380D02*
X79442019Y-80907380D01*
X79346780Y-80955000D01*
X79299161Y-81002619D01*
X79203923Y-81145476D01*
X79156304Y-81335952D01*
X79156304Y-81716904D01*
X79203923Y-81812142D01*
X79251542Y-81859761D01*
X79346780Y-81907380D01*
X79537257Y-81907380D01*
X79632495Y-81859761D01*
X79680114Y-81812142D01*
X79727733Y-81716904D01*
X79727733Y-81478809D01*
X79680114Y-81383571D01*
X79632495Y-81335952D01*
X79537257Y-81288333D01*
X79346780Y-81288333D01*
X79251542Y-81335952D01*
X79203923Y-81383571D01*
X79156304Y-81478809D01*
X80680114Y-81907380D02*
X80108685Y-81907380D01*
X80394400Y-81907380D02*
X80394400Y-80907380D01*
X80299161Y-81050238D01*
X80203923Y-81145476D01*
X80108685Y-81193095D01*
X81299161Y-80907380D02*
X81394400Y-80907380D01*
X81489638Y-80955000D01*
X81537257Y-81002619D01*
X81584876Y-81097857D01*
X81632495Y-81288333D01*
X81632495Y-81526428D01*
X81584876Y-81716904D01*
X81537257Y-81812142D01*
X81489638Y-81859761D01*
X81394400Y-81907380D01*
X81299161Y-81907380D01*
X81203923Y-81859761D01*
X81156304Y-81812142D01*
X81108685Y-81716904D01*
X81061066Y-81526428D01*
X81061066Y-81288333D01*
X81108685Y-81097857D01*
X81156304Y-81002619D01*
X81203923Y-80955000D01*
X81299161Y-80907380D01*
X82013447Y-81002619D02*
X82061066Y-80955000D01*
X82156304Y-80907380D01*
X82394400Y-80907380D01*
X82489638Y-80955000D01*
X82537257Y-81002619D01*
X82584876Y-81097857D01*
X82584876Y-81193095D01*
X82537257Y-81335952D01*
X81965828Y-81907380D01*
X82584876Y-81907380D01*
X82918209Y-80907380D02*
X83537257Y-80907380D01*
X83203923Y-81288333D01*
X83346780Y-81288333D01*
X83442019Y-81335952D01*
X83489638Y-81383571D01*
X83537257Y-81478809D01*
X83537257Y-81716904D01*
X83489638Y-81812142D01*
X83442019Y-81859761D01*
X83346780Y-81907380D01*
X83061066Y-81907380D01*
X82965828Y-81859761D01*
X82918209Y-81812142D01*
X83965828Y-81907380D02*
X83965828Y-80907380D01*
X84203923Y-80907380D01*
X84346780Y-80955000D01*
X84442019Y-81050238D01*
X84489638Y-81145476D01*
X84537257Y-81335952D01*
X84537257Y-81478809D01*
X84489638Y-81669285D01*
X84442019Y-81764523D01*
X84346780Y-81859761D01*
X84203923Y-81907380D01*
X83965828Y-81907380D01*
X85537257Y-81907380D02*
X85203923Y-81431190D01*
X84965828Y-81907380D02*
X84965828Y-80907380D01*
X85346780Y-80907380D01*
X85442019Y-80955000D01*
X85489638Y-81002619D01*
X85537257Y-81097857D01*
X85537257Y-81240714D01*
X85489638Y-81335952D01*
X85442019Y-81383571D01*
X85346780Y-81431190D01*
X84965828Y-81431190D01*
X86442019Y-81907380D02*
X85965828Y-81907380D01*
X85965828Y-80907380D01*
X87346780Y-81907380D02*
X87013447Y-81431190D01*
X86775352Y-81907380D02*
X86775352Y-80907380D01*
X87156304Y-80907380D01*
X87251542Y-80955000D01*
X87299161Y-81002619D01*
X87346780Y-81097857D01*
X87346780Y-81240714D01*
X87299161Y-81335952D01*
X87251542Y-81383571D01*
X87156304Y-81431190D01*
X86775352Y-81431190D01*
X82084400Y-78727380D02*
X82084400Y-78965476D01*
X81846304Y-78870238D02*
X82084400Y-78965476D01*
X82322495Y-78870238D01*
X81941542Y-79155952D02*
X82084400Y-78965476D01*
X82227257Y-79155952D01*
%TO.C,L1*%
X77111223Y-86527380D02*
X76539795Y-86527380D01*
X76825509Y-86527380D02*
X76825509Y-85527380D01*
X76730271Y-85670238D01*
X76635033Y-85765476D01*
X76539795Y-85813095D01*
X77968366Y-85860714D02*
X77968366Y-86527380D01*
X77539795Y-85860714D02*
X77539795Y-86384523D01*
X77587414Y-86479761D01*
X77682652Y-86527380D01*
X77825509Y-86527380D01*
X77920747Y-86479761D01*
X77968366Y-86432142D01*
X78444557Y-86527380D02*
X78444557Y-85527380D01*
X78444557Y-86003571D02*
X79015985Y-86003571D01*
X79015985Y-86527380D02*
X79015985Y-85527380D01*
X80777890Y-86527380D02*
X80206461Y-86527380D01*
X80492176Y-86527380D02*
X80492176Y-85527380D01*
X80396938Y-85670238D01*
X80301700Y-85765476D01*
X80206461Y-85813095D01*
X81111223Y-85527380D02*
X81777890Y-85527380D01*
X81349319Y-86527380D01*
X82158842Y-86527380D02*
X82158842Y-85860714D01*
X82158842Y-85955952D02*
X82206461Y-85908333D01*
X82301700Y-85860714D01*
X82444557Y-85860714D01*
X82539795Y-85908333D01*
X82587414Y-86003571D01*
X82587414Y-86527380D01*
X82587414Y-86003571D02*
X82635033Y-85908333D01*
X82730271Y-85860714D01*
X82873128Y-85860714D01*
X82968366Y-85908333D01*
X83015985Y-86003571D01*
X83015985Y-86527380D01*
X84063604Y-86527380D02*
X83730271Y-86051190D01*
X83492176Y-86527380D02*
X83492176Y-85527380D01*
X83873128Y-85527380D01*
X83968366Y-85575000D01*
X84015985Y-85622619D01*
X84063604Y-85717857D01*
X84063604Y-85860714D01*
X84015985Y-85955952D01*
X83968366Y-86003571D01*
X83873128Y-86051190D01*
X83492176Y-86051190D01*
X80341700Y-82247380D02*
X80341700Y-82485476D01*
X80103604Y-82390238D02*
X80341700Y-82485476D01*
X80579795Y-82390238D01*
X80198842Y-82675952D02*
X80341700Y-82485476D01*
X80484557Y-82675952D01*
%TO.C,U4*%
X131749523Y-65081904D02*
X130479523Y-65081904D01*
X131749523Y-64356190D02*
X131023809Y-64900476D01*
X130479523Y-64356190D02*
X131205238Y-65081904D01*
X131749523Y-63811904D02*
X130479523Y-63811904D01*
X130479523Y-63328095D01*
X130540000Y-63207142D01*
X130600476Y-63146666D01*
X130721428Y-63086190D01*
X130902857Y-63086190D01*
X131023809Y-63146666D01*
X131084285Y-63207142D01*
X131144761Y-63328095D01*
X131144761Y-63811904D01*
X130600476Y-62602380D02*
X130540000Y-62541904D01*
X130479523Y-62420952D01*
X130479523Y-62118571D01*
X130540000Y-61997619D01*
X130600476Y-61937142D01*
X130721428Y-61876666D01*
X130842380Y-61876666D01*
X131023809Y-61937142D01*
X131749523Y-62662857D01*
X131749523Y-61876666D01*
X130479523Y-60727619D02*
X130479523Y-61332380D01*
X131084285Y-61392857D01*
X131023809Y-61332380D01*
X130963333Y-61211428D01*
X130963333Y-60909047D01*
X131023809Y-60788095D01*
X131084285Y-60727619D01*
X131205238Y-60667142D01*
X131507619Y-60667142D01*
X131628571Y-60727619D01*
X131689047Y-60788095D01*
X131749523Y-60909047D01*
X131749523Y-61211428D01*
X131689047Y-61332380D01*
X131628571Y-61392857D01*
X130902857Y-59578571D02*
X131749523Y-59578571D01*
X130419047Y-59880952D02*
X131326190Y-60183333D01*
X131326190Y-59397142D01*
%TO.C,U5*%
X107154523Y-91125476D02*
X105884523Y-91125476D01*
X106489285Y-91125476D02*
X106489285Y-90399761D01*
X107154523Y-90399761D02*
X105884523Y-90399761D01*
X107154523Y-89795000D02*
X105884523Y-89795000D01*
X107154523Y-89190238D02*
X105884523Y-89190238D01*
X106489285Y-89190238D02*
X106489285Y-88464523D01*
X107154523Y-88464523D02*
X105884523Y-88464523D01*
X105884523Y-87315476D02*
X105884523Y-87557380D01*
X105945000Y-87678333D01*
X106005476Y-87738809D01*
X106186904Y-87859761D01*
X106428809Y-87920238D01*
X106912619Y-87920238D01*
X107033571Y-87859761D01*
X107094047Y-87799285D01*
X107154523Y-87678333D01*
X107154523Y-87436428D01*
X107094047Y-87315476D01*
X107033571Y-87255000D01*
X106912619Y-87194523D01*
X106610238Y-87194523D01*
X106489285Y-87255000D01*
X106428809Y-87315476D01*
X106368333Y-87436428D01*
X106368333Y-87678333D01*
X106428809Y-87799285D01*
X106489285Y-87859761D01*
X106610238Y-87920238D01*
X105884523Y-86408333D02*
X105884523Y-86287380D01*
X105945000Y-86166428D01*
X106005476Y-86105952D01*
X106126428Y-86045476D01*
X106368333Y-85985000D01*
X106670714Y-85985000D01*
X106912619Y-86045476D01*
X107033571Y-86105952D01*
X107094047Y-86166428D01*
X107154523Y-86287380D01*
X107154523Y-86408333D01*
X107094047Y-86529285D01*
X107033571Y-86589761D01*
X106912619Y-86650238D01*
X106670714Y-86710714D01*
X106368333Y-86710714D01*
X106126428Y-86650238D01*
X106005476Y-86589761D01*
X105945000Y-86529285D01*
X105884523Y-86408333D01*
X106005476Y-85501190D02*
X105945000Y-85440714D01*
X105884523Y-85319761D01*
X105884523Y-85017380D01*
X105945000Y-84896428D01*
X106005476Y-84835952D01*
X106126428Y-84775476D01*
X106247380Y-84775476D01*
X106428809Y-84835952D01*
X107154523Y-85561666D01*
X107154523Y-84775476D01*
X105884523Y-83989285D02*
X105884523Y-83868333D01*
X105945000Y-83747380D01*
X106005476Y-83686904D01*
X106126428Y-83626428D01*
X106368333Y-83565952D01*
X106670714Y-83565952D01*
X106912619Y-83626428D01*
X107033571Y-83686904D01*
X107094047Y-83747380D01*
X107154523Y-83868333D01*
X107154523Y-83989285D01*
X107094047Y-84110238D01*
X107033571Y-84170714D01*
X106912619Y-84231190D01*
X106670714Y-84291666D01*
X106368333Y-84291666D01*
X106126428Y-84231190D01*
X106005476Y-84170714D01*
X105945000Y-84110238D01*
X105884523Y-83989285D01*
X106670714Y-83021666D02*
X106670714Y-82054047D01*
X105884523Y-81207380D02*
X105884523Y-81086428D01*
X105945000Y-80965476D01*
X106005476Y-80905000D01*
X106126428Y-80844523D01*
X106368333Y-80784047D01*
X106670714Y-80784047D01*
X106912619Y-80844523D01*
X107033571Y-80905000D01*
X107094047Y-80965476D01*
X107154523Y-81086428D01*
X107154523Y-81207380D01*
X107094047Y-81328333D01*
X107033571Y-81388809D01*
X106912619Y-81449285D01*
X106670714Y-81509761D01*
X106368333Y-81509761D01*
X106126428Y-81449285D01*
X106005476Y-81388809D01*
X105945000Y-81328333D01*
X105884523Y-81207380D01*
X106005476Y-80300238D02*
X105945000Y-80239761D01*
X105884523Y-80118809D01*
X105884523Y-79816428D01*
X105945000Y-79695476D01*
X106005476Y-79635000D01*
X106126428Y-79574523D01*
X106247380Y-79574523D01*
X106428809Y-79635000D01*
X107154523Y-80360714D01*
X107154523Y-79574523D01*
X107154523Y-78365000D02*
X107154523Y-79090714D01*
X107154523Y-78727857D02*
X105884523Y-78727857D01*
X106065952Y-78848809D01*
X106186904Y-78969761D01*
X106247380Y-79090714D01*
X106670714Y-77820714D02*
X106670714Y-76853095D01*
X105884523Y-76006428D02*
X105884523Y-75885476D01*
X105945000Y-75764523D01*
X106005476Y-75704047D01*
X106126428Y-75643571D01*
X106368333Y-75583095D01*
X106670714Y-75583095D01*
X106912619Y-75643571D01*
X107033571Y-75704047D01*
X107094047Y-75764523D01*
X107154523Y-75885476D01*
X107154523Y-76006428D01*
X107094047Y-76127380D01*
X107033571Y-76187857D01*
X106912619Y-76248333D01*
X106670714Y-76308809D01*
X106368333Y-76308809D01*
X106126428Y-76248333D01*
X106005476Y-76187857D01*
X105945000Y-76127380D01*
X105884523Y-76006428D01*
X105884523Y-74796904D02*
X105884523Y-74675952D01*
X105945000Y-74555000D01*
X106005476Y-74494523D01*
X106126428Y-74434047D01*
X106368333Y-74373571D01*
X106670714Y-74373571D01*
X106912619Y-74434047D01*
X107033571Y-74494523D01*
X107094047Y-74555000D01*
X107154523Y-74675952D01*
X107154523Y-74796904D01*
X107094047Y-74917857D01*
X107033571Y-74978333D01*
X106912619Y-75038809D01*
X106670714Y-75099285D01*
X106368333Y-75099285D01*
X106126428Y-75038809D01*
X106005476Y-74978333D01*
X105945000Y-74917857D01*
X105884523Y-74796904D01*
X107154523Y-73164047D02*
X107154523Y-73889761D01*
X107154523Y-73526904D02*
X105884523Y-73526904D01*
X106065952Y-73647857D01*
X106186904Y-73768809D01*
X106247380Y-73889761D01*
%TO.C,U10*%
X76756780Y-61762380D02*
X77328209Y-61762380D01*
X77042495Y-62762380D02*
X77042495Y-61762380D01*
X77661542Y-62762380D02*
X77661542Y-61762380D01*
X78042495Y-61762380D01*
X78137733Y-61810000D01*
X78185352Y-61857619D01*
X78232971Y-61952857D01*
X78232971Y-62095714D01*
X78185352Y-62190952D01*
X78137733Y-62238571D01*
X78042495Y-62286190D01*
X77661542Y-62286190D01*
X78613923Y-62714761D02*
X78756780Y-62762380D01*
X78994876Y-62762380D01*
X79090114Y-62714761D01*
X79137733Y-62667142D01*
X79185352Y-62571904D01*
X79185352Y-62476666D01*
X79137733Y-62381428D01*
X79090114Y-62333809D01*
X78994876Y-62286190D01*
X78804400Y-62238571D01*
X78709161Y-62190952D01*
X78661542Y-62143333D01*
X78613923Y-62048095D01*
X78613923Y-61952857D01*
X78661542Y-61857619D01*
X78709161Y-61810000D01*
X78804400Y-61762380D01*
X79042495Y-61762380D01*
X79185352Y-61810000D01*
X80042495Y-61762380D02*
X79852019Y-61762380D01*
X79756780Y-61810000D01*
X79709161Y-61857619D01*
X79613923Y-62000476D01*
X79566304Y-62190952D01*
X79566304Y-62571904D01*
X79613923Y-62667142D01*
X79661542Y-62714761D01*
X79756780Y-62762380D01*
X79947257Y-62762380D01*
X80042495Y-62714761D01*
X80090114Y-62667142D01*
X80137733Y-62571904D01*
X80137733Y-62333809D01*
X80090114Y-62238571D01*
X80042495Y-62190952D01*
X79947257Y-62143333D01*
X79756780Y-62143333D01*
X79661542Y-62190952D01*
X79613923Y-62238571D01*
X79566304Y-62333809D01*
X81090114Y-62762380D02*
X80518685Y-62762380D01*
X80804400Y-62762380D02*
X80804400Y-61762380D01*
X80709161Y-61905238D01*
X80613923Y-62000476D01*
X80518685Y-62048095D01*
X81709161Y-61762380D02*
X81804400Y-61762380D01*
X81899638Y-61810000D01*
X81947257Y-61857619D01*
X81994876Y-61952857D01*
X82042495Y-62143333D01*
X82042495Y-62381428D01*
X81994876Y-62571904D01*
X81947257Y-62667142D01*
X81899638Y-62714761D01*
X81804400Y-62762380D01*
X81709161Y-62762380D01*
X81613923Y-62714761D01*
X81566304Y-62667142D01*
X81518685Y-62571904D01*
X81471066Y-62381428D01*
X81471066Y-62143333D01*
X81518685Y-61952857D01*
X81566304Y-61857619D01*
X81613923Y-61810000D01*
X81709161Y-61762380D01*
X82423447Y-61857619D02*
X82471066Y-61810000D01*
X82566304Y-61762380D01*
X82804400Y-61762380D01*
X82899638Y-61810000D01*
X82947257Y-61857619D01*
X82994876Y-61952857D01*
X82994876Y-62048095D01*
X82947257Y-62190952D01*
X82375828Y-62762380D01*
X82994876Y-62762380D01*
X83328209Y-61762380D02*
X83947257Y-61762380D01*
X83613923Y-62143333D01*
X83756780Y-62143333D01*
X83852019Y-62190952D01*
X83899638Y-62238571D01*
X83947257Y-62333809D01*
X83947257Y-62571904D01*
X83899638Y-62667142D01*
X83852019Y-62714761D01*
X83756780Y-62762380D01*
X83471066Y-62762380D01*
X83375828Y-62714761D01*
X83328209Y-62667142D01*
X84375828Y-62762380D02*
X84375828Y-61762380D01*
X84613923Y-61762380D01*
X84756780Y-61810000D01*
X84852019Y-61905238D01*
X84899638Y-62000476D01*
X84947257Y-62190952D01*
X84947257Y-62333809D01*
X84899638Y-62524285D01*
X84852019Y-62619523D01*
X84756780Y-62714761D01*
X84613923Y-62762380D01*
X84375828Y-62762380D01*
X85947257Y-62762380D02*
X85613923Y-62286190D01*
X85375828Y-62762380D02*
X85375828Y-61762380D01*
X85756780Y-61762380D01*
X85852019Y-61810000D01*
X85899638Y-61857619D01*
X85947257Y-61952857D01*
X85947257Y-62095714D01*
X85899638Y-62190952D01*
X85852019Y-62238571D01*
X85756780Y-62286190D01*
X85375828Y-62286190D01*
X86852019Y-62762380D02*
X86375828Y-62762380D01*
X86375828Y-61762380D01*
X87756780Y-62762380D02*
X87423447Y-62286190D01*
X87185352Y-62762380D02*
X87185352Y-61762380D01*
X87566304Y-61762380D01*
X87661542Y-61810000D01*
X87709161Y-61857619D01*
X87756780Y-61952857D01*
X87756780Y-62095714D01*
X87709161Y-62190952D01*
X87661542Y-62238571D01*
X87566304Y-62286190D01*
X87185352Y-62286190D01*
X82304400Y-61762380D02*
X82304400Y-62000476D01*
X82066304Y-61905238D02*
X82304400Y-62000476D01*
X82542495Y-61905238D01*
X82161542Y-62190952D02*
X82304400Y-62000476D01*
X82447257Y-62190952D01*
D13*
%TO.C,J3*%
X103816529Y-80560000D02*
X103270000Y-80560000D01*
X105490000Y-71735000D02*
X104687530Y-71735000D01*
X105490000Y-80560000D02*
X105490000Y-71735000D01*
X105490000Y-81320000D02*
X105490000Y-82080000D01*
X104072470Y-71735000D02*
X103270000Y-71735000D01*
X103270000Y-80560000D02*
X103270000Y-71735000D01*
X105490000Y-82080000D02*
X104380000Y-82080000D01*
X105490000Y-80560000D02*
X104943471Y-80560000D01*
%TO.C,L2*%
X79865950Y-68052500D02*
X81257450Y-68052500D01*
X81257450Y-63607500D02*
X79865950Y-63607500D01*
X77354200Y-65830000D02*
G75*
G03*
X77354200Y-65830000I-76200J0D01*
G01*
%TO.C,C2*%
X110935000Y-76068748D02*
X110935000Y-76591252D01*
X109465000Y-76068748D02*
X109465000Y-76591252D01*
D11*
%TO.C,U1*%
X155850000Y-55975000D02*
X155450000Y-55975000D01*
X155850000Y-55975000D02*
X155850000Y-65975000D01*
X139450000Y-75575000D02*
X139450000Y-76075000D01*
X139850000Y-76075000D02*
X139450000Y-76075000D01*
X155850000Y-75575000D02*
X155850000Y-76075000D01*
X139450000Y-55975000D02*
X139450000Y-56475000D01*
X139850000Y-55975000D02*
X139450000Y-55975000D01*
X155850000Y-76075000D02*
X155450000Y-76075000D01*
D13*
%TO.C,R5*%
X114385000Y-81452936D02*
X114385000Y-81907064D01*
X115855000Y-81452936D02*
X115855000Y-81907064D01*
%TO.C,R16*%
X92939564Y-72875000D02*
X92485436Y-72875000D01*
X92939564Y-74345000D02*
X92485436Y-74345000D01*
%TO.C,C8*%
X102215000Y-81046252D02*
X102215000Y-80523748D01*
X100745000Y-81046252D02*
X100745000Y-80523748D01*
%TO.C,C7*%
X115577252Y-65813000D02*
X115054748Y-65813000D01*
X115577252Y-67283000D02*
X115054748Y-67283000D01*
%TO.C,C12*%
X132986252Y-55465001D02*
X132463748Y-55465001D01*
X132986252Y-56935001D02*
X132463748Y-56935001D01*
%TO.C,C5*%
X120961252Y-63300001D02*
X120438748Y-63300001D01*
X120961252Y-64770001D02*
X120438748Y-64770001D01*
%TO.C,R14*%
X125610436Y-76417500D02*
X126064564Y-76417500D01*
X125610436Y-74947500D02*
X126064564Y-74947500D01*
%TO.C,U7*%
X81584401Y-80225001D02*
X82584399Y-80225001D01*
X81184399Y-78324999D02*
X82584399Y-78324999D01*
%TO.C,L1*%
X79645950Y-85017500D02*
X81037450Y-85017500D01*
X81037450Y-80572500D02*
X79645950Y-80572500D01*
X77134200Y-82795000D02*
G75*
G03*
X77134200Y-82795000I-76200J0D01*
G01*
D12*
%TO.C,U4*%
X134887500Y-65812500D02*
X134080001Y-65812500D01*
X134887500Y-58787500D02*
X134080001Y-58787500D01*
X128269999Y-65812500D02*
X127462500Y-65812500D01*
X127462500Y-65812500D02*
X127462500Y-58787500D01*
X134887500Y-65812500D02*
X134887500Y-58787500D01*
X128269999Y-58787500D02*
X127462500Y-58787500D01*
D14*
X128445000Y-66399999D02*
G75*
G03*
X128445000Y-66399999I-125001J0D01*
G01*
D13*
%TO.C,R8*%
X134847064Y-77785000D02*
X134392936Y-77785000D01*
X134847064Y-76315000D02*
X134392936Y-76315000D01*
%TO.C,R6*%
X118180000Y-81452936D02*
X118180000Y-81907064D01*
X116710000Y-81452936D02*
X116710000Y-81907064D01*
D15*
%TO.C,J2*%
X151400000Y-78075000D02*
X153600000Y-78075000D01*
X149325000Y-82350000D02*
X149325000Y-80150000D01*
X151400000Y-84425000D02*
X153600000Y-84425000D01*
X155675000Y-82350000D02*
X155675000Y-80150000D01*
%TO.C,U2*%
X93752500Y-55985000D02*
X93152500Y-55985000D01*
X93152500Y-62985000D02*
X93152500Y-61385000D01*
X97552500Y-55985000D02*
X98152500Y-55985000D01*
X93752500Y-62985000D02*
X93152500Y-62985000D01*
X98152500Y-62985000D02*
X98152500Y-61385000D01*
X98152500Y-55985000D02*
X98152500Y-57585000D01*
X97552500Y-62985000D02*
X98152500Y-62985000D01*
X93152500Y-55985000D02*
X93152500Y-57585000D01*
D16*
X92093919Y-58285000D02*
G75*
G03*
X92093919Y-58285000I-141419J0D01*
G01*
D13*
%TO.C,R7*%
X116097936Y-60890000D02*
X116552064Y-60890000D01*
X116097936Y-62360000D02*
X116552064Y-62360000D01*
D15*
%TO.C,U6*%
X105027508Y-59424000D02*
X105027508Y-59180000D01*
X105027508Y-55374000D02*
X105027508Y-55136000D01*
X105027508Y-55136000D02*
G75*
G03*
X105027508Y-59424000I-1557707J-2144000D01*
G01*
D16*
X105884508Y-58580000D02*
G75*
G03*
X105884508Y-58580000I-100000J0D01*
G01*
D13*
%TO.C,D2*%
X96632500Y-77390000D02*
X97282500Y-77390000D01*
X96632500Y-77390000D02*
X95982500Y-77390000D01*
X96632500Y-74270000D02*
X97282500Y-74270000D01*
X96632500Y-74270000D02*
X94957500Y-74270000D01*
%TO.C,C11*%
X108755000Y-82571252D02*
X108755000Y-82048748D01*
X107285000Y-82571252D02*
X107285000Y-82048748D01*
%TO.C,U8*%
X96762500Y-70650000D02*
X97562500Y-70650000D01*
X96762500Y-73770000D02*
X97562500Y-73770000D01*
X96762500Y-70650000D02*
X94962500Y-70650000D01*
X96762500Y-73770000D02*
X95962500Y-73770000D01*
%TO.C,C15*%
X89475000Y-79183748D02*
X89475000Y-79706252D01*
X88005000Y-79183748D02*
X88005000Y-79706252D01*
%TO.C,R10*%
X92485436Y-70725000D02*
X92939564Y-70725000D01*
X92485436Y-72195000D02*
X92939564Y-72195000D01*
%TO.C,R1*%
X98725000Y-65832936D02*
X98725000Y-66287064D01*
X97255000Y-65832936D02*
X97255000Y-66287064D01*
%TO.C,C3*%
X120138748Y-79240000D02*
X120661252Y-79240000D01*
X120138748Y-80710000D02*
X120661252Y-80710000D01*
%TO.C,R18*%
X82325000Y-59052936D02*
X82325000Y-59507064D01*
X83795000Y-59052936D02*
X83795000Y-59507064D01*
%TO.C,J1*%
X68525000Y-59550000D02*
X67775000Y-59550000D01*
X67765000Y-67160000D02*
X73735000Y-67160000D01*
X67475000Y-67450000D02*
X68725000Y-67450000D01*
X68525000Y-61350000D02*
X68525000Y-59550000D01*
X70025000Y-59550000D02*
X70025000Y-60300000D01*
X67775000Y-67150000D02*
X68525000Y-67150000D01*
X67775000Y-61350000D02*
X68525000Y-61350000D01*
X68525000Y-63850000D02*
X68525000Y-62850000D01*
X68525000Y-65350000D02*
X67775000Y-65350000D01*
X67775000Y-65350000D02*
X67775000Y-67150000D01*
X67765000Y-59540000D02*
X67765000Y-67160000D01*
X67475000Y-66200000D02*
X67475000Y-67450000D01*
X72975000Y-66400000D02*
X72975000Y-63350000D01*
X67775000Y-62850000D02*
X67775000Y-63850000D01*
X67775000Y-59550000D02*
X67775000Y-61350000D01*
X73735000Y-67160000D02*
X73735000Y-59540000D01*
X73735000Y-59540000D02*
X67765000Y-59540000D01*
X70025000Y-60300000D02*
X72975000Y-60300000D01*
X70025000Y-66400000D02*
X72975000Y-66400000D01*
X70025000Y-67150000D02*
X70025000Y-66400000D01*
X72975000Y-60300000D02*
X72975000Y-63350000D01*
X68525000Y-62850000D02*
X67775000Y-62850000D01*
X68525000Y-67150000D02*
X68525000Y-65350000D01*
X67775000Y-63850000D02*
X68525000Y-63850000D01*
%TO.C,C1*%
X115577252Y-64743000D02*
X115054748Y-64743000D01*
X115577252Y-63273000D02*
X115054748Y-63273000D01*
%TO.C,R2*%
X92542500Y-65832936D02*
X92542500Y-66287064D01*
X94012500Y-65832936D02*
X94012500Y-66287064D01*
%TO.C,C14*%
X85605000Y-79183748D02*
X85605000Y-79706252D01*
X87075000Y-79183748D02*
X87075000Y-79706252D01*
%TO.C,R13*%
X125610436Y-72222500D02*
X126064564Y-72222500D01*
X125610436Y-73692500D02*
X126064564Y-73692500D01*
D12*
%TO.C,U5*%
X109557500Y-79025000D02*
X109959000Y-79025000D01*
X109557500Y-83925000D02*
X109959000Y-83925000D01*
X109557500Y-79025000D02*
X109557500Y-83925000D01*
D17*
X110984000Y-78425000D02*
G75*
G03*
X110984000Y-78425000I-125000J0D01*
G01*
D13*
%TO.C,C16*%
X131360000Y-82838752D02*
X131360000Y-82316248D01*
X129890000Y-82838752D02*
X129890000Y-82316248D01*
%TO.C,C19*%
X89695000Y-62218748D02*
X89695000Y-62741252D01*
X88225000Y-62218748D02*
X88225000Y-62741252D01*
%TO.C,R9*%
X126289999Y-82824564D02*
X126289999Y-82370436D01*
X127759999Y-82824564D02*
X127759999Y-82370436D01*
%TO.C,C18*%
X85825000Y-62218748D02*
X85825000Y-62741252D01*
X87295000Y-62218748D02*
X87295000Y-62741252D01*
%TO.C,C10*%
X111213748Y-54590000D02*
X111736252Y-54590000D01*
X111213748Y-56060000D02*
X111736252Y-56060000D01*
%TO.C,C4*%
X124560000Y-70186252D02*
X124560000Y-69663748D01*
X123090000Y-70186252D02*
X123090000Y-69663748D01*
%TO.C,U10*%
X81404399Y-61359999D02*
X82804399Y-61359999D01*
X81804401Y-63260001D02*
X82804399Y-63260001D01*
%TO.C,U3*%
X120610000Y-76285000D02*
X120610000Y-76735000D01*
X113390000Y-76285000D02*
X113390000Y-76735000D01*
X113390000Y-69515000D02*
X113840000Y-69515000D01*
X120160000Y-69515000D02*
X120160000Y-68225000D01*
X120610000Y-69515000D02*
X120160000Y-69515000D01*
X120610000Y-76735000D02*
X120160000Y-76735000D01*
X113390000Y-76735000D02*
X113840000Y-76735000D01*
X120610000Y-69965000D02*
X120610000Y-69515000D01*
X113390000Y-69965000D02*
X113390000Y-69515000D01*
%TO.C,C17*%
X78121252Y-61535000D02*
X77598748Y-61535000D01*
X78121252Y-63005000D02*
X77598748Y-63005000D01*
%TO.C,C6*%
X120961252Y-67030001D02*
X120438748Y-67030001D01*
X120961252Y-65560001D02*
X120438748Y-65560001D01*
%TO.C,R19*%
X80025000Y-59507064D02*
X80025000Y-59052936D01*
X81495000Y-59507064D02*
X81495000Y-59052936D01*
%TO.C,SW1*%
X65425000Y-76000000D02*
X65425000Y-75500000D01*
X65425000Y-72800000D02*
X65925000Y-72800000D01*
X65425000Y-75200000D02*
X65425000Y-74400000D01*
X67325000Y-79400000D02*
X67325000Y-77700000D01*
X67325000Y-70200000D02*
X71125000Y-70200000D01*
X66225000Y-72800000D02*
X66725000Y-72800000D01*
X65425000Y-74400000D02*
X65425000Y-74400000D01*
X67325000Y-77700000D02*
X67025000Y-77700000D01*
X67325000Y-72700000D02*
X67025000Y-72700000D01*
X67325000Y-74400000D02*
X67325000Y-72700000D01*
X71125000Y-73000000D02*
X71125000Y-73000000D01*
X65925000Y-76800000D02*
X65925000Y-76800000D01*
X67325000Y-71900000D02*
X67325000Y-70200000D01*
X67025000Y-72700000D02*
X67025000Y-71900000D01*
X67025000Y-75200000D02*
X67025000Y-74400000D01*
X65425000Y-74100000D02*
X65425000Y-74100000D01*
X71125000Y-78000000D02*
X71125000Y-79400000D01*
X66225000Y-76800000D02*
X66725000Y-76800000D01*
X67325000Y-75200000D02*
X67025000Y-75200000D01*
X65425000Y-75500000D02*
X65425000Y-75500000D01*
X65425000Y-73300000D02*
X65425000Y-73300000D01*
X67325000Y-76900000D02*
X67325000Y-75200000D01*
X66725000Y-76800000D02*
X66725000Y-76800000D01*
X65425000Y-72800000D02*
X65425000Y-73300000D01*
X71125000Y-75500000D02*
X71125000Y-75500000D01*
X65925000Y-72800000D02*
X65925000Y-72800000D01*
X65425000Y-76800000D02*
X65925000Y-76800000D01*
X65425000Y-76800000D02*
X65425000Y-76300000D01*
X67325000Y-70200000D02*
X67325000Y-70200000D01*
X65425000Y-76300000D02*
X65425000Y-76300000D01*
X66725000Y-72800000D02*
X66725000Y-72800000D01*
X71125000Y-74100000D02*
X71125000Y-73000000D01*
X71125000Y-70200000D02*
X71125000Y-71600000D01*
X67025000Y-77700000D02*
X67025000Y-76900000D01*
X65425000Y-73600000D02*
X65425000Y-74100000D01*
X67025000Y-74400000D02*
X67325000Y-74400000D01*
X67025000Y-71900000D02*
X67325000Y-71900000D01*
X67025000Y-76900000D02*
X67325000Y-76900000D01*
X71125000Y-76600000D02*
X71125000Y-75500000D01*
X71125000Y-79400000D02*
X67325000Y-79400000D01*
%TO.C,R3*%
X124235000Y-80902064D02*
X124235000Y-80447936D01*
X122765000Y-80902064D02*
X122765000Y-80447936D01*
%TO.C,Y1*%
X110562500Y-56700000D02*
X110562500Y-60300000D01*
X117887500Y-56700000D02*
X110562500Y-56700000D01*
X110562500Y-60300000D02*
X117887500Y-60300000D01*
%TO.C,R15*%
X81275000Y-76474564D02*
X81275000Y-76020436D01*
X79805000Y-76474564D02*
X79805000Y-76020436D01*
%TO.C,C13*%
X77901252Y-78500000D02*
X77378748Y-78500000D01*
X77901252Y-79970000D02*
X77378748Y-79970000D01*
%TO.C,C9*%
X119161252Y-56060000D02*
X118638748Y-56060000D01*
X119161252Y-54590000D02*
X118638748Y-54590000D01*
%TO.C,R12*%
X99290000Y-71962936D02*
X99290000Y-72417064D01*
X100760000Y-71962936D02*
X100760000Y-72417064D01*
%TO.C,R11*%
X83575000Y-76020436D02*
X83575000Y-76474564D01*
X82105000Y-76020436D02*
X82105000Y-76474564D01*
%TO.C,R4*%
X90547064Y-56920000D02*
X90092936Y-56920000D01*
X90547064Y-55450000D02*
X90092936Y-55450000D01*
%TO.C,D1*%
X133600000Y-74460000D02*
X136285000Y-74460000D01*
X136285000Y-72540000D02*
X133600000Y-72540000D01*
X136285000Y-74460000D02*
X136285000Y-72540000D01*
D15*
%TO.C,U9*%
X133980000Y-83370000D02*
X133980000Y-81810000D01*
X132380000Y-81810000D02*
X132380000Y-83370000D01*
D18*
X132780000Y-84690000D02*
G75*
G03*
X132780000Y-84690000I-100000J0D01*
G01*
D13*
%TO.C,R17*%
X134985000Y-82332936D02*
X134985000Y-82787064D01*
X136455000Y-82332936D02*
X136455000Y-82787064D01*
%TD*%
M02*
