%TF.GenerationSoftware,KiCad,Pcbnew,6.0.2+dfsg-1*%
%TF.CreationDate,2023-05-27T01:06:40+02:00*%
%TF.ProjectId,weather_station,77656174-6865-4725-9f73-746174696f6e,rev?*%
%TF.SameCoordinates,Original*%
%TF.FileFunction,Soldermask,Top*%
%TF.FilePolarity,Negative*%
%FSLAX46Y46*%
G04 Gerber Fmt 4.6, Leading zero omitted, Abs format (unit mm)*
G04 Created by KiCad (PCBNEW 6.0.2+dfsg-1) date 2023-05-27 01:06:40*
%MOMM*%
%LPD*%
G01*
G04 APERTURE LIST*
G04 Aperture macros list*
%AMRoundRect*
0 Rectangle with rounded corners*
0 $1 Rounding radius*
0 $2 $3 $4 $5 $6 $7 $8 $9 X,Y pos of 4 corners*
0 Add a 4 corners polygon primitive as box body*
4,1,4,$2,$3,$4,$5,$6,$7,$8,$9,$2,$3,0*
0 Add four circle primitives for the rounded corners*
1,1,$1+$1,$2,$3*
1,1,$1+$1,$4,$5*
1,1,$1+$1,$6,$7*
1,1,$1+$1,$8,$9*
0 Add four rect primitives between the rounded corners*
20,1,$1+$1,$2,$3,$4,$5,0*
20,1,$1+$1,$4,$5,$6,$7,0*
20,1,$1+$1,$6,$7,$8,$9,0*
20,1,$1+$1,$8,$9,$2,$3,0*%
%AMFreePoly0*
4,1,82,-1.212131,1.975377,-0.936919,1.911586,-0.673441,1.809654,-0.426954,1.671615,-0.202376,1.500222,-0.004188,1.298896,0.163656,1.071654,0.297807,0.823029,0.395587,0.557982,0.455047,0.281802,0.475000,0.000000,0.471053,-0.125581,0.433446,-0.405575,0.356762,-0.677476,0.242531,-0.935860,0.093034,-1.175571,-0.088747,-1.391826,-0.299186,-1.580310,-0.534083,-1.737263,-0.788751,-1.859553,
-1.058109,-1.944740,-1.336783,-1.991124,-1.619213,-1.997780,-1.899763,-1.964575,-2.172835,-1.892171,-2.432981,-1.782013,-2.675011,-1.636299,-2.894094,-1.457937,-3.085861,-1.250485,-3.246484,-1.018083,-3.372759,-0.765367,-3.462166,-0.497380,-3.512922,-0.219469,-3.522124,0.014731,-2.579978,0.014731,-2.562748,-0.190462,-2.505990,-0.388401,-2.411866,-0.571546,-2.283962,-0.732921,-2.127149,-0.866379,
-1.947401,-0.966837,-1.751563,-1.030468,-1.547096,-1.054850,-1.341787,-1.039052,-1.143457,-0.983677,-0.959659,-0.890834,-0.797396,-0.764060,-0.662846,-0.608183,-0.561136,-0.429140,-0.496138,-0.233752,-0.470330,-0.029460,-0.469919,0.000000,-0.490013,0.204933,-0.549529,0.402060,-0.646201,0.583873,-0.776345,0.743446,-0.935006,0.874702,-1.116140,0.972640,-1.312847,1.033531,-1.517634,1.055055,
-1.722702,1.036393,-1.920240,0.978254,-2.102724,0.882854,-2.263201,0.753827,-2.395562,0.596086,-2.494762,0.415641,-2.557025,0.219364,-2.579978,0.014731,-3.522124,0.014731,-3.524013,0.062822,-3.495219,0.343858,-3.427113,0.618034,-3.321055,0.879878,-3.179161,1.124167,-3.004262,1.346025,-2.799848,1.541026,-2.569997,1.705280,-2.319296,1.835509,-2.052746,1.929115,-1.775666,1.984229,
-1.493585,1.999753,-1.212131,1.975377,-1.212131,1.975377,$1*%
G04 Aperture macros list end*
%TA.AperFunction,Profile*%
%ADD10C,0.100000*%
%TD*%
%ADD11R,1.000000X1.000000*%
%ADD12O,1.000000X1.000000*%
%ADD13R,1.442200X4.191000*%
%ADD14RoundRect,0.250000X-0.475000X0.250000X-0.475000X-0.250000X0.475000X-0.250000X0.475000X0.250000X0*%
%ADD15R,1.000000X2.500000*%
%ADD16RoundRect,0.250000X-0.450000X0.262500X-0.450000X-0.262500X0.450000X-0.262500X0.450000X0.262500X0*%
%ADD17RoundRect,0.250000X0.262500X0.450000X-0.262500X0.450000X-0.262500X-0.450000X0.262500X-0.450000X0*%
%ADD18RoundRect,0.250000X0.475000X-0.250000X0.475000X0.250000X-0.475000X0.250000X-0.475000X-0.250000X0*%
%ADD19RoundRect,0.250000X0.250000X0.475000X-0.250000X0.475000X-0.250000X-0.475000X0.250000X-0.475000X0*%
%ADD20RoundRect,0.250000X-0.262500X-0.450000X0.262500X-0.450000X0.262500X0.450000X-0.262500X0.450000X0*%
%ADD21R,0.670001X0.299999*%
%ADD22R,0.800001X1.200000*%
%ADD23R,1.200000X1.200000*%
%ADD24R,1.520000X1.520000*%
%ADD25R,1.905000X1.905000*%
%ADD26RoundRect,0.090000X-0.660000X-0.210000X0.660000X-0.210000X0.660000X0.210000X-0.660000X0.210000X0*%
%ADD27RoundRect,0.090000X-0.210000X0.660000X-0.210000X-0.660000X0.210000X-0.660000X0.210000X0.660000X0*%
%ADD28RoundRect,0.090000X0.660000X0.210000X-0.660000X0.210000X-0.660000X-0.210000X0.660000X-0.210000X0*%
%ADD29C,2.100000*%
%ADD30FreePoly0,0.000000*%
%ADD31O,2.200000X1.100000*%
%ADD32RoundRect,0.150000X-0.587500X-0.150000X0.587500X-0.150000X0.587500X0.150000X-0.587500X0.150000X0*%
%ADD33RoundRect,0.150000X-0.512500X-0.150000X0.512500X-0.150000X0.512500X0.150000X-0.512500X0.150000X0*%
%ADD34RoundRect,0.250000X-0.250000X-0.475000X0.250000X-0.475000X0.250000X0.475000X-0.250000X0.475000X0*%
%ADD35RoundRect,0.250000X0.750000X-0.600000X0.750000X0.600000X-0.750000X0.600000X-0.750000X-0.600000X0*%
%ADD36O,2.000000X1.700000*%
%ADD37RoundRect,0.250000X0.450000X-0.262500X0.450000X0.262500X-0.450000X0.262500X-0.450000X-0.262500X0*%
%ADD38RoundRect,0.075000X-0.075000X0.662500X-0.075000X-0.662500X0.075000X-0.662500X0.075000X0.662500X0*%
%ADD39RoundRect,0.075000X-0.662500X0.075000X-0.662500X-0.075000X0.662500X-0.075000X0.662500X0.075000X0*%
%ADD40C,0.900000*%
%ADD41R,2.500000X1.250000*%
%ADD42R,3.325000X2.400000*%
%ADD43RoundRect,0.243750X0.243750X0.456250X-0.243750X0.456250X-0.243750X-0.456250X0.243750X-0.456250X0*%
%ADD44R,0.250000X0.550000*%
%ADD45C,0.750000*%
G04 APERTURE END LIST*
D10*
X66600000Y-53600000D02*
X156600000Y-53600000D01*
X156600000Y-53600000D02*
X156600000Y-85600000D01*
X156600000Y-85600000D02*
X66600000Y-85600000D01*
X66600000Y-85600000D02*
X66600000Y-53600000D01*
D11*
%TO.C,J3*%
X104380000Y-81320000D03*
D12*
X104380000Y-80050000D03*
X104380000Y-78780000D03*
X104380000Y-77510000D03*
X104380000Y-76240000D03*
X104380000Y-74970000D03*
X104380000Y-73700000D03*
X104380000Y-72430000D03*
%TD*%
D13*
%TO.C,L2*%
X78837300Y-65830000D03*
X82286100Y-65830000D03*
%TD*%
D14*
%TO.C,C2*%
X110200000Y-75380000D03*
X110200000Y-77280000D03*
%TD*%
D15*
%TO.C,U1*%
X154650000Y-56925000D03*
X152650000Y-56925000D03*
X150650000Y-56925000D03*
X148650000Y-56925000D03*
X146650000Y-56925000D03*
X144650000Y-56925000D03*
X142650000Y-56925000D03*
X140650000Y-56925000D03*
X140650000Y-75125000D03*
X142650000Y-75125000D03*
X144650000Y-75125000D03*
X146650000Y-75125000D03*
X148650000Y-75125000D03*
X150650000Y-75125000D03*
X152650000Y-75125000D03*
X154650000Y-75125000D03*
%TD*%
D16*
%TO.C,R5*%
X115120000Y-80767500D03*
X115120000Y-82592500D03*
%TD*%
D17*
%TO.C,R16*%
X93625000Y-73610000D03*
X91800000Y-73610000D03*
%TD*%
D18*
%TO.C,C8*%
X101480000Y-81735000D03*
X101480000Y-79835000D03*
%TD*%
D19*
%TO.C,C7*%
X116266000Y-66548000D03*
X114366000Y-66548000D03*
%TD*%
%TO.C,C12*%
X133675000Y-56200001D03*
X131775000Y-56200001D03*
%TD*%
%TO.C,C5*%
X121650000Y-64035001D03*
X119750000Y-64035001D03*
%TD*%
D20*
%TO.C,R14*%
X124925000Y-75682500D03*
X126750000Y-75682500D03*
%TD*%
D21*
%TO.C,U7*%
X81344399Y-78774998D03*
X81344399Y-79274997D03*
X81344399Y-79774999D03*
X82824401Y-79774999D03*
X82824401Y-79274997D03*
X82824401Y-78774998D03*
%TD*%
D13*
%TO.C,L1*%
X78617300Y-82795000D03*
X82066100Y-82795000D03*
%TD*%
D22*
%TO.C,U4*%
X129270000Y-66399999D03*
X130540000Y-66399999D03*
X131810000Y-66399999D03*
X133080000Y-66399999D03*
X133080000Y-58200001D03*
X131810000Y-58200001D03*
X130540000Y-58200001D03*
D23*
X129270000Y-58200001D03*
%TD*%
D17*
%TO.C,R8*%
X135532500Y-77050000D03*
X133707500Y-77050000D03*
%TD*%
D16*
%TO.C,R6*%
X117445000Y-80767500D03*
X117445000Y-82592500D03*
%TD*%
D24*
%TO.C,J2*%
X152500000Y-81250000D03*
D25*
X150125000Y-78875000D03*
X154875000Y-78875000D03*
X154875000Y-83625000D03*
X150125000Y-83625000D03*
%TD*%
D26*
%TO.C,U2*%
X93402500Y-58235000D03*
X93402500Y-59485000D03*
X93402500Y-60735000D03*
D27*
X94382500Y-62735000D03*
X96922500Y-62735000D03*
D28*
X97902500Y-60735000D03*
X97902500Y-59485000D03*
X97902500Y-58235000D03*
D27*
X96922500Y-56235000D03*
X94382500Y-56235000D03*
%TD*%
D20*
%TO.C,R7*%
X115412500Y-61625000D03*
X117237500Y-61625000D03*
%TD*%
D29*
%TO.C,M1*%
X70250000Y-56500000D03*
D30*
X71775000Y-56500000D03*
%TD*%
D31*
%TO.C,U6*%
X103764508Y-58550000D03*
X103764508Y-57280000D03*
X103764508Y-56010000D03*
%TD*%
D32*
%TO.C,D2*%
X95695000Y-74880000D03*
X95695000Y-76780000D03*
X97570000Y-75830000D03*
%TD*%
D18*
%TO.C,C11*%
X108020000Y-83260000D03*
X108020000Y-81360000D03*
%TD*%
D33*
%TO.C,U8*%
X95625000Y-71260000D03*
X95625000Y-72210000D03*
X95625000Y-73160000D03*
X97900000Y-73160000D03*
X97900000Y-71260000D03*
%TD*%
D14*
%TO.C,C15*%
X88740000Y-78495000D03*
X88740000Y-80395000D03*
%TD*%
D20*
%TO.C,R10*%
X91800000Y-71460000D03*
X93625000Y-71460000D03*
%TD*%
D16*
%TO.C,R1*%
X97990000Y-65147500D03*
X97990000Y-66972500D03*
%TD*%
D34*
%TO.C,C3*%
X119450000Y-79975000D03*
X121350000Y-79975000D03*
%TD*%
D16*
%TO.C,R18*%
X83060000Y-58367500D03*
X83060000Y-60192500D03*
%TD*%
D35*
%TO.C,J1*%
X70225000Y-64600000D03*
D36*
X70225000Y-62100000D03*
%TD*%
D19*
%TO.C,C1*%
X116266000Y-64008000D03*
X114366000Y-64008000D03*
%TD*%
D16*
%TO.C,R2*%
X93277500Y-65147500D03*
X93277500Y-66972500D03*
%TD*%
D14*
%TO.C,C14*%
X86340000Y-78495000D03*
X86340000Y-80395000D03*
%TD*%
D20*
%TO.C,R13*%
X124925000Y-72957500D03*
X126750000Y-72957500D03*
%TD*%
D18*
%TO.C,C16*%
X130625000Y-83527500D03*
X130625000Y-81627500D03*
%TD*%
D14*
%TO.C,C19*%
X88960000Y-61530000D03*
X88960000Y-63430000D03*
%TD*%
D37*
%TO.C,R9*%
X127024999Y-83510000D03*
X127024999Y-81685000D03*
%TD*%
D14*
%TO.C,C18*%
X86560000Y-61530000D03*
X86560000Y-63430000D03*
%TD*%
D34*
%TO.C,C10*%
X110525000Y-55325000D03*
X112425000Y-55325000D03*
%TD*%
D18*
%TO.C,C4*%
X123825000Y-70875000D03*
X123825000Y-68975000D03*
%TD*%
D21*
%TO.C,U10*%
X81564399Y-61809998D03*
X81564399Y-62309997D03*
X81564399Y-62809999D03*
X83044401Y-62809999D03*
X83044401Y-62309997D03*
X83044401Y-61809998D03*
%TD*%
D38*
%TO.C,U3*%
X119750000Y-68962500D03*
X119250000Y-68962500D03*
X118750000Y-68962500D03*
X118250000Y-68962500D03*
X117750000Y-68962500D03*
X117250000Y-68962500D03*
X116750000Y-68962500D03*
X116250000Y-68962500D03*
X115750000Y-68962500D03*
X115250000Y-68962500D03*
X114750000Y-68962500D03*
X114250000Y-68962500D03*
D39*
X112837500Y-70375000D03*
X112837500Y-70875000D03*
X112837500Y-71375000D03*
X112837500Y-71875000D03*
X112837500Y-72375000D03*
X112837500Y-72875000D03*
X112837500Y-73375000D03*
X112837500Y-73875000D03*
X112837500Y-74375000D03*
X112837500Y-74875000D03*
X112837500Y-75375000D03*
X112837500Y-75875000D03*
D38*
X114250000Y-77287500D03*
X114750000Y-77287500D03*
X115250000Y-77287500D03*
X115750000Y-77287500D03*
X116250000Y-77287500D03*
X116750000Y-77287500D03*
X117250000Y-77287500D03*
X117750000Y-77287500D03*
X118250000Y-77287500D03*
X118750000Y-77287500D03*
X119250000Y-77287500D03*
X119750000Y-77287500D03*
D39*
X121162500Y-75875000D03*
X121162500Y-75375000D03*
X121162500Y-74875000D03*
X121162500Y-74375000D03*
X121162500Y-73875000D03*
X121162500Y-73375000D03*
X121162500Y-72875000D03*
X121162500Y-72375000D03*
X121162500Y-71875000D03*
X121162500Y-71375000D03*
X121162500Y-70875000D03*
X121162500Y-70375000D03*
%TD*%
D19*
%TO.C,C17*%
X78810000Y-62270000D03*
X76910000Y-62270000D03*
%TD*%
%TO.C,C6*%
X121650000Y-66295001D03*
X119750000Y-66295001D03*
%TD*%
D29*
%TO.C,M2*%
X70250000Y-82750000D03*
D30*
X71775000Y-82750000D03*
%TD*%
D37*
%TO.C,R19*%
X80760000Y-60192500D03*
X80760000Y-58367500D03*
%TD*%
D40*
%TO.C,SW1*%
X69225000Y-78200000D03*
X69225000Y-71400000D03*
D41*
X71975000Y-72300000D03*
X71975000Y-74800000D03*
X71975000Y-77300000D03*
%TD*%
D37*
%TO.C,R3*%
X123500000Y-81587500D03*
X123500000Y-79762500D03*
%TD*%
D42*
%TO.C,Y1*%
X112425000Y-58500000D03*
X117950000Y-58500000D03*
%TD*%
D37*
%TO.C,R15*%
X80540000Y-77160000D03*
X80540000Y-75335000D03*
%TD*%
D19*
%TO.C,C13*%
X78590000Y-79235000D03*
X76690000Y-79235000D03*
%TD*%
%TO.C,C9*%
X119850000Y-55325000D03*
X117950000Y-55325000D03*
%TD*%
D16*
%TO.C,R12*%
X100025000Y-71277500D03*
X100025000Y-73102500D03*
%TD*%
%TO.C,R11*%
X82840000Y-75335000D03*
X82840000Y-77160000D03*
%TD*%
D17*
%TO.C,R4*%
X91232500Y-56185000D03*
X89407500Y-56185000D03*
%TD*%
D43*
%TO.C,D1*%
X135537500Y-73500000D03*
X133662500Y-73500000D03*
%TD*%
D44*
%TO.C,U9*%
X132680000Y-83965000D03*
X133180000Y-83965000D03*
X133680000Y-83965000D03*
X133680000Y-81215000D03*
X133180000Y-81215000D03*
X132680000Y-81215000D03*
%TD*%
D16*
%TO.C,R17*%
X135720000Y-81647500D03*
X135720000Y-83472500D03*
%TD*%
D45*
X121240000Y-56410000D03*
X88780132Y-82501675D03*
X145235716Y-82300000D03*
X154650000Y-58925000D03*
X87880132Y-82501675D03*
X140900000Y-80100000D03*
X140350000Y-79500000D03*
X75375000Y-79675000D03*
X119150000Y-81300000D03*
X86980132Y-81601675D03*
X143000000Y-79200000D03*
X86300000Y-65550000D03*
X88100000Y-65550000D03*
X75575000Y-61840000D03*
X89680132Y-81601675D03*
X88100000Y-64650000D03*
X93070000Y-74880000D03*
X75375000Y-78800000D03*
X142700000Y-81900000D03*
X146117858Y-82300000D03*
X147850000Y-80300000D03*
X116250000Y-62810000D03*
X88780132Y-81601675D03*
X86080132Y-82501675D03*
X125127701Y-71302299D03*
X89900000Y-65550000D03*
X135710000Y-79640000D03*
X147867858Y-82300000D03*
X85400000Y-64650000D03*
X144353574Y-82300000D03*
X146100000Y-80300000D03*
X78990000Y-75330000D03*
X143600000Y-79800000D03*
X89000000Y-65550000D03*
X139746432Y-78925000D03*
X85180132Y-81601675D03*
X144350000Y-80300000D03*
X89900000Y-64650000D03*
X141800000Y-78025000D03*
X145225000Y-80300000D03*
X89000000Y-64650000D03*
X79200000Y-58375000D03*
X148725000Y-80300000D03*
X146975000Y-80300000D03*
X87200000Y-65550000D03*
X87880132Y-81601675D03*
X148750000Y-82300000D03*
X139650000Y-77200000D03*
X99540000Y-60125000D03*
X89680132Y-82501675D03*
X122350000Y-62650000D03*
X141650000Y-77200000D03*
X86980132Y-82501675D03*
X143450000Y-82300000D03*
X147000000Y-82300000D03*
X130625000Y-80450000D03*
X139650000Y-78050000D03*
X74200000Y-72300000D03*
X142400000Y-78600000D03*
X109275000Y-56400000D03*
X133680000Y-84870000D03*
X136450000Y-56930000D03*
X142100000Y-81300000D03*
X86080132Y-81601675D03*
X75575000Y-62715000D03*
X87200000Y-64650000D03*
X122125000Y-81600000D03*
X86300000Y-64650000D03*
X141500000Y-80700000D03*
X113100000Y-64925000D03*
X100640000Y-69690000D03*
X121935339Y-61851777D03*
X114320000Y-70420000D03*
X100640000Y-65800000D03*
X122577501Y-75370678D03*
X132500000Y-73500000D03*
X116966589Y-74441589D03*
X118950000Y-75066089D03*
X116975000Y-75750000D03*
X116750000Y-78690000D03*
X117660000Y-78680000D03*
X125330000Y-74310000D03*
X133290000Y-78980000D03*
X131830000Y-80390000D03*
X125390000Y-77190000D03*
X129975000Y-68275000D03*
X116975000Y-72250000D03*
X116976790Y-73542144D03*
X131825000Y-67650500D03*
X115490000Y-72560000D03*
X129925000Y-65150000D03*
X115500000Y-71280000D03*
X143650000Y-59075000D03*
X122570000Y-73870000D03*
X150160000Y-72870000D03*
X151630000Y-72190000D03*
X119570000Y-72730000D03*
X99540000Y-61330000D03*
X95090000Y-58230000D03*
X95640000Y-62740000D03*
X99540000Y-62740000D03*
M02*
