%TF.GenerationSoftware,KiCad,Pcbnew,6.0.2+dfsg-1*%
%TF.CreationDate,2023-05-27T01:06:40+02:00*%
%TF.ProjectId,weather_station,77656174-6865-4725-9f73-746174696f6e,rev?*%
%TF.SameCoordinates,Original*%
%TF.FileFunction,Soldermask,Bot*%
%TF.FilePolarity,Negative*%
%FSLAX46Y46*%
G04 Gerber Fmt 4.6, Leading zero omitted, Abs format (unit mm)*
G04 Created by KiCad (PCBNEW 6.0.2+dfsg-1) date 2023-05-27 01:06:40*
%MOMM*%
%LPD*%
G01*
G04 APERTURE LIST*
G04 Aperture macros list*
%AMRoundRect*
0 Rectangle with rounded corners*
0 $1 Rounding radius*
0 $2 $3 $4 $5 $6 $7 $8 $9 X,Y pos of 4 corners*
0 Add a 4 corners polygon primitive as box body*
4,1,4,$2,$3,$4,$5,$6,$7,$8,$9,$2,$3,0*
0 Add four circle primitives for the rounded corners*
1,1,$1+$1,$2,$3*
1,1,$1+$1,$4,$5*
1,1,$1+$1,$6,$7*
1,1,$1+$1,$8,$9*
0 Add four rect primitives between the rounded corners*
20,1,$1+$1,$2,$3,$4,$5,0*
20,1,$1+$1,$4,$5,$6,$7,0*
20,1,$1+$1,$6,$7,$8,$9,0*
20,1,$1+$1,$8,$9,$2,$3,0*%
G04 Aperture macros list end*
%TA.AperFunction,Profile*%
%ADD10C,0.100000*%
%TD*%
%ADD11R,1.000000X1.000000*%
%ADD12O,1.000000X1.000000*%
%ADD13C,2.100000*%
%ADD14O,2.200000X1.100000*%
%ADD15RoundRect,0.250000X0.750000X-0.600000X0.750000X0.600000X-0.750000X0.600000X-0.750000X-0.600000X0*%
%ADD16O,2.000000X1.700000*%
%ADD17C,0.900000*%
%ADD18C,0.750000*%
G04 APERTURE END LIST*
D10*
X66600000Y-53600000D02*
X156600000Y-53600000D01*
X156600000Y-53600000D02*
X156600000Y-85600000D01*
X156600000Y-85600000D02*
X66600000Y-85600000D01*
X66600000Y-85600000D02*
X66600000Y-53600000D01*
D11*
%TO.C,J3*%
X104380000Y-81320000D03*
D12*
X104380000Y-80050000D03*
X104380000Y-78780000D03*
X104380000Y-77510000D03*
X104380000Y-76240000D03*
X104380000Y-74970000D03*
X104380000Y-73700000D03*
X104380000Y-72430000D03*
%TD*%
D13*
%TO.C,M1*%
X70250000Y-56500000D03*
%TD*%
D14*
%TO.C,U6*%
X103764508Y-58550000D03*
X103764508Y-57280000D03*
X103764508Y-56010000D03*
%TD*%
D15*
%TO.C,J1*%
X70225000Y-64600000D03*
D16*
X70225000Y-62100000D03*
%TD*%
D13*
%TO.C,M2*%
X70250000Y-82750000D03*
%TD*%
D17*
%TO.C,SW1*%
X69225000Y-78200000D03*
X69225000Y-71400000D03*
%TD*%
D18*
X121240000Y-56410000D03*
X88780132Y-82501675D03*
X145235716Y-82300000D03*
X154650000Y-58925000D03*
X87880132Y-82501675D03*
X140900000Y-80100000D03*
X140350000Y-79500000D03*
X75375000Y-79675000D03*
X119150000Y-81300000D03*
X86980132Y-81601675D03*
X143000000Y-79200000D03*
X86300000Y-65550000D03*
X88100000Y-65550000D03*
X75575000Y-61840000D03*
X89680132Y-81601675D03*
X88100000Y-64650000D03*
X93070000Y-74880000D03*
X75375000Y-78800000D03*
X142700000Y-81900000D03*
X146117858Y-82300000D03*
X147850000Y-80300000D03*
X116250000Y-62810000D03*
X88780132Y-81601675D03*
X86080132Y-82501675D03*
X125127701Y-71302299D03*
X89900000Y-65550000D03*
X135710000Y-79640000D03*
X147867858Y-82300000D03*
X85400000Y-64650000D03*
X144353574Y-82300000D03*
X146100000Y-80300000D03*
X78990000Y-75330000D03*
X143600000Y-79800000D03*
X89000000Y-65550000D03*
X139746432Y-78925000D03*
X85180132Y-81601675D03*
X144350000Y-80300000D03*
X89900000Y-64650000D03*
X141800000Y-78025000D03*
X145225000Y-80300000D03*
X89000000Y-64650000D03*
X79200000Y-58375000D03*
X148725000Y-80300000D03*
X146975000Y-80300000D03*
X87200000Y-65550000D03*
X87880132Y-81601675D03*
X148750000Y-82300000D03*
X139650000Y-77200000D03*
X99540000Y-60125000D03*
X89680132Y-82501675D03*
X122350000Y-62650000D03*
X141650000Y-77200000D03*
X86980132Y-82501675D03*
X143450000Y-82300000D03*
X147000000Y-82300000D03*
X130625000Y-80450000D03*
X139650000Y-78050000D03*
X74200000Y-72300000D03*
X142400000Y-78600000D03*
X109275000Y-56400000D03*
X133680000Y-84870000D03*
X136450000Y-56930000D03*
X142100000Y-81300000D03*
X86080132Y-81601675D03*
X75575000Y-62715000D03*
X87200000Y-64650000D03*
X122125000Y-81600000D03*
X86300000Y-64650000D03*
X141500000Y-80700000D03*
X113100000Y-64925000D03*
X100640000Y-69690000D03*
X121935339Y-61851777D03*
X114320000Y-70420000D03*
X100640000Y-65800000D03*
X122577501Y-75370678D03*
X132500000Y-73500000D03*
X116966589Y-74441589D03*
X118950000Y-75066089D03*
X116975000Y-75750000D03*
X116750000Y-78690000D03*
X117660000Y-78680000D03*
X125330000Y-74310000D03*
X133290000Y-78980000D03*
X131830000Y-80390000D03*
X125390000Y-77190000D03*
X129975000Y-68275000D03*
X116975000Y-72250000D03*
X116976790Y-73542144D03*
X131825000Y-67650500D03*
X115490000Y-72560000D03*
X129925000Y-65150000D03*
X115500000Y-71280000D03*
X143650000Y-59075000D03*
X122570000Y-73870000D03*
X150160000Y-72870000D03*
X151630000Y-72190000D03*
X119570000Y-72730000D03*
X99540000Y-61330000D03*
X95090000Y-58230000D03*
X95640000Y-62740000D03*
X99540000Y-62740000D03*
M02*
