M48
; DRILL file {KiCad 6.0.2+dfsg-1} date Sun 28 May 2023 23:34:36 CEST
; FORMAT={-:-/ absolute / metric / decimal}
; #@! TF.CreationDate,2023-05-28T23:34:36+02:00
; #@! TF.GenerationSoftware,Kicad,Pcbnew,6.0.2+dfsg-1
; #@! TF.FileFunction,Plated,1,2,PTH
FMAT,2
METRIC
; #@! TA.AperFunction,Plated,PTH,ViaDrill
T1C0.500
; #@! TA.AperFunction,Plated,PTH,ComponentDrill
T2C0.650
; #@! TA.AperFunction,Plated,PTH,ComponentDrill
T3C0.870
; #@! TA.AperFunction,Plated,PTH,ComponentDrill
T4C1.000
%
G90
G05
T1
X74.2Y-72.3
X75.375Y-78.8
X75.375Y-79.675
X75.575Y-61.84
X75.575Y-62.715
X78.99Y-75.33
X79.2Y-58.375
X85.18Y-81.602
X85.4Y-64.65
X86.08Y-81.602
X86.08Y-82.502
X86.3Y-64.65
X86.3Y-65.55
X86.98Y-81.602
X86.98Y-82.502
X87.2Y-64.65
X87.2Y-65.55
X87.88Y-81.602
X87.88Y-82.502
X88.1Y-64.65
X88.1Y-65.55
X88.78Y-81.602
X88.78Y-82.502
X89.0Y-64.65
X89.0Y-65.55
X89.68Y-81.602
X89.68Y-82.502
X89.9Y-64.65
X89.9Y-65.55
X93.07Y-74.88
X95.09Y-58.23
X95.64Y-62.74
X99.54Y-60.125
X99.54Y-61.33
X99.54Y-62.74
X100.64Y-65.8
X100.64Y-69.69
X109.275Y-56.4
X113.1Y-64.925
X114.32Y-70.42
X115.49Y-72.56
X115.5Y-71.28
X116.25Y-62.81
X116.75Y-78.69
X116.967Y-74.442
X116.975Y-72.25
X116.975Y-75.75
X116.977Y-73.542
X117.66Y-78.68
X118.95Y-75.066
X119.15Y-81.3
X119.57Y-72.73
X121.24Y-56.41
X121.935Y-61.852
X122.125Y-81.6
X122.35Y-62.65
X122.57Y-73.87
X122.578Y-75.371
X125.128Y-71.302
X125.33Y-74.31
X125.39Y-77.19
X129.925Y-65.15
X129.975Y-68.275
X130.625Y-80.45
X131.825Y-67.65
X131.83Y-80.39
X132.5Y-73.5
X133.29Y-78.98
X133.68Y-84.87
X135.71Y-79.64
X136.45Y-56.93
X139.65Y-77.2
X139.65Y-78.05
X139.746Y-78.925
X140.35Y-79.5
X140.9Y-80.1
X141.5Y-80.7
X141.65Y-77.2
X141.8Y-78.025
X142.1Y-81.3
X142.4Y-78.6
X142.7Y-81.9
X143.0Y-79.2
X143.45Y-82.3
X143.6Y-79.8
X143.65Y-59.075
X144.35Y-80.3
X144.354Y-82.3
X145.225Y-80.3
X145.236Y-82.3
X146.1Y-80.3
X146.118Y-82.3
X146.975Y-80.3
X147.0Y-82.3
X147.85Y-80.3
X147.868Y-82.3
X148.725Y-80.3
X148.75Y-82.3
X150.16Y-72.87
X151.63Y-72.19
X154.65Y-58.925
T2
X104.38Y-72.43
X104.38Y-73.7
X104.38Y-74.97
X104.38Y-76.24
X104.38Y-77.51
X104.38Y-78.78
X104.38Y-80.05
X104.38Y-81.32
X110.859Y-79.57
X110.859Y-80.84
X110.859Y-82.11
X110.859Y-83.38
T3
X103.765Y-56.01
X103.765Y-57.28
X103.765Y-58.55
T4
X70.225Y-62.1
X70.225Y-64.6
T0
M30
